<svg xmlns="http://www.w3.org/2000/svg" xmlns:xlink="http://www.w3.org/1999/xlink" version="1.1" x="0px" y="0px" viewBox="0 0 66.058 71.2" style="enable-background:new 0 0 66.058 56.96;" xml:space="preserve"><path d="M65.217,37.489c-5.802,1.529-11.655,2.255-17.629,1.348c-0.895-0.136-1.785-0.313-2.672-0.509  c0.091-0.072,0.186-0.14,0.277-0.213c3.072-2.455,5.948-5.156,8.572-8.085c2.725-3.043,5.342-6.339,7.222-9.98  c1.816-3.517,2.936-7.575,2.015-11.517c-0.761-3.261-2.884-6.427-6.01-7.814c-3.921-1.739-8.281-0.125-11.159,2.793  c-1.966,1.993-3.168,4.485-3.999,7.122c-1.159-2.724-3.574-4.974-6.461-5.659c-5.685-1.35-11.411,2.619-13.296,7.896  c-2.22,6.215,0.348,13.018,4.699,17.617c3.808,4.025,8.934,6.869,14.239,8.551c-4.847,3.488-10.115,6.406-15.596,8.755  c-5.943,2.547-12.174,4.388-18.505,5.701c0.382-0.266,0.764-0.532,1.133-0.816c0.999-0.771,1.948-1.604,2.835-2.502  c1.605-1.625,3.032-3.445,4.031-5.507c0.336-0.694-0.033-0.77-0.55-0.351c-0.622,0.504-1.089,1.237-1.738,1.758  c-3.937,3.157-7.859,6.182-12.27,8.662c-0.531,0.298-0.459,1.23,0.177,1.357c4.04,0.806,8.077,1.12,12.184,0.637  c1.956-0.23,3.905-0.586,5.805-1.104c1.248-0.34,5.691-1.292,5.406-3.151c-4.738,1.499-9.735,2.547-14.665,1.922  c9.975-1.803,19.596-5.513,28.212-10.851c0.98-0.607,1.947-1.236,2.901-1.885c0.397-0.27,2.438-2.105,2.813-2.007  c0.082,0.021,0.165,0.049,0.247,0.069c7.124,1.775,15.257,1.826,22.151-0.904C66.392,38.501,66.099,37.256,65.217,37.489z   M42.723,37.774c-4.023-1.136-7.875-2.905-11.262-5.348c-4.674-3.373-8.416-8.396-8.561-14.351  C22.768,12.609,26.256,7.23,31.946,6.44c2.728-0.379,5.345,0.637,7.112,2.744c1.21,1.444,1.892,3.259,1.844,5.088  c-0.158,0.75-0.303,1.498-0.438,2.238c-0.192,1.05,1.199,1.418,1.584,0.437c0.335-0.855,0.494-1.738,0.517-2.62  c0.66-3.076,1.599-6.151,3.547-8.631c2.207-2.812,5.94-4.883,9.55-3.713c3.045,0.987,5.02,4.004,5.706,7.001  c0.872,3.804-0.493,7.741-2.359,11.031c-3.624,6.392-9.06,11.965-14.741,16.56C43.76,36.983,43.241,37.378,42.723,37.774z"/><text x="0" y="71.96000000000001" fill="#0000" font-size="70px" font-weight="bold" font-family="'Helvetica Neue', Helvetica, Arial-Unicode, Arial, Sans-serif"></text><text x="0" y="76.96000000000001" fill="black" font-size="7px" font-weight="bold" font-family="'Helvetica Neue', Helvetica, Arial-Unicode, Arial, Sans-serif"></text></svg>