<svg xmlns="http://www.w3.org/2000/svg" data-name="Your Icon" viewBox="0 0 87.48 112.75" x="0px" y="0px"><title>abstract</title><path d="M47.13,17.12h0L32.76,13.06a0.12,0.12,0,0,1-.09-0.15,0.12,0.12,0,0,1,.15-0.09l14.34,4.06A0.12,0.12,0,0,1,47.13,17.12Z" transform="translate(-6.26 -4.9)"/><path d="M45.95,28.32h0a0.13,0.13,0,0,1-.11-0.14L47,17a0.13,0.13,0,1,1,.25,0l-1.19,11.2A0.13,0.13,0,0,1,45.95,28.32Z" transform="translate(-6.26 -4.9)"/><path d="M27.48,8L27.41,8,25.16,6.25a0.13,0.13,0,0,1,0-.18,0.12,0.12,0,0,1,.18,0l2.25,1.74A0.13,0.13,0,0,1,27.48,8Z" transform="translate(-6.26 -4.9)"/><path d="M32.23,10a0.12,0.12,0,0,1-.1,0L30.42,7.69a0.13,0.13,0,0,1,.2-0.15l1.72,2.24a0.13,0.13,0,0,1,0,.18Z" transform="translate(-6.26 -4.9)"/><path d="M26.92,10.54a0.12,0.12,0,0,1,0-.25l2.54-.56a0.13,0.13,0,0,1,.15.1,0.13,0.13,0,0,1-.1.15L27,10.54h0Z" transform="translate(-6.26 -4.9)"/><path d="M29.47,10a0.13,0.13,0,0,1-.09,0l-2-2a0.12,0.12,0,0,1,.18-0.18l2,2A0.13,0.13,0,0,1,29.47,10Z" transform="translate(-6.26 -4.9)"/><path d="M27.48,8a0.12,0.12,0,0,1,0-.25l3-.27a0.12,0.12,0,1,1,0,.25L27.5,8h0Z" transform="translate(-6.26 -4.9)"/><path d="M32.23,10H29.47a0.12,0.12,0,0,1,0-.25h2.77A0.12,0.12,0,0,1,32.23,10Z" transform="translate(-6.26 -4.9)"/><path d="M28.38,12.5h0a0.12,0.12,0,0,1-.07-0.16l1.08-2.52a0.12,0.12,0,0,1,.23.1L28.5,12.43A0.12,0.12,0,0,1,28.38,12.5Z" transform="translate(-6.26 -4.9)"/><path d="M32.79,13.06a0.13,0.13,0,0,1-.12-0.1L32.11,9.88a0.13,0.13,0,0,1,.1-0.15,0.12,0.12,0,0,1,.15.1l0.56,3.08a0.13,0.13,0,0,1-.1.15h0Z" transform="translate(-6.26 -4.9)"/><path d="M27.4,19.78a0.12,0.12,0,0,1-.08,0,0.13,0.13,0,0,1,0-.18l5.39-6.72a0.13,0.13,0,0,1,.2.16L27.5,19.73A0.13,0.13,0,0,1,27.4,19.78Z" transform="translate(-6.26 -4.9)"/><path d="M27.4,19.78a0.13,0.13,0,0,1,0-.25l19.73-2.66a0.13,0.13,0,0,1,.14.11,0.13,0.13,0,0,1-.11.14L27.42,19.78h0Z" transform="translate(-6.26 -4.9)"/><path d="M34.22,31.26a0.13,0.13,0,0,1-.11-0.06L27.3,19.72a0.13,0.13,0,1,1,.21-0.13l6.81,11.48a0.13,0.13,0,0,1,0,.17Z" transform="translate(-6.26 -4.9)"/><path d="M34.22,31.26A0.12,0.12,0,0,1,34.12,31L47,16.91a0.13,0.13,0,1,1,.18.17L34.31,31.22A0.13,0.13,0,0,1,34.22,31.26Z" transform="translate(-6.26 -4.9)"/><path d="M32.79,13.06h0l-4.41-.56a0.12,0.12,0,0,1-.11-0.14,0.12,0.12,0,0,1,.14-0.11l4.41,0.56A0.13,0.13,0,0,1,32.79,13.06Z" transform="translate(-6.26 -4.9)"/><path d="M26.92,10.54h0L23.55,10a0.13,0.13,0,0,1-.1-0.14,0.13,0.13,0,0,1,.14-0.1l3.36,0.56A0.13,0.13,0,0,1,26.92,10.54Z" transform="translate(-6.26 -4.9)"/><path d="M23.57,10H23.52a0.13,0.13,0,0,1-.06-0.17L25.12,6.1a0.13,0.13,0,1,1,.23.1L23.68,9.91A0.13,0.13,0,0,1,23.57,10Z" transform="translate(-6.26 -4.9)"/><path d="M23.57,10a0.13,0.13,0,0,1-.06-0.24l3.92-2a0.13,0.13,0,1,1,.11.22l-3.92,2H23.57Z" transform="translate(-6.26 -4.9)"/><path d="M28.38,12.5a0.12,0.12,0,0,1-.1-0.05l-1.46-2a0.12,0.12,0,1,1,.2-0.15l1.46,2a0.12,0.12,0,0,1,0,.17Z" transform="translate(-6.26 -4.9)"/><path d="M28.38,12.5a0.12,0.12,0,0,1-.07-0.23l3.85-2.52a0.12,0.12,0,0,1,.14.21l-3.85,2.52Z" transform="translate(-6.26 -4.9)"/><path d="M26.92,10.54h0a0.13,0.13,0,0,1-.1-0.15l0.56-2.53a0.13,0.13,0,0,1,.15-0.1,0.13,0.13,0,0,1,.1.15L27,10.44A0.12,0.12,0,0,1,26.92,10.54Z" transform="translate(-6.26 -4.9)"/><path d="M27.4,19.78h0a0.13,0.13,0,0,1-.11-0.14l1-7.28a0.13,0.13,0,0,1,.14-0.11,0.13,0.13,0,0,1,.11.14l-1,7.28A0.13,0.13,0,0,1,27.4,19.78Z" transform="translate(-6.26 -4.9)"/><path d="M18.87,19.78a0.13,0.13,0,0,1-.09-0.21l8.06-9.24a0.12,0.12,0,1,1,.19.16L19,19.74A0.13,0.13,0,0,1,18.87,19.78Z" transform="translate(-6.26 -4.9)"/><path d="M18.87,19.78a0.13,0.13,0,0,1-.08-0.22l9.52-7.28a0.12,0.12,0,0,1,.15.2l-9.52,7.28Z" transform="translate(-6.26 -4.9)"/><path d="M27.4,19.78H18.87a0.13,0.13,0,0,1,0-.25H27.4A0.13,0.13,0,0,1,27.4,19.78Z" transform="translate(-6.26 -4.9)"/><path d="M13.34,17.12a0.12,0.12,0,0,1-.07-0.23L23.5,9.75a0.12,0.12,0,1,1,.14.21L13.41,17.1Z" transform="translate(-6.26 -4.9)"/><path d="M18.87,19.78H18.81a0.13,0.13,0,0,1-.06-0.17l4.7-9.8a0.13,0.13,0,0,1,.17-0.06,0.13,0.13,0,0,1,.06.17L19,19.71A0.12,0.12,0,0,1,18.87,19.78Z" transform="translate(-6.26 -4.9)"/><path d="M18.87,19.78H18.81l-5.53-2.66a0.13,0.13,0,0,1-.06-0.17,0.13,0.13,0,0,1,.17-0.06l5.53,2.66A0.13,0.13,0,0,1,18.87,19.78Z" transform="translate(-6.26 -4.9)"/><path d="M13.34,17.12h0A0.13,0.13,0,0,1,13.22,17L16.86,6.11A0.13,0.13,0,0,1,17,6a0.13,0.13,0,0,1,.08.16L13.45,17A0.13,0.13,0,0,1,13.34,17.12Z" transform="translate(-6.26 -4.9)"/><path d="M23.57,10l-0.06,0L16.91,6.26A0.13,0.13,0,1,1,17,6l6.59,3.71A0.13,0.13,0,0,1,23.57,10Z" transform="translate(-6.26 -4.9)"/><path d="M47.13,17.12a0.12,0.12,0,0,1,0-.24l12.74-5.46a0.13,0.13,0,0,1,.16.07,0.13,0.13,0,0,1-.07.16L47.18,17.11h0Z" transform="translate(-6.26 -4.9)"/><path d="M70.38,12.64h0l-10.5-1a0.13,0.13,0,0,1,0-.25l10.5,1A0.13,0.13,0,0,1,70.38,12.64Z" transform="translate(-6.26 -4.9)"/><path d="M70.38,12.64H70.32a0.13,0.13,0,0,1-.06-0.17l1.83-3.78a0.13,0.13,0,0,1,.17-0.06,0.13,0.13,0,0,1,.06.17l-1.83,3.78A0.12,0.12,0,0,1,70.38,12.64Z" transform="translate(-6.26 -4.9)"/><path d="M72.2,8.86a0.13,0.13,0,0,1-.07-0.23l5.52-3.71a0.12,0.12,0,0,1,.14.21L72.27,8.84Z" transform="translate(-6.26 -4.9)"/><path d="M88.64,8.86h0L77.69,5.15A0.12,0.12,0,0,1,77.61,5a0.13,0.13,0,0,1,.16-0.08L88.68,8.62A0.12,0.12,0,0,1,88.64,8.86Z" transform="translate(-6.26 -4.9)"/><path d="M93.61,16.56a0.13,0.13,0,0,1-.11-0.06l-5-7.7a0.13,0.13,0,0,1,.21-0.14l5,7.7a0.13,0.13,0,0,1,0,.17Z" transform="translate(-6.26 -4.9)"/><path d="M87.53,16.56h0a0.13,0.13,0,0,1-.11-0.14l1.12-7.7a0.12,0.12,0,0,1,.14-0.11,0.13,0.13,0,0,1,.11.14l-1.12,7.7A0.13,0.13,0,0,1,87.53,16.56Z" transform="translate(-6.26 -4.9)"/><path d="M93.61,16.56H87.53a0.12,0.12,0,0,1,0-.25h6.09A0.13,0.13,0,0,1,93.61,16.56Z" transform="translate(-6.26 -4.9)"/><path d="M87.53,16.56a0.12,0.12,0,0,1-.09,0L77.63,5.11a0.12,0.12,0,0,1,0-.18,0.12,0.12,0,0,1,.18,0l9.8,11.41a0.12,0.12,0,0,1,0,.18A0.12,0.12,0,0,1,87.53,16.56Z" transform="translate(-6.26 -4.9)"/><path d="M83.26,17.12l-0.08,0L72.13,8.84a0.13,0.13,0,1,1,.15-0.2L83.33,16.9A0.12,0.12,0,0,1,83.26,17.12Z" transform="translate(-6.26 -4.9)"/><path d="M83.26,17.12A0.12,0.12,0,0,1,83.14,17l-5.53-12A0.12,0.12,0,1,1,77.84,5l5.53,12a0.12,0.12,0,0,1-.06.17H83.26Z" transform="translate(-6.26 -4.9)"/><path d="M83.26,17.12a0.13,0.13,0,0,1,0-.25l4.27-.56a0.12,0.12,0,0,1,.14.11,0.13,0.13,0,0,1-.11.14l-4.27.56h0Z" transform="translate(-6.26 -4.9)"/><path d="M87,21.88h0a0.12,0.12,0,0,1-.11-0.14l0.56-5a0.13,0.13,0,0,1,.14-0.11,0.12,0.12,0,0,1,.11.14l-0.56,5A0.12,0.12,0,0,1,87,21.88Z" transform="translate(-6.26 -4.9)"/><path d="M92.49,28.32h0a0.12,0.12,0,0,1-.11-0.14l1.12-11.76a0.13,0.13,0,0,1,.14-0.11,0.12,0.12,0,0,1,.11.14L92.62,28.21A0.12,0.12,0,0,1,92.49,28.32Z" transform="translate(-6.26 -4.9)"/><path d="M92.66,28.32a0.12,0.12,0,0,1-.11-0.08L87.41,16.49a0.12,0.12,0,0,1,.06-0.16,0.13,0.13,0,0,1,.16.06l5.14,11.76a0.12,0.12,0,0,1-.06.16h0Z" transform="translate(-6.26 -4.9)"/><path d="M90.25,32.94a0.13,0.13,0,0,1-.12-0.09L86.84,21.79a0.13,0.13,0,0,1,.08-0.16,0.12,0.12,0,0,1,.16.08l3.29,11.06a0.13,0.13,0,0,1-.08.16h0Z" transform="translate(-6.26 -4.9)"/><path d="M90.25,32.94H90.2a0.13,0.13,0,0,1-.06-0.17l2.24-4.62a0.12,0.12,0,1,1,.22.11l-2.24,4.62A0.13,0.13,0,0,1,90.25,32.94Z" transform="translate(-6.26 -4.9)"/><path d="M92.49,28.32a0.12,0.12,0,0,1-.09,0l-5.53-6.44a0.12,0.12,0,0,1,0-.18,0.12,0.12,0,0,1,.18,0l5.53,6.44a0.12,0.12,0,0,1,0,.18A0.12,0.12,0,0,1,92.49,28.32Z" transform="translate(-6.26 -4.9)"/><path d="M87,21.88a0.12,0.12,0,0,1-.1,0l-3.71-4.76a0.12,0.12,0,1,1,.2-0.15l3.71,4.76a0.13,0.13,0,0,1,0,.18Z" transform="translate(-6.26 -4.9)"/><path d="M83.26,17.12h0L70.34,12.63a0.13,0.13,0,0,1-.08-0.16,0.13,0.13,0,0,1,.16-0.08L83.3,16.88A0.13,0.13,0,0,1,83.26,17.12Z" transform="translate(-6.26 -4.9)"/><path d="M80.44,23.22h0a0.12,0.12,0,0,1-.07-0.16L82.58,17a0.13,0.13,0,0,1,.16-0.07,0.12,0.12,0,0,1,.07.16l-2.25,6.1A0.13,0.13,0,0,1,80.44,23.22Z" transform="translate(-6.26 -4.9)"/><path d="M80.44,23.22a0.13,0.13,0,0,1,0-.25l6.52-1.34a0.12,0.12,0,0,1,.15.1,0.12,0.12,0,0,1-.1.15l-6.52,1.34h0Z" transform="translate(-6.26 -4.9)"/><path d="M82.14,27.2A0.12,0.12,0,0,1,82,27.12l-1.69-4a0.13,0.13,0,0,1,.23-0.1l1.69,4a0.13,0.13,0,0,1-.07.16h0Z" transform="translate(-6.26 -4.9)"/><path d="M82.14,27.2a0.12,0.12,0,0,1-.08,0A0.13,0.13,0,0,1,82,27l4.83-5.32a0.13,0.13,0,0,1,.18,0,0.13,0.13,0,0,1,0,.18l-4.83,5.32A0.12,0.12,0,0,1,82.14,27.2Z" transform="translate(-6.26 -4.9)"/><path d="M84.66,33.5a0.13,0.13,0,0,1-.12-0.08L82,27.12A0.13,0.13,0,1,1,82.25,27l2.52,6.3a0.13,0.13,0,0,1-.07.16h0Z" transform="translate(-6.26 -4.9)"/><path d="M90.25,32.94l-0.07,0-8.12-5.74a0.13,0.13,0,1,1,.14-0.2l8.12,5.74A0.12,0.12,0,0,1,90.25,32.94Z" transform="translate(-6.26 -4.9)"/><path d="M84.66,33.5a0.13,0.13,0,0,1,0-.25l5.6-.56a0.12,0.12,0,0,1,.14.11,0.12,0.12,0,0,1-.11.14l-5.6.56h0Z" transform="translate(-6.26 -4.9)"/><path d="M69.26,24.75h0a0.12,0.12,0,0,1-.11-0.14L70.25,12.5a0.12,0.12,0,1,1,.25,0L69.38,24.64A0.12,0.12,0,0,1,69.26,24.75Z" transform="translate(-6.26 -4.9)"/><path d="M69.26,24.75a0.12,0.12,0,0,1-.1-0.05L59.77,11.61a0.12,0.12,0,1,1,.2-0.15l9.38,13.09a0.13,0.13,0,0,1,0,.17Z" transform="translate(-6.26 -4.9)"/><path d="M69.26,24.75h0L47.09,17.11A0.12,0.12,0,0,1,47,17a0.13,0.13,0,0,1,.16-0.08L69.3,24.51A0.13,0.13,0,0,1,69.26,24.75Z" transform="translate(-6.26 -4.9)"/><path d="M55.92,33.5H55.87l-10-5.18A0.12,0.12,0,0,1,46,28.08l10,5.18A0.12,0.12,0,0,1,55.92,33.5Z" transform="translate(-6.26 -4.9)"/><path d="M55.92,33.5a0.12,0.12,0,0,1-.11-0.07L47,17.05a0.13,0.13,0,0,1,.05-0.17,0.13,0.13,0,0,1,.17.05L56,33.31a0.13,0.13,0,0,1-.05.17H55.92Z" transform="translate(-6.26 -4.9)"/><path d="M55.92,33.5a0.12,0.12,0,0,1,0-.25l10-2.8a0.12,0.12,0,0,1,.15.09,0.12,0.12,0,0,1-.09.15l-10,2.8h0Z" transform="translate(-6.26 -4.9)"/><path d="M65.9,30.7l-0.06,0a0.13,0.13,0,0,1,0-.17l3.36-5.95a0.12,0.12,0,1,1,.22.12L66,30.64A0.12,0.12,0,0,1,65.9,30.7Z" transform="translate(-6.26 -4.9)"/><path d="M65.9,30.7l-0.07,0L47.06,17.1a0.12,0.12,0,1,1,.15-0.2L66,30.47A0.12,0.12,0,0,1,65.9,30.7Z" transform="translate(-6.26 -4.9)"/><path d="M72.69,26.08h0l-3.43-1.33a0.13,0.13,0,0,1,.09-0.23l3.43,1.33A0.13,0.13,0,0,1,72.69,26.08Z" transform="translate(-6.26 -4.9)"/><path d="M72.69,26.08a0.12,0.12,0,0,1,0-.24L80.4,23a0.12,0.12,0,1,1,.09.23l-7.76,2.86h0Z" transform="translate(-6.26 -4.9)"/><path d="M69.26,24.75a0.13,0.13,0,0,1-.06-0.23l13.44-7.63a0.13,0.13,0,0,1,.12.22L69.32,24.73Z" transform="translate(-6.26 -4.9)"/><path d="M69.26,24.75a0.13,0.13,0,0,1,0-.25L80.43,23a0.13,0.13,0,0,1,.14.11,0.13,0.13,0,0,1-.11.14L69.27,24.75h0Z" transform="translate(-6.26 -4.9)"/><path d="M70.94,28.88l-0.07,0a0.13,0.13,0,0,1,0-.17l1.75-2.8a0.13,0.13,0,0,1,.21.13L71,28.82A0.13,0.13,0,0,1,70.94,28.88Z" transform="translate(-6.26 -4.9)"/><path d="M65.9,30.7a0.13,0.13,0,0,1,0-.24l5-1.82a0.12,0.12,0,0,1,.08.24l-5,1.82h0Z" transform="translate(-6.26 -4.9)"/><path d="M70.94,28.88a0.13,0.13,0,0,1-.12-0.08l-1.68-4.13a0.13,0.13,0,0,1,.23-0.09l1.68,4.13a0.13,0.13,0,0,1-.07.16h0Z" transform="translate(-6.26 -4.9)"/><path d="M64.22,38.4a0.12,0.12,0,0,1-.08-0.22l5.6-4.34a0.12,0.12,0,1,1,.15.2l-5.6,4.34Z" transform="translate(-6.26 -4.9)"/><path d="M91.38,41a0.13,0.13,0,0,1-.12-0.11l-1.12-8a0.12,0.12,0,0,1,.11-0.14,0.13,0.13,0,0,1,.14.11l1.12,8a0.12,0.12,0,0,1-.11.14h0Z" transform="translate(-6.26 -4.9)"/><path d="M89.21,45.23l-0.06,0a0.13,0.13,0,0,1,0-.17l2.17-3.69a0.12,0.12,0,1,1,.21.13l-2.17,3.69A0.12,0.12,0,0,1,89.21,45.23Z" transform="translate(-6.26 -4.9)"/><path d="M85.85,49.46a0.12,0.12,0,0,1-.1-0.2L89.11,45a0.12,0.12,0,1,1,.2.16l-3.36,4.23A0.12,0.12,0,0,1,85.85,49.46Z" transform="translate(-6.26 -4.9)"/><path d="M89.21,45.23a0.13,0.13,0,0,1-.11-0.06l-4-6.39a0.13,0.13,0,0,1,0-.17,0.13,0.13,0,0,1,.17,0l4,6.39a0.13,0.13,0,0,1,0,.17Z" transform="translate(-6.26 -4.9)"/><path d="M91.38,41.54h0l-6.16-2.7a0.12,0.12,0,1,1,.1-0.23l6.16,2.7A0.12,0.12,0,0,1,91.38,41.54Z" transform="translate(-6.26 -4.9)"/><path d="M85.22,38.84a0.12,0.12,0,0,1-.09-0.21l5-5.9a0.12,0.12,0,1,1,.19.16l-5,5.9A0.12,0.12,0,0,1,85.22,38.84Z" transform="translate(-6.26 -4.9)"/><path d="M85.22,38.84a0.12,0.12,0,0,1-.12-0.11l-0.56-5.34a0.12,0.12,0,0,1,.11-0.14,0.13,0.13,0,0,1,.14.11l0.56,5.34a0.12,0.12,0,0,1-.11.14h0Z" transform="translate(-6.26 -4.9)"/><path d="M80.44,41.06a0.12,0.12,0,0,1-.05-0.24l4.77-2.22a0.12,0.12,0,0,1,.11.23L80.5,41H80.44Z" transform="translate(-6.26 -4.9)"/><path d="M80.44,50.3a0.13,0.13,0,0,1,0-.25l5.4-.84a0.12,0.12,0,0,1,.14.1,0.12,0.12,0,0,1-.1.14l-5.4.84h0Z" transform="translate(-6.26 -4.9)"/><path d="M80.44,50.3a0.12,0.12,0,0,1-.12-0.12V41.11a0.13,0.13,0,0,1,.25,0v9.07A0.12,0.12,0,0,1,80.44,50.3Z" transform="translate(-6.26 -4.9)"/><path d="M80.44,50.3h0a0.13,0.13,0,0,1-.07-0.16L85.1,38.66a0.12,0.12,0,0,1,.16-0.07,0.13,0.13,0,0,1,.07.16L80.56,50.22A0.12,0.12,0,0,1,80.44,50.3Z" transform="translate(-6.26 -4.9)"/><path d="M85.85,49.46a0.13,0.13,0,0,1-.12-0.12L85.09,38.72a0.13,0.13,0,0,1,.12-0.13h0a0.13,0.13,0,0,1,.13.12L86,49.32a0.13,0.13,0,0,1-.12.13h0Z" transform="translate(-6.26 -4.9)"/><path d="M29.47,10H29.41a0.12,0.12,0,0,1-.06-0.17l1-2.24a0.12,0.12,0,0,1,.23.11l-1,2.24A0.13,0.13,0,0,1,29.47,10Z" transform="translate(-6.26 -4.9)"/><path d="M25.79,24.33h0a0.12,0.12,0,0,1-.08-0.16l1.61-4.55a0.12,0.12,0,0,1,.24.08l-1.61,4.55A0.13,0.13,0,0,1,25.79,24.33Z" transform="translate(-6.26 -4.9)"/><path d="M25.79,24.33l-0.07,0L18.8,19.76a0.13,0.13,0,0,1,0-.17,0.13,0.13,0,0,1,.17,0l6.93,4.55A0.13,0.13,0,0,1,25.79,24.33Z" transform="translate(-6.26 -4.9)"/><path d="M19.78,25.52a0.13,0.13,0,0,1-.12-0.11l-0.91-5.74a0.13,0.13,0,0,1,.1-0.14,0.13,0.13,0,0,1,.14.1l0.91,5.74a0.13,0.13,0,0,1-.1.14h0Z" transform="translate(-6.26 -4.9)"/><path d="M19.78,25.52a0.12,0.12,0,0,1,0-.25l6-1.19a0.12,0.12,0,0,1,.15.1,0.12,0.12,0,0,1-.1.15l-6,1.19h0Z" transform="translate(-6.26 -4.9)"/><path d="M34.22,31.26a0.13,0.13,0,0,1-.08,0L25.71,24.3a0.13,0.13,0,0,1,.16-0.19L34.3,31A0.13,0.13,0,0,1,34.22,31.26Z" transform="translate(-6.26 -4.9)"/><path d="M34.22,31.26h0L19.73,25.51a0.13,0.13,0,0,1-.07-0.16,0.13,0.13,0,0,1,.16-0.07L34.26,31A0.13,0.13,0,0,1,34.22,31.26Z" transform="translate(-6.26 -4.9)"/><path d="M18.31,30.7h0a0.12,0.12,0,0,1-.09-0.15l1.47-5.18a0.12,0.12,0,0,1,.24.07l-1.47,5.18A0.12,0.12,0,0,1,18.31,30.7Z" transform="translate(-6.26 -4.9)"/><path d="M34.22,31.26h0L18.3,30.7a0.13,0.13,0,0,1-.12-0.13,0.12,0.12,0,0,1,.13-0.12L34.22,31A0.13,0.13,0,0,1,34.22,31.26Z" transform="translate(-6.26 -4.9)"/><path d="M11,18.24A0.13,0.13,0,0,1,10.9,18l2.38-1.12a0.13,0.13,0,0,1,.17.06,0.13,0.13,0,0,1-.06.17L11,18.23H11Z" transform="translate(-6.26 -4.9)"/><path d="M13.62,19.78a0.13,0.13,0,0,1-.12-0.11L13.21,17a0.13,0.13,0,0,1,.11-0.14,0.12,0.12,0,0,1,.14.11l0.28,2.66a0.13,0.13,0,0,1-.11.14h0Z" transform="translate(-6.26 -4.9)"/><path d="M18.87,19.78H13.62a0.13,0.13,0,1,1,0-.25h5.25A0.13,0.13,0,0,1,18.87,19.78Z" transform="translate(-6.26 -4.9)"/><path d="M13.9,22.44a0.13,0.13,0,0,1-.06-0.24l5-2.66a0.13,0.13,0,1,1,.12.22l-5,2.66H13.9Z" transform="translate(-6.26 -4.9)"/><path d="M13.9,22.44a0.13,0.13,0,0,1-.12-0.11l-0.28-2.66a0.13,0.13,0,0,1,.25,0L14,22.3a0.13,0.13,0,0,1-.11.14h0Z" transform="translate(-6.26 -4.9)"/><path d="M11,20.34a0.13,0.13,0,0,1,0-.25l2.66-.56a0.13,0.13,0,1,1,.05.24L11,20.34h0Z" transform="translate(-6.26 -4.9)"/><path d="M13.9,22.44l-0.07,0-2.94-2.1a0.12,0.12,0,0,1,0-.17,0.12,0.12,0,0,1,.17,0L14,22.21A0.12,0.12,0,0,1,13.9,22.44Z" transform="translate(-6.26 -4.9)"/><path d="M13.62,19.78l-0.06,0-2.66-1.54A0.13,0.13,0,1,1,11,18l2.66,1.54A0.13,0.13,0,0,1,13.62,19.78Z" transform="translate(-6.26 -4.9)"/><path d="M11,20.34a0.13,0.13,0,0,1-.12-0.12v-2.1a0.12,0.12,0,0,1,.25,0v2.1A0.13,0.13,0,0,1,11,20.34Z" transform="translate(-6.26 -4.9)"/><path d="M6.39,22.66a0.12,0.12,0,0,1-.06-0.24L10.9,20.1a0.12,0.12,0,0,1,.11.22L6.44,22.65H6.39Z" transform="translate(-6.26 -4.9)"/><path d="M6.39,22.66a0.13,0.13,0,0,1,0-.25l7.51-.22a0.13,0.13,0,0,1,.13.12,0.12,0.12,0,0,1-.12.13l-7.51.22h0Z" transform="translate(-6.26 -4.9)"/><path d="M6.39,22.66a0.13,0.13,0,0,1-.09-0.21L10.87,18A0.13,0.13,0,0,1,11,18a0.12,0.12,0,0,1,0,.18L6.47,22.62A0.13,0.13,0,0,1,6.39,22.66Z" transform="translate(-6.26 -4.9)"/><path d="M19.78,25.52H19.72l-5.88-3.08A0.13,0.13,0,0,1,14,22.2l5.88,3.08A0.13,0.13,0,0,1,19.78,25.52Z" transform="translate(-6.26 -4.9)"/><path d="M18.31,30.7a0.13,0.13,0,0,1-.11-0.07l-4.41-8.26A0.13,0.13,0,1,1,14,22.26l4.41,8.26a0.13,0.13,0,0,1-.05.17H18.31Z" transform="translate(-6.26 -4.9)"/><path d="M18.31,30.7l-0.07,0-11.92-8a0.12,0.12,0,0,1,.14-0.21l11.92,8A0.12,0.12,0,0,1,18.31,30.7Z" transform="translate(-6.26 -4.9)"/><path d="M30.06,40.43H30a0.12,0.12,0,0,1-.06-0.17l4.15-9.17A0.12,0.12,0,0,1,34.27,31a0.12,0.12,0,0,1,.06.17l-4.15,9.17A0.13,0.13,0,0,1,30.06,40.43Z" transform="translate(-6.26 -4.9)"/><path d="M24.13,40.43A0.12,0.12,0,0,1,24,40.37L18.2,30.64a0.13,0.13,0,0,1,.21-0.13l5.82,9.73a0.13,0.13,0,0,1,0,.17Z" transform="translate(-6.26 -4.9)"/><path d="M24.13,40.43a0.12,0.12,0,0,1-.09,0,0.12,0.12,0,0,1,0-.18L34.13,31a0.12,0.12,0,1,1,.17.18L24.21,40.39A0.12,0.12,0,0,1,24.13,40.43Z" transform="translate(-6.26 -4.9)"/><path d="M55.92,33.5h0L34.2,31.26a0.13,0.13,0,0,1-.11-0.14A0.12,0.12,0,0,1,34.23,31l21.71,2.24A0.13,0.13,0,0,1,55.92,33.5Z" transform="translate(-6.26 -4.9)"/><path d="M34.22,31.26a0.12,0.12,0,0,1,0-.25l11.73-2.94a0.12,0.12,0,0,1,.15.09,0.12,0.12,0,0,1-.09.15L34.25,31.25h0Z" transform="translate(-6.26 -4.9)"/><path d="M56.52,45.23a0.13,0.13,0,0,1-.12-0.12L55.8,33.38a0.13,0.13,0,0,1,.12-0.13h0a0.13,0.13,0,0,1,.13.12l0.6,11.73a0.13,0.13,0,0,1-.12.13h0Z" transform="translate(-6.26 -4.9)"/><path d="M52.64,49.25A0.12,0.12,0,0,1,52.55,49l3.89-4a0.13,0.13,0,0,1,.18.17l-3.89,4A0.13,0.13,0,0,1,52.64,49.25Z" transform="translate(-6.26 -4.9)"/><path d="M47.84,49.46a0.13,0.13,0,0,1,0-.25l4.8-.21a0.14,0.14,0,0,1,.13.12,0.13,0.13,0,0,1-.12.13l-4.8.21h0Z" transform="translate(-6.26 -4.9)"/><path d="M47.84,49.46a0.12,0.12,0,0,1-.05-0.24L56.47,45a0.12,0.12,0,1,1,.11.22l-8.69,4.23H47.84Z" transform="translate(-6.26 -4.9)"/><path d="M51.31,53.52h0a0.12,0.12,0,0,1-.08-0.16l1.32-4.27a0.12,0.12,0,1,1,.24.07l-1.32,4.27A0.12,0.12,0,0,1,51.31,53.52Z" transform="translate(-6.26 -4.9)"/><path d="M54.84,54.63a0.12,0.12,0,0,1-.12-0.08l-2.21-5.39a0.12,0.12,0,1,1,.23-0.09L55,54.46a0.12,0.12,0,0,1-.07.16h0Z" transform="translate(-6.26 -4.9)"/><path d="M54.84,54.63h0a0.12,0.12,0,0,1-.1-0.14l1.68-9.41a0.12,0.12,0,0,1,.14-0.1,0.13,0.13,0,0,1,.1.15L55,54.53A0.13,0.13,0,0,1,54.84,54.63Z" transform="translate(-6.26 -4.9)"/><path d="M51.31,53.52a0.12,0.12,0,0,1-.09,0l-3.48-4.06a0.12,0.12,0,1,1,.19-0.16l3.48,4.06a0.12,0.12,0,0,1,0,.18A0.12,0.12,0,0,1,51.31,53.52Z" transform="translate(-6.26 -4.9)"/><path d="M44.23,53a0.13,0.13,0,0,1-.09-0.21l3.61-3.5a0.13,0.13,0,1,1,.17.18l-3.61,3.5A0.12,0.12,0,0,1,44.23,53Z" transform="translate(-6.26 -4.9)"/><path d="M51.31,53.52h0L44.22,53a0.13,0.13,0,0,1-.11-0.13,0.12,0.12,0,0,1,.13-0.12l7.08,0.56A0.13,0.13,0,0,1,51.31,53.52Z" transform="translate(-6.26 -4.9)"/><path d="M54.84,54.63h0l-3.53-1.12a0.13,0.13,0,0,1-.08-0.16,0.13,0.13,0,0,1,.16-0.08l3.53,1.12A0.13,0.13,0,0,1,54.84,54.63Z" transform="translate(-6.26 -4.9)"/><path d="M52.85,59.21h0A0.12,0.12,0,0,1,52.74,59l2-4.58a0.12,0.12,0,0,1,.16-0.06,0.12,0.12,0,0,1,.06.16l-2,4.58A0.13,0.13,0,0,1,52.85,59.21Z" transform="translate(-6.26 -4.9)"/><path d="M49,56.43a0.12,0.12,0,0,1-.1-0.2l2.35-2.92a0.12,0.12,0,0,1,.18,0,0.13,0.13,0,0,1,0,.18l-2.36,2.92A0.12,0.12,0,0,1,49,56.43Z" transform="translate(-6.26 -4.9)"/><path d="M52.85,59.21a0.13,0.13,0,0,1-.12-0.09l-1.54-5.7a0.13,0.13,0,1,1,.24-0.06L53,59.06a0.13,0.13,0,0,1-.09.15h0Z" transform="translate(-6.26 -4.9)"/><path d="M52.85,62.47a0.12,0.12,0,0,1-.12-0.12V59.09a0.13,0.13,0,0,1,.25,0v3.26A0.12,0.12,0,0,1,52.85,62.47Z" transform="translate(-6.26 -4.9)"/><path d="M50.08,61A0.13,0.13,0,0,1,50,60.76L52.79,59a0.13,0.13,0,0,1,.13.21L50.15,61Z" transform="translate(-6.26 -4.9)"/><path d="M52.85,59.21l-0.07,0-3.89-2.78A0.12,0.12,0,0,1,49,56.2L52.92,59A0.12,0.12,0,0,1,52.85,59.21Z" transform="translate(-6.26 -4.9)"/><path d="M49,56.43l-0.07,0-4.73-3.48a0.13,0.13,0,0,1,.15-0.2L49,56.21A0.13,0.13,0,0,1,49,56.43Z" transform="translate(-6.26 -4.9)"/><path d="M45.61,58.27A0.12,0.12,0,0,1,45.55,58L48.9,56.2a0.12,0.12,0,0,1,.17,0,0.13,0.13,0,0,1,0,.17l-3.35,1.84Z" transform="translate(-6.26 -4.9)"/><path d="M50.08,61A0.13,0.13,0,0,1,50,60.89l-1.12-4.56a0.13,0.13,0,0,1,.09-0.15,0.12,0.12,0,0,1,.15.09l1.12,4.56a0.13,0.13,0,0,1-.09.15h0Z" transform="translate(-6.26 -4.9)"/><path d="M45.61,58.27a0.12,0.12,0,0,1-.12-0.11l-0.37-2.4a0.12,0.12,0,1,1,.25,0l0.37,2.4a0.13,0.13,0,0,1-.1.14h0Z" transform="translate(-6.26 -4.9)"/><path d="M45.24,55.87a0.13,0.13,0,0,1-.12-0.08l-1-2.92a0.13,0.13,0,1,1,.24-0.08l1,2.92a0.13,0.13,0,0,1-.08.16h0Z" transform="translate(-6.26 -4.9)"/><path d="M49,56.43h0l-3.72-.56a0.13,0.13,0,0,1-.1-0.14,0.12,0.12,0,0,1,.14-0.11L49,56.18A0.13,0.13,0,0,1,49,56.43Z" transform="translate(-6.26 -4.9)"/><path d="M41.52,56.76l-0.07,0a0.12,0.12,0,0,1,0-.17l2.71-3.8a0.12,0.12,0,1,1,.2.14l-2.71,3.8A0.12,0.12,0,0,1,41.52,56.76Z" transform="translate(-6.26 -4.9)"/><path d="M41.52,56.76a0.13,0.13,0,0,1-.11-0.07l-0.83-1.56A0.13,0.13,0,0,1,40.63,55a0.13,0.13,0,0,1,.17.05l0.83,1.56a0.13,0.13,0,0,1-.05.17H41.52Z" transform="translate(-6.26 -4.9)"/><path d="M40.68,55.2a0.12,0.12,0,0,1-.11-0.06,0.12,0.12,0,0,1,0-.17l3.55-2.24a0.12,0.12,0,0,1,.13.21l-3.55,2.24Z" transform="translate(-6.26 -4.9)"/><path d="M44.23,53h0L33.31,48.89a0.12,0.12,0,1,1,.09-0.23l10.88,4.06A0.12,0.12,0,0,1,44.23,53Z" transform="translate(-6.26 -4.9)"/><path d="M47.84,49.46h0L33.35,48.9a0.13,0.13,0,0,1,0-.25h0l14.49,0.56A0.13,0.13,0,0,1,47.84,49.46Z" transform="translate(-6.26 -4.9)"/><path d="M33.35,48.9a0.13,0.13,0,0,1-.12-0.08l-3.29-8.47A0.13,0.13,0,0,1,30,40.19a0.13,0.13,0,0,1,.16.07l3.29,8.47a0.13,0.13,0,0,1-.07.16h0Z" transform="translate(-6.26 -4.9)"/><path d="M33.35,48.9a0.12,0.12,0,0,1-.07-0.23l22.57-15.4a0.12,0.12,0,1,1,.14.21L33.42,48.87Z" transform="translate(-6.26 -4.9)"/><path d="M33.35,48.9a0.13,0.13,0,0,1,0-.25L56.5,45a0.12,0.12,0,0,1,.14.1,0.12,0.12,0,0,1-.1.14L33.37,48.89h0Z" transform="translate(-6.26 -4.9)"/><path d="M65.05,44.67a0.12,0.12,0,0,1-.1,0L55.83,33.45A0.12,0.12,0,0,1,56,33.29l9.13,11.17A0.13,0.13,0,0,1,65.05,44.67Z" transform="translate(-6.26 -4.9)"/><path d="M65.05,44.67a0.12,0.12,0,0,1,0-.25l8.82-.67h0a0.12,0.12,0,0,1,0,.25l-8.82.67h0Z" transform="translate(-6.26 -4.9)"/><path d="M73.88,44h0a0.13,0.13,0,0,1-.08-0.16L77.61,31.1a0.13,0.13,0,0,1,.24.07L74,43.91A0.13,0.13,0,0,1,73.88,44Z" transform="translate(-6.26 -4.9)"/><path d="M77.63,28.32H77.58l-4.94-2.24a0.12,0.12,0,1,1,.1-0.23l4.94,2.24A0.12,0.12,0,0,1,77.63,28.32Z" transform="translate(-6.26 -4.9)"/><path d="M69.82,34.06h0L55.92,33.5a0.12,0.12,0,0,1-.12-0.13,0.12,0.12,0,0,1,.13-0.12l13.89,0.56A0.13,0.13,0,0,1,69.82,34.06Z" transform="translate(-6.26 -4.9)"/><path d="M69.82,34.06a0.12,0.12,0,0,1-.08,0l-3.92-3.36A0.12,0.12,0,1,1,66,30.48l3.92,3.36A0.12,0.12,0,0,1,69.82,34.06Z" transform="translate(-6.26 -4.9)"/><path d="M69.82,34.06l-0.06,0a0.13,0.13,0,0,1,0-.17L72,30a0.12,0.12,0,1,1,.21.13L69.92,34A0.12,0.12,0,0,1,69.82,34.06Z" transform="translate(-6.26 -4.9)"/><path d="M69.82,34.06h0a0.12,0.12,0,0,1-.1-0.15l1.12-5.18a0.13,0.13,0,0,1,.15-0.1,0.12,0.12,0,0,1,.1.15L69.94,34A0.13,0.13,0,0,1,69.82,34.06Z" transform="translate(-6.26 -4.9)"/><path d="M72.13,30.14a0.12,0.12,0,0,1-.09,0l-1.19-1.26A0.13,0.13,0,0,1,71,28.67l1.19,1.26A0.12,0.12,0,0,1,72.13,30.14Z" transform="translate(-6.26 -4.9)"/><path d="M72.13,30.14h0A0.13,0.13,0,0,1,72,30l0.56-4.06a0.13,0.13,0,1,1,.25,0L72.25,30A0.13,0.13,0,0,1,72.13,30.14Z" transform="translate(-6.26 -4.9)"/><path d="M72.13,30.14a0.12,0.12,0,0,1,0-.24l5.5-1.82a0.12,0.12,0,0,1,.16.08,0.13,0.13,0,0,1-.08.16l-5.5,1.82h0Z" transform="translate(-6.26 -4.9)"/><path d="M77.63,28.32l-0.06,0a0.13,0.13,0,0,1,0-.17L80.33,23a0.13,0.13,0,1,1,.22.12l-2.81,5.1A0.12,0.12,0,0,1,77.63,28.32Z" transform="translate(-6.26 -4.9)"/><path d="M77.63,28.32a0.12,0.12,0,0,1,0-.25L82.11,27a0.12,0.12,0,1,1,.06.24l-4.5,1.12h0Z" transform="translate(-6.26 -4.9)"/><path d="M84.66,33.5h0l-6.93-2.24a0.12,0.12,0,0,1-.08-0.16A0.13,0.13,0,0,1,77.76,31l6.93,2.24A0.13,0.13,0,0,1,84.66,33.5Z" transform="translate(-6.26 -4.9)"/><path d="M77.73,31.26a0.12,0.12,0,0,1-.12-0.12l-0.1-2.94a0.13,0.13,0,0,1,.12-0.13h0a0.12,0.12,0,0,1,.13.12l0.1,2.94a0.13,0.13,0,0,1-.12.13h0Z" transform="translate(-6.26 -4.9)"/><path d="M77.73,31.26a0.12,0.12,0,0,1-.09,0,0.12,0.12,0,0,1,0-.18L82.05,27a0.13,0.13,0,0,1,.17.18l-4.41,4.06A0.12,0.12,0,0,1,77.73,31.26Z" transform="translate(-6.26 -4.9)"/><path d="M77.93,31.26h0l-5.8-1.12A0.13,0.13,0,0,1,72,30a0.12,0.12,0,0,1,.15-0.1L78,31A0.12,0.12,0,0,1,77.93,31.26Z" transform="translate(-6.26 -4.9)"/><path d="M80.44,41.06A0.12,0.12,0,0,1,80.32,41l-2.72-9.8A0.12,0.12,0,0,1,77.69,31a0.13,0.13,0,0,1,.15.09l2.72,9.8a0.12,0.12,0,0,1-.09.15h0Z" transform="translate(-6.26 -4.9)"/><path d="M80.44,41.06l-0.06,0a0.13,0.13,0,0,1,0-.17l4.21-7.56a0.13,0.13,0,0,1,.22.12L80.55,41A0.13,0.13,0,0,1,80.44,41.06Z" transform="translate(-6.26 -4.9)"/><path d="M73.88,44a0.12,0.12,0,0,1-.12-0.11L72,30a0.13,0.13,0,0,1,.11-0.14,0.13,0.13,0,0,1,.14.11L74,43.86a0.13,0.13,0,0,1-.11.14h0Z" transform="translate(-6.26 -4.9)"/><path d="M73.88,44a0.12,0.12,0,0,1-.12-0.08L69.7,34a0.12,0.12,0,0,1,.07-0.16,0.13,0.13,0,0,1,.16.07L74,43.82a0.13,0.13,0,0,1-.07.16h0Z" transform="translate(-6.26 -4.9)"/><path d="M73.88,44l-0.06,0-9.66-5.6a0.12,0.12,0,1,1,.13-0.22l9.66,5.6A0.12,0.12,0,0,1,73.88,44Z" transform="translate(-6.26 -4.9)"/><path d="M64.22,38.4l-0.06,0-8.29-4.9A0.12,0.12,0,1,1,56,33.27l8.29,4.9A0.12,0.12,0,0,1,64.22,38.4Z" transform="translate(-6.26 -4.9)"/><path d="M65.05,44.67a0.13,0.13,0,0,1-.12-0.11l-0.84-6.27a0.13,0.13,0,0,1,.11-0.14,0.12,0.12,0,0,1,.14.11l0.84,6.27a0.13,0.13,0,0,1-.11.14h0Z" transform="translate(-6.26 -4.9)"/><path d="M73.88,44a0.12,0.12,0,0,1-.05-0.24l6.57-2.94a0.13,0.13,0,1,1,.1.23L73.93,44H73.88Z" transform="translate(-6.26 -4.9)"/><path d="M80.44,50.3a0.13,0.13,0,0,1-.09,0L73.79,44a0.12,0.12,0,0,1,0-.18,0.13,0.13,0,0,1,.18,0l6.57,6.3a0.12,0.12,0,0,1,0,.18A0.12,0.12,0,0,1,80.44,50.3Z" transform="translate(-6.26 -4.9)"/><path d="M69.82,53.52a0.13,0.13,0,0,1,0-.25l10.63-3.22a0.12,0.12,0,1,1,.07.24L69.85,53.51h0Z" transform="translate(-6.26 -4.9)"/><path d="M69.82,53.52h0a0.13,0.13,0,0,1-.07-0.16l4.06-9.52a0.13,0.13,0,0,1,.23.1l-4.06,9.52A0.12,0.12,0,0,1,69.82,53.52Z" transform="translate(-6.26 -4.9)"/><path d="M56.52,45.23a0.12,0.12,0,0,1,0-.25L65,44.42a0.13,0.13,0,0,1,.13.12,0.13,0.13,0,0,1-.12.13l-8.53.56h0Z" transform="translate(-6.26 -4.9)"/><path d="M69.82,53.52l-0.07,0L56.46,45.21A0.13,0.13,0,1,1,56.59,45l13.29,8.29A0.13,0.13,0,0,1,69.82,53.52Z" transform="translate(-6.26 -4.9)"/><path d="M69.82,53.52a0.13,0.13,0,0,1-.11-0.07L64.94,44.6a0.13,0.13,0,0,1,.22-0.12l4.76,8.85a0.13,0.13,0,0,1-.05.17H69.82Z" transform="translate(-6.26 -4.9)"/><path d="M54.84,54.63a0.13,0.13,0,0,1,0-.25l15-1.12h0a0.13,0.13,0,0,1,0,.25l-15,1.12h0Z" transform="translate(-6.26 -4.9)"/><path d="M55.62,65.58a0.12,0.12,0,0,1-.12-0.12L54.72,54.52a0.13,0.13,0,0,1,.12-0.13,0.13,0.13,0,0,1,.13.12l0.78,10.94a0.13,0.13,0,0,1-.12.13h0Z" transform="translate(-6.26 -4.9)"/><path d="M55.62,65.58a0.12,0.12,0,0,1-.09,0l-2.77-3.11a0.13,0.13,0,0,1,.19-0.17l2.77,3.11a0.13,0.13,0,0,1,0,.18A0.13,0.13,0,0,1,55.62,65.58Z" transform="translate(-6.26 -4.9)"/><path d="M55.62,65.58a0.13,0.13,0,0,1-.11-0.08l-2.77-6.37A0.12,0.12,0,0,1,53,59l2.77,6.37a0.12,0.12,0,0,1-.06.16h0Z" transform="translate(-6.26 -4.9)"/><path d="M52.85,62.47H52.79L50,61a0.13,0.13,0,0,1,.12-0.22l2.77,1.49a0.12,0.12,0,0,1,.05.17A0.12,0.12,0,0,1,52.85,62.47Z" transform="translate(-6.26 -4.9)"/><path d="M45.61,63a0.12,0.12,0,0,1-.12-0.12V58.15a0.13,0.13,0,1,1,.25,0v4.76A0.12,0.12,0,0,1,45.61,63Z" transform="translate(-6.26 -4.9)"/><path d="M47.65,66.3a0.12,0.12,0,0,1-.11-0.06L45.5,63a0.12,0.12,0,0,1,0-.17,0.12,0.12,0,0,1,.17,0l2,3.27a0.12,0.12,0,0,1,0,.17Z" transform="translate(-6.26 -4.9)"/><path d="M50.08,64.46h0L45.57,63a0.13,0.13,0,0,1-.08-0.16,0.12,0.12,0,0,1,.16-0.08l4.47,1.43A0.13,0.13,0,0,1,50.08,64.46Z" transform="translate(-6.26 -4.9)"/><path d="M50.08,64.46A0.12,0.12,0,0,1,50,64.33V60.86a0.13,0.13,0,1,1,.25,0v3.47A0.12,0.12,0,0,1,50.08,64.46Z" transform="translate(-6.26 -4.9)"/><path d="M45.61,63a0.12,0.12,0,0,1-.05-0.24l4.47-2a0.12,0.12,0,1,1,.1.23l-4.47,2H45.61Z" transform="translate(-6.26 -4.9)"/><path d="M50.08,61L50,61l-4.47-2.71A0.12,0.12,0,1,1,45.67,58l4.47,2.71A0.12,0.12,0,0,1,50.08,61Z" transform="translate(-6.26 -4.9)"/><path d="M41.52,56.76a0.13,0.13,0,0,1,0-.25l3.72-.89a0.13,0.13,0,0,1,.15.09,0.13,0.13,0,0,1-.09.15l-3.72.89h0Z" transform="translate(-6.26 -4.9)"/><path d="M40.68,60a0.13,0.13,0,0,1,0-.24L45.56,58a0.13,0.13,0,0,1,.08.24L40.73,60h0Z" transform="translate(-6.26 -4.9)"/><path d="M40.68,60h0a0.13,0.13,0,0,1-.09-0.15L41.4,56.6a0.12,0.12,0,0,1,.15-0.09,0.13,0.13,0,0,1,.09.15l-0.83,3.26A0.12,0.12,0,0,1,40.68,60Z" transform="translate(-6.26 -4.9)"/><path d="M45.24,58.27h0l-3.72-1.51a0.13,0.13,0,0,1,.09-0.23L45.29,58a0.13,0.13,0,0,1,.07.16A0.12,0.12,0,0,1,45.24,58.27Z" transform="translate(-6.26 -4.9)"/><path d="M45.61,63l-0.07,0-4.92-3a0.13,0.13,0,0,1,0-.17,0.12,0.12,0,0,1,.17,0l4.92,3A0.12,0.12,0,0,1,45.61,63Z" transform="translate(-6.26 -4.9)"/><path d="M51.87,68.21h0a0.13,0.13,0,0,1-.1-0.14l1-5.74a0.12,0.12,0,0,1,.14-0.1,0.13,0.13,0,0,1,.1.14l-1,5.74A0.12,0.12,0,0,1,51.87,68.21Z" transform="translate(-6.26 -4.9)"/><path d="M51.87,68.21a0.12,0.12,0,0,1-.11-0.07L50,64.39a0.12,0.12,0,0,1,.23-0.11L52,68a0.12,0.12,0,0,1-.06.17H51.87Z" transform="translate(-6.26 -4.9)"/><path d="M51.87,68.21A0.13,0.13,0,0,1,51.8,68l3.75-2.63a0.13,0.13,0,1,1,.14.21l-3.75,2.63Z" transform="translate(-6.26 -4.9)"/><path d="M50.08,64.46A0.12,0.12,0,0,1,50,64.23l2.77-2a0.13,0.13,0,0,1,.15.2l-2.77,2Z" transform="translate(-6.26 -4.9)"/><path d="M51.87,68.21H51.82L47.6,66.29a0.13,0.13,0,0,1,.1-0.23L51.93,68A0.13,0.13,0,0,1,51.87,68.21Z" transform="translate(-6.26 -4.9)"/><path d="M47.65,66.3a0.12,0.12,0,0,1-.08-0.22L50,64.24a0.13,0.13,0,1,1,.15.2l-2.42,1.84Z" transform="translate(-6.26 -4.9)"/><path d="M55.4,70.09h0A0.13,0.13,0,0,1,55.28,70l0.22-4.51a0.13,0.13,0,0,1,.13-0.12,0.13,0.13,0,0,1,.12.13L55.53,70A0.12,0.12,0,0,1,55.4,70.09Z" transform="translate(-6.26 -4.9)"/><path d="M55.4,70.09H55.35L51.82,68.2A0.12,0.12,0,0,1,51.76,68,0.13,0.13,0,0,1,51.93,68l3.53,1.88A0.12,0.12,0,0,1,55.4,70.09Z" transform="translate(-6.26 -4.9)"/><path d="M54.28,71.21a0.12,0.12,0,0,1-.09,0,0.13,0.13,0,0,1,0-.18l1.12-1.12a0.13,0.13,0,0,1,.18,0,0.13,0.13,0,0,1,0,.18l-1.12,1.12A0.12,0.12,0,0,1,54.28,71.21Z" transform="translate(-6.26 -4.9)"/><path d="M54.28,71.21a0.12,0.12,0,0,1-.1,0l-2.41-3A0.13,0.13,0,0,1,52,68l2.41,3a0.13,0.13,0,0,1,0,.18A0.12,0.12,0,0,1,54.28,71.21Z" transform="translate(-6.26 -4.9)"/><path d="M53.41,76.26h0a0.13,0.13,0,0,1-.1-0.14l0.87-5a0.12,0.12,0,0,1,.14-0.1,0.13,0.13,0,0,1,.1.14l-0.87,5A0.13,0.13,0,0,1,53.41,76.26Z" transform="translate(-6.26 -4.9)"/><path d="M57.64,78.62a0.13,0.13,0,0,1-.11-0.07l-3.36-7.4A0.13,0.13,0,0,1,54.23,71a0.13,0.13,0,0,1,.17.06l3.36,7.4a0.13,0.13,0,0,1-.06.17H57.64Z" transform="translate(-6.26 -4.9)"/><path d="M55.4,70.09a0.12,0.12,0,0,1,0-.25l6.78-1.67a0.12,0.12,0,0,1,.15.09,0.12,0.12,0,0,1-.09.15l-6.78,1.67h0Z" transform="translate(-6.26 -4.9)"/><path d="M57.64,78.62H57.59a0.12,0.12,0,0,1-.06-0.17l4.54-10.2a0.13,0.13,0,0,1,.17-0.06,0.12,0.12,0,0,1,.06.17l-4.54,10.2A0.12,0.12,0,0,1,57.64,78.62Z" transform="translate(-6.26 -4.9)"/><path d="M57.64,78.62a0.13,0.13,0,0,1-.12-0.09L55.28,70a0.13,0.13,0,0,1,.24-0.06l2.24,8.52a0.13,0.13,0,0,1-.09.15h0Z" transform="translate(-6.26 -4.9)"/><path d="M57.64,78.62l-0.06,0-4.23-2.36A0.13,0.13,0,0,1,53.47,76l4.23,2.36A0.13,0.13,0,0,1,57.64,78.62Z" transform="translate(-6.26 -4.9)"/><path d="M53.41,76.26a0.13,0.13,0,0,1-.12-0.1l-1.54-8a0.13,0.13,0,0,1,.1-0.15,0.13,0.13,0,0,1,.15.1l1.54,8a0.13,0.13,0,0,1-.1.15h0Z" transform="translate(-6.26 -4.9)"/><path d="M39.71,79.4l-0.06,0a0.12,0.12,0,0,1,0-.17l7.95-13.1a0.12,0.12,0,0,1,.21.13l-7.95,13.1A0.12,0.12,0,0,1,39.71,79.4Z" transform="translate(-6.26 -4.9)"/><path d="M39.71,79.4a0.12,0.12,0,0,1-.08-0.22L51.79,68A0.12,0.12,0,0,1,52,68a0.13,0.13,0,0,1,0,.18L39.79,79.37A0.12,0.12,0,0,1,39.71,79.4Z" transform="translate(-6.26 -4.9)"/><path d="M49,81.44h0l-9.25-2a0.13,0.13,0,0,1-.1-0.15,0.13,0.13,0,0,1,.15-0.09l9.25,2A0.12,0.12,0,0,1,49,81.44Z" transform="translate(-6.26 -4.9)"/><path d="M49,81.44a0.12,0.12,0,0,1-.09-0.21l4.45-5.18a0.12,0.12,0,0,1,.19.16L49.05,81.4A0.12,0.12,0,0,1,49,81.44Z" transform="translate(-6.26 -4.9)"/><path d="M49,81.44h0a0.13,0.13,0,0,1-.1-0.15l2.92-13.23a0.13,0.13,0,1,1,.24.05L49.08,81.34A0.13,0.13,0,0,1,49,81.44Z" transform="translate(-6.26 -4.9)"/><path d="M33.46,74.85a0.13,0.13,0,0,1-.09-0.21L45.52,62.82a0.13,0.13,0,1,1,.17.18L33.54,74.81A0.12,0.12,0,0,1,33.46,74.85Z" transform="translate(-6.26 -4.9)"/><path d="M33.46,74.85a0.13,0.13,0,0,1-.06-0.23l14.2-8.54a0.13,0.13,0,0,1,.13.21l-14.2,8.54Z" transform="translate(-6.26 -4.9)"/><path d="M33.46,74.85H33.4a0.13,0.13,0,0,1-.06-0.17l7.23-14.83a0.12,0.12,0,0,1,.17-0.06,0.13,0.13,0,0,1,.06.17L33.57,74.78A0.12,0.12,0,0,1,33.46,74.85Z" transform="translate(-6.26 -4.9)"/><path d="M33.46,74.85h0l-5.35-1.49A0.12,0.12,0,0,1,28,73.2a0.12,0.12,0,0,1,.15-0.09l5.35,1.49A0.12,0.12,0,0,1,33.46,74.85Z" transform="translate(-6.26 -4.9)"/><path d="M28.1,73.36a0.13,0.13,0,0,1-.09,0,0.13,0.13,0,0,1,0-.18L40.59,59.8a0.13,0.13,0,1,1,.18.17L28.19,73.32A0.12,0.12,0,0,1,28.1,73.36Z" transform="translate(-6.26 -4.9)"/><path d="M28.1,73.36h0A0.12,0.12,0,0,1,28,73.22l2-19.14A0.12,0.12,0,0,1,30.08,54a0.12,0.12,0,0,1,.11.14l-2,19.14A0.13,0.13,0,0,1,28.1,73.36Z" transform="translate(-6.26 -4.9)"/><path d="M40.68,60l-0.06,0L30,54.2A0.12,0.12,0,1,1,30.12,54l10.62,5.8A0.12,0.12,0,0,1,40.68,60Z" transform="translate(-6.26 -4.9)"/><path d="M41.52,56.31h0L30,54.21a0.13,0.13,0,0,1-.1-0.15,0.13,0.13,0,0,1,.15-0.1l11.46,2.1A0.13,0.13,0,0,1,41.52,56.31Z" transform="translate(-6.26 -4.9)"/><path d="M40.68,55.2h0l-10.62-1a0.12,0.12,0,0,1-.11-0.14A0.12,0.12,0,0,1,30.08,54l10.62,1A0.12,0.12,0,0,1,40.68,55.2Z" transform="translate(-6.26 -4.9)"/><path d="M30.06,54.21L30,54.2A0.13,0.13,0,0,1,30,54l3.29-5.32a0.12,0.12,0,0,1,.17,0,0.13,0.13,0,0,1,0,.17l-3.29,5.32A0.13,0.13,0,0,1,30.06,54.21Z" transform="translate(-6.26 -4.9)"/><path d="M40.68,55.2a0.12,0.12,0,0,1-.08,0l-7.33-6.3a0.12,0.12,0,1,1,.16-0.19L40.77,55a0.12,0.12,0,0,1,0,.18A0.12,0.12,0,0,1,40.68,55.2Z" transform="translate(-6.26 -4.9)"/><path d="M72.69,63a0.13,0.13,0,0,1-.12-0.09L69.7,53.43a0.13,0.13,0,0,1,.08-0.16,0.13,0.13,0,0,1,.16.08l2.87,9.52a0.13,0.13,0,0,1-.08.16h0Z" transform="translate(-6.26 -4.9)"/><path d="M55.62,65.58a0.13,0.13,0,0,1-.08-0.22l14.2-12.06a0.13,0.13,0,1,1,.16.19L55.7,65.55A0.13,0.13,0,0,1,55.62,65.58Z" transform="translate(-6.26 -4.9)"/><path d="M55.62,65.58a0.13,0.13,0,0,1,0-.25l17.07-2.54a0.12,0.12,0,0,1,.14.11,0.13,0.13,0,0,1-.11.14L55.64,65.58h0Z" transform="translate(-6.26 -4.9)"/><path d="M62.19,68.42a0.12,0.12,0,0,1-.06-0.24l10.5-5.39a0.13,0.13,0,0,1,.17.05,0.13,0.13,0,0,1-.05.17l-10.5,5.39H62.19Z" transform="translate(-6.26 -4.9)"/><path d="M62.19,68.42h0l-6.57-2.84a0.12,0.12,0,0,1-.06-0.16,0.12,0.12,0,0,1,.16-0.06l6.57,2.84A0.12,0.12,0,0,1,62.19,68.42Z" transform="translate(-6.26 -4.9)"/><path d="M62.54,93.12A0.12,0.12,0,0,1,62.42,93L62.06,68.3a0.13,0.13,0,0,1,.13-0.13,0.12,0.12,0,0,1,.13.12L62.67,93a0.12,0.12,0,0,1-.12.13h0Z" transform="translate(-6.26 -4.9)"/><path d="M27,82h0a0.12,0.12,0,0,1-.11-0.14L28,73.22a0.12,0.12,0,0,1,.14-0.11,0.12,0.12,0,0,1,.11.14l-1.1,8.64A0.13,0.13,0,0,1,27,82Z" transform="translate(-6.26 -4.9)"/><path d="M30.87,84.29h0a0.12,0.12,0,0,1-.09-0.15l2.59-9.44a0.12,0.12,0,0,1,.15-0.09,0.12,0.12,0,0,1,.09.15L31,84.2A0.12,0.12,0,0,1,30.87,84.29Z" transform="translate(-6.26 -4.9)"/><path d="M30.87,84.29l-0.06,0L26.94,82a0.13,0.13,0,0,1,.13-0.21l3.87,2.29A0.13,0.13,0,0,1,30.87,84.29Z" transform="translate(-6.26 -4.9)"/><path d="M27,82a0.12,0.12,0,0,1-.09,0,0.13,0.13,0,0,1,0-.18l6.46-6.88a0.12,0.12,0,0,1,.18,0,0.13,0.13,0,0,1,0,.18L27.09,82A0.13,0.13,0,0,1,27,82Z" transform="translate(-6.26 -4.9)"/><path d="M30.87,84a0.12,0.12,0,0,1-.06-0.24l8.84-4.63a0.12,0.12,0,1,1,.12.22L30.93,84H30.87Z" transform="translate(-6.26 -4.9)"/><path d="M39.71,79.4l-0.07,0-6.25-4.55a0.12,0.12,0,1,1,.15-0.2l6.25,4.55A0.12,0.12,0,0,1,39.71,79.4Z" transform="translate(-6.26 -4.9)"/><path d="M39.71,85a0.12,0.12,0,0,1-.12-0.12V79.28a0.13,0.13,0,0,1,.25,0v5.57A0.12,0.12,0,0,1,39.71,85Z" transform="translate(-6.26 -4.9)"/><path d="M44.33,90.71H44.28a0.13,0.13,0,0,1-.06-0.17l4.63-9.27a0.12,0.12,0,1,1,.22.11l-4.63,9.27A0.12,0.12,0,0,1,44.33,90.71Z" transform="translate(-6.26 -4.9)"/><path d="M43.68,95.1H43.62l-9.49-4.8a0.12,0.12,0,0,1,.11-0.22l9.49,4.8A0.12,0.12,0,0,1,43.68,95.1Z" transform="translate(-6.26 -4.9)"/><path d="M34.19,90.29a0.13,0.13,0,0,1-.09-0.21l5.51-5.32a0.13,0.13,0,1,1,.17.18l-5.51,5.32A0.13,0.13,0,0,1,34.19,90.29Z" transform="translate(-6.26 -4.9)"/><path d="M34.19,90.29a0.13,0.13,0,0,1-.11-0.07L30.76,84a0.13,0.13,0,0,1,.05-0.17,0.13,0.13,0,0,1,.17.05l3.32,6.26a0.13,0.13,0,0,1-.05.17H34.19Z" transform="translate(-6.26 -4.9)"/><path d="M39.71,85h0L30.86,84a0.12,0.12,0,0,1-.11-0.14,0.12,0.12,0,0,1,.14-0.11l8.84,0.94A0.12,0.12,0,0,1,39.71,85Z" transform="translate(-6.26 -4.9)"/><path d="M39.71,85a0.12,0.12,0,0,1-.12-0.08,0.13,0.13,0,0,1,.07-0.16l9.25-3.53a0.13,0.13,0,0,1,.09.23L39.75,85h0Z" transform="translate(-6.26 -4.9)"/><path d="M44.33,90.71a0.12,0.12,0,0,1-.1,0l-4.63-5.74a0.12,0.12,0,1,1,.19-0.16l4.63,5.74A0.12,0.12,0,0,1,44.33,90.71Z" transform="translate(-6.26 -4.9)"/><path d="M49,81.44a0.13,0.13,0,0,1,0-.24l8.68-2.82a0.13,0.13,0,0,1,.08.24L49,81.44h0Z" transform="translate(-6.26 -4.9)"/><path d="M62.54,93.12A0.13,0.13,0,0,1,62.42,93l-4.9-14.5a0.12,0.12,0,0,1,.24-0.08L62.66,93a0.12,0.12,0,0,1-.08.16h0Z" transform="translate(-6.26 -4.9)"/><path d="M62.54,93.12a0.12,0.12,0,0,1-.08,0L48.88,81.41A0.12,0.12,0,0,1,49,81.22L62.62,92.9a0.12,0.12,0,0,1,0,.18A0.12,0.12,0,0,1,62.54,93.12Z" transform="translate(-6.26 -4.9)"/><path d="M62.54,93.12h0L44.32,90.71a0.13,0.13,0,0,1-.11-0.14,0.12,0.12,0,0,1,.14-0.11l18.21,2.41A0.13,0.13,0,0,1,62.54,93.12Z" transform="translate(-6.26 -4.9)"/><path d="M43.68,95.1h0a0.13,0.13,0,0,1-.1-0.14l0.65-4.38a0.12,0.12,0,0,1,.14-0.11,0.13,0.13,0,0,1,.1.14L43.8,95A0.13,0.13,0,0,1,43.68,95.1Z" transform="translate(-6.26 -4.9)"/><path d="M43.68,95.1a0.12,0.12,0,0,1,0-.25l18.86-2a0.12,0.12,0,0,1,.14.11,0.12,0.12,0,0,1-.11.14l-18.86,2h0Z" transform="translate(-6.26 -4.9)"/><path d="M10.4,48.34a0.13,0.13,0,0,1,0-.24L30,40.19a0.13,0.13,0,1,1,.09.23L10.44,48.33h0Z" transform="translate(-6.26 -4.9)"/><path d="M30.06,54.21h0L10.36,48.33a0.12,0.12,0,0,1,.07-0.24L30.1,54A0.13,0.13,0,0,1,30.06,54.21Z" transform="translate(-6.26 -4.9)"/><path d="M33.35,48.9h0l-23-.56a0.13,0.13,0,0,1,0-.25h0l23,0.56A0.13,0.13,0,0,1,33.35,48.9Z" transform="translate(-6.26 -4.9)"/><path d="M30.06,40.43H24.13a0.13,0.13,0,0,1,0-.25h5.94A0.13,0.13,0,0,1,30.06,40.43Z" transform="translate(-6.26 -4.9)"/><path d="M10.4,48.34H10.35a0.13,0.13,0,0,1-.06-0.17l7.91-17.64a0.13,0.13,0,0,1,.23.1L10.51,48.26A0.13,0.13,0,0,1,10.4,48.34Z" transform="translate(-6.26 -4.9)"/><path d="M10.4,48.34a0.13,0.13,0,0,1-.06-0.23l13.73-7.91a0.13,0.13,0,0,1,.13.22L10.46,48.32Z" transform="translate(-6.26 -4.9)"/><path d="M25.23,6.27h0l-3.45-.56a0.13,0.13,0,0,1-.1-0.14,0.13,0.13,0,0,1,.14-0.1L25.25,6A0.13,0.13,0,0,1,25.23,6.27Z" transform="translate(-6.26 -4.9)"/><path d="M23.57,10a0.12,0.12,0,0,1-.12-0.08L21.67,5.64a0.12,0.12,0,1,1,.23-0.1l1.78,4.27a0.12,0.12,0,0,1-.07.16h0Z" transform="translate(-6.26 -4.9)"/><path d="M17,6.27A0.12,0.12,0,0,1,17,6l4.81-.56a0.13,0.13,0,0,1,.14.11,0.12,0.12,0,0,1-.11.14L17,6.27h0Z" transform="translate(-6.26 -4.9)"/><path d="M13.34,17.12a0.13,0.13,0,0,1-.11-0.06L8.88,9.67a0.13,0.13,0,1,1,.22-0.13l4.35,7.39a0.13,0.13,0,0,1,0,.17Z" transform="translate(-6.26 -4.9)"/><path d="M9,9.73a0.13,0.13,0,0,1,0-.24l8-3.46a0.13,0.13,0,1,1,.1.23L9,9.72H9Z" transform="translate(-6.26 -4.9)"/><path d="M13,11.1a0.12,0.12,0,0,1-.08,0,0.12,0.12,0,0,1,0-.18l4-4.83a0.12,0.12,0,1,1,.19.16l-4,4.83A0.12,0.12,0,0,1,13,11.1Z" transform="translate(-6.26 -4.9)"/><path d="M13.34,17.12A0.13,0.13,0,0,1,13.21,17l-0.36-6A0.13,0.13,0,0,1,13,10.85a0.12,0.12,0,0,1,.13.12l0.36,6a0.13,0.13,0,0,1-.12.13h0Z" transform="translate(-6.26 -4.9)"/><path d="M13,11.1h0l-4-1.37A0.12,0.12,0,0,1,9,9.49l4,1.37A0.12,0.12,0,0,1,13,11.1Z" transform="translate(-6.26 -4.9)"/><path d="M20.75,7.18l-0.07,0a0.13,0.13,0,0,1,0-.17l1-1.47a0.13,0.13,0,0,1,.2.14l-1,1.47A0.13,0.13,0,0,1,20.75,7.18Z" transform="translate(-6.26 -4.9)"/><path d="M23.57,10a0.13,0.13,0,0,1-.09,0l-2.82-2.8A0.12,0.12,0,1,1,20.83,7l2.82,2.8A0.12,0.12,0,0,1,23.57,10Z" transform="translate(-6.26 -4.9)"/><path d="M20.75,7.18h0l-3.77-.91a0.13,0.13,0,0,1-.09-0.15A0.13,0.13,0,0,1,17,6l3.77,0.91A0.13,0.13,0,0,1,20.75,7.18Z" transform="translate(-6.26 -4.9)"/><path d="M23.57,7a0.12,0.12,0,0,1,0-.24L25.19,6a0.12,0.12,0,0,1,.1.23L23.62,7h0Z" transform="translate(-6.26 -4.9)"/><path d="M23.57,7L23.49,7,21.71,5.69a0.12,0.12,0,1,1,.15-0.2l1.78,1.27A0.12,0.12,0,0,1,23.57,7Z" transform="translate(-6.26 -4.9)"/><path d="M23.57,10a0.13,0.13,0,0,1-.12-0.12v-3a0.13,0.13,0,1,1,.25,0v3A0.13,0.13,0,0,1,23.57,10Z" transform="translate(-6.26 -4.9)"/><path d="M30.51,7.74h0L25.2,6.27A0.13,0.13,0,1,1,25.27,6L30.55,7.5A0.13,0.13,0,0,1,30.51,7.74Z" transform="translate(-6.26 -4.9)"/><path d="M25.53,7.85a0.13,0.13,0,0,1-.12-0.1L25.11,6.17A0.13,0.13,0,0,1,25.21,6a0.12,0.12,0,0,1,.15.1L25.65,7.7a0.13,0.13,0,0,1-.1.15h0Z" transform="translate(-6.26 -4.9)"/><path d="M27.48,8h0l-2-.16a0.12,0.12,0,0,1-.11-0.13,0.13,0.13,0,0,1,.13-0.11l2,0.16A0.12,0.12,0,0,1,27.48,8Z" transform="translate(-6.26 -4.9)"/><path d="M23.57,10a0.12,0.12,0,0,1-.09-0.21l2-2.13a0.13,0.13,0,1,1,.18.17l-2,2.13A0.13,0.13,0,0,1,23.57,10Z" transform="translate(-6.26 -4.9)"/><path d="M17.5,8a0.12,0.12,0,0,1-.12-0.09L16.86,6.18A0.12,0.12,0,0,1,16.94,6a0.12,0.12,0,0,1,.16.08l0.52,1.73a0.12,0.12,0,0,1-.08.16h0Z" transform="translate(-6.26 -4.9)"/><path d="M17.5,8a0.12,0.12,0,0,1,0-.25l1.88-.38a0.12,0.12,0,1,1,0,.25L17.52,8h0Z" transform="translate(-6.26 -4.9)"/><path d="M15.88,9.53a0.13,0.13,0,0,1-.09-0.22l1.61-1.53a0.13,0.13,0,0,1,.17.18L16,9.5A0.12,0.12,0,0,1,15.88,9.53Z" transform="translate(-6.26 -4.9)"/><path d="M15.88,9.53a0.12,0.12,0,0,1-.06-0.23l3.5-1.9a0.12,0.12,0,1,1,.12.22l-3.5,1.9Z" transform="translate(-6.26 -4.9)"/><path d="M23.57,10h0l-7.68-.45a0.13,0.13,0,0,1-.12-0.13,0.12,0.12,0,0,1,.13-0.12l7.68,0.45A0.13,0.13,0,0,1,23.57,10Z" transform="translate(-6.26 -4.9)"/><path d="M31.37,11.7H31.32a0.13,0.13,0,0,1-.06-0.17L32.12,9.8a0.13,0.13,0,0,1,.17-0.06,0.13,0.13,0,0,1,.06.17l-0.86,1.71A0.13,0.13,0,0,1,31.37,11.7Z" transform="translate(-6.26 -4.9)"/><path d="M32.79,13.06a0.12,0.12,0,0,1-.09,0l-1.42-1.36a0.12,0.12,0,0,1,0-.18,0.13,0.13,0,0,1,.18,0l1.42,1.36A0.13,0.13,0,0,1,32.79,13.06Z" transform="translate(-6.26 -4.9)"/><path d="M28.38,12.5a0.12,0.12,0,0,1,0-.25l3-.8a0.12,0.12,0,1,1,.07.24l-3,.8h0Z" transform="translate(-6.26 -4.9)"/><path d="M30.81,9.11A0.13,0.13,0,0,1,30.69,9l-0.3-1.37a0.12,0.12,0,0,1,.1-0.15,0.13,0.13,0,0,1,.15.1L30.93,9a0.12,0.12,0,0,1-.1.15h0Z" transform="translate(-6.26 -4.9)"/><path d="M29.47,10a0.13,0.13,0,0,1-.07-0.23l1.34-.87a0.13,0.13,0,0,1,.14.21L29.54,10Z" transform="translate(-6.26 -4.9)"/><path d="M32.23,10l-0.06,0L30.75,9.1a0.13,0.13,0,1,1,.13-0.21L32.3,9.75A0.13,0.13,0,0,1,32.23,10Z" transform="translate(-6.26 -4.9)"/><path d="M26.2,9.4a0.12,0.12,0,0,1-.08,0,0.12,0.12,0,0,1,0-.18l1-1.25a0.12,0.12,0,0,1,.19.16l-1,1.25A0.12,0.12,0,0,1,26.2,9.4Z" transform="translate(-6.26 -4.9)"/><path d="M26.92,10.54a0.13,0.13,0,0,1-.11-0.06L26.09,9.34a0.12,0.12,0,0,1,.21-0.13L27,10.35a0.12,0.12,0,0,1,0,.17Z" transform="translate(-6.26 -4.9)"/><path d="M23.57,10a0.12,0.12,0,0,1,0-.25l2.63-.58a0.12,0.12,0,0,1,.05.24L23.59,10h0Z" transform="translate(-6.26 -4.9)"/><path d="M37.11,14.29a0.13,0.13,0,0,1-.08,0L32.15,10a0.13,0.13,0,0,1,.17-0.19l4.87,4.31A0.13,0.13,0,0,1,37.11,14.29Z" transform="translate(-6.26 -4.9)"/><path d="M27.65,19.78a0.12,0.12,0,0,1-.06-0.23L37,14.06a0.12,0.12,0,0,1,.13.22l-9.45,5.49Z" transform="translate(-6.26 -4.9)"/><path d="M30.06,40.43a0.12,0.12,0,0,1,0-.25l25.86-6.93a0.12,0.12,0,1,1,.06.24L30.1,40.42h0Z" transform="translate(-6.26 -4.9)"/><text x="0" y="105.2" fill="#000000" font-size="5px" font-weight="bold" font-family="'Helvetica Neue', Helvetica, Arial-Unicode, Arial, Sans-serif">Created by MilaKrus</text><text x="0" y="110.2" fill="#000000" font-size="5px" font-weight="bold" font-family="'Helvetica Neue', Helvetica, Arial-Unicode, Arial, Sans-serif">from the Noun Project</text></svg>