<svg xmlns="http://www.w3.org/2000/svg" xmlns:xlink="http://www.w3.org/1999/xlink" version="1.1" x="0px" y="0px" viewBox="0 0 100 125" enable-background="new 0 0 100 100" xml:space="preserve"><g><g><g><g><path d="M42.8,46.9c-0.1,0.3-0.5,0.4-0.2,0.5c0.2-0.4,0.6,0.2,0.7,0.3c0.5-0.6,0.6-0.6,1.5-0.7      c-0.1-0.5,0.3-0.5,0.1-0.8c-0.2,0.2-0.4,0.3-0.6,0.4c0.5-0.4-0.7-1-0.2-0.5C44.5,46.8,43.7,47.5,42.8,46.9 M48.4,41.1      c0.3-0.4,0.7-0.1,0.8,0.1c-0.2,0-0.5,0-0.7,0.1c0.1,0.1,0.4,0.1,0.3,0.3c0,0.2-0.1,0.4,0,0.4c0.2-0.9,0.3,0.3,0.5-0.2      c-0.5-0.7,0.9,0.7,0.4,0c-0.3,0,0-1,0.3-0.7c0,0.3,0.1,0.4-0.2,0.5c0.5,0.3,1.1-0.6,0.3-0.3c0.1-0.2,0.2-0.5,0.4-0.5      c0.1,0.2,0.6,0.9,0.3,0.3C50.4,40.4,48.8,40.7,48.4,41.1 M52.1,39.4c0.3-0.5,0.3-0.3,0.4-0.9c-0.2-0.1-0.5-0.2-0.6,0      C51.9,38.7,51.5,39.1,52.1,39.4 M54.8,36.1c-0.8-0.1-0.6-0.7-1.1-0.9c0,0.4-0.8,0.4-0.3,0.7c0.5-0.3-0.1,0.3-0.3,0.3      c0.3,0.1,0.4,0.2,0.5,0.4C53.7,35.9,54.7,36.9,54.8,36.1 M54.3,36.9c-0.1,0.2-0.3,0.2-0.5,0.2c0.3-0.2,0.4-0.4,0-0.6      c-0.1,0.2-0.4,0.2-0.6,0.4c0.1,0.1,0.4,0.1,0.3,0.3c-0.1,0-0.2-0.1-0.3,0.1c0.4,0.3,1.5,0.4,1.1,0      C53.7,37.8,54.7,36.9,54.3,36.9 M50.1,42.7c-1.3,0-2.5,0.6-2.4,1.4c0.4-0.7,0.9,0.8,0.8,0.1c-0.7-1.1,0.1-1.1,1.3-0.6      C49.9,43,50.8,43.2,50.1,42.7 M61,28.4c0-0.2,1.1,0.5,0.7-0.1c-0.1,0.1-0.1,0.2-0.3,0.1c0.1-0.2,0.1-0.4,0.2-0.5      C61.3,27.5,60.7,28.4,61,28.4 M30.2,48.9c-0.4,0.3-0.8,0.4-1.4,0.3c0.2-0.2,0.4-0.2,0.5-0.7c-0.3,0.4-0.9,0-1,0.4      c0.1-0.4,0.5,0.2,0.5,0.4c-0.1,0-0.3,0.1-0.1,0.2c0.8-0.6,1.3,1.1,1.6,0.6c0-0.2-0.2-0.2-0.4-0.1c0.3-0.4-0.2-0.5-0.1-0.9      c0.1,0.2,1,0.8,1.3,0.5c-0.5-0.2,1.3-0.8,0.5-0.7C31.2,49.2,30.2,49.7,30.2,48.9 M30.1,48c0.1-0.2-0.1-0.3,0-0.4      c0.7-0.2,0.6,0.2,1.1-0.2c-0.8-0.5-1.8,0.6-1.7,1c0.9-0.7,1.5,0.2,2.2-0.2c-0.4-0.2,0.1-0.7-0.3-0.9c-0.1,0.3-0.2,0.6-0.1,0.8      C30.8,47.7,30.5,48,30.1,48 M33.1,46.9c0.3,0.3,0.2,0.8,0.4,1.2c0.6-0.9-0.2-1,0.5-1.7C33.7,46.7,33.4,46.7,33.1,46.9       M33.1,44.4c0.3,0,0.9,0.6,1,0.2c-0.2-0.2-0.3-0.4-0.4-0.6c0.2,0,0.4,0.1,0.4,0C33.6,43.8,33.3,43.9,33.1,44.4 M34.1,48.8      c-0.5-0.4-1.4-0.6-1.2-0.1c0.7-0.2,0.1,0.5,0.6,1.3C33.5,49.2,33.5,49.1,34.1,48.8 M34.3,44c0.7,0,0.3,0.5,0.6,0.7      c0.1-0.2,0.2-0.5,0.3-0.7C34.7,43.6,34.5,43.3,34.3,44 M41.4,40.9c-0.7-0.2-1,0.9-0.7,1.2c0.1-0.4,0.6-0.7,0.5-0.8      C40.5,41.4,41.1,41.1,41.4,40.9 M41.7,41.7c0.2-0.3,0.4,0,0.5,0.2c0.1-0.1,0.7-0.5,0.3-0.7c-0.1,0.2-0.2,0-0.4-0.1      C42.2,41.5,41.2,41.3,41.7,41.7 M43.1,40.7c0,0.1-0.1,0.2,0.1,0.3c0.2-0.4-0.2-0.6-0.3-0.9C42.4,40.3,42.6,41.4,43.1,40.7       M41.6,39.3c-0.3,0.8-0.3-0.1-0.5-0.2c0,0.4-0.3,0.9-0.1,1.2c0.3-0.6,0.2,0.8,0.5,0.2C40.7,40.2,42,39.6,41.6,39.3 M42,38.6      c-0.2-0.1-0.3-0.5,0-0.4c0.3,0.2,0.2,1.3,0.7,0.9c-0.2,0-0.4-0.8,0-0.6c0.2,0.3,0.1,0.7,0.5,0.2c-0.1-0.1-0.4-0.1-0.3-0.3      c-0.5-0.3-0.9,0.1-1.1-0.4C41.5,37.9,41.6,39.1,42,38.6 M44.2,38c0.6,0.1,0.4,0.4,0.8,0.5c0.2-0.4-0.2-0.6-0.3-0.9      C44.6,37.8,44.4,37.8,44.2,38 M46,34.9c0.3,0.1,0.4,0.2,0.5,0.4c-0.1-0.6-0.2-1-0.1-1.3c-0.3,0.3-0.5-0.4-0.8-0.1      C45.7,34.6,46.5,34.1,46,34.9 M47.4,34.2c0.2,0.2,0.3,0.4,0.1,0.7c-0.1,0-0.3,0.1-0.1,0.2c0.4-0.1,0.6-0.7,1-0.9      c-0.1,0.3,0.8,0.8,0.3,0.3c0.1-0.3-0.3-0.4-0.4-0.6C48,34.6,47.6,34.1,47.4,34.2 M46.7,33.3c0.2,0.1,0.4,0.4,0.2,0.1      c0.1-0.2,0.3-0.2,0.5-0.2c0.3,0.4,0,0.4,0.1,0.7c0.2-0.3,0.5,0.5,0.8-0.3c-0.6,0-0.6-0.2-1-0.6C47.1,33.1,46.8,33.1,46.7,33.3       M50.5,30.6c-0.6,0.2-0.1-0.6-0.8-0.1c0-0.1,0.1-0.2-0.1-0.3c-0.6,0.4,0,1.2-0.1,0.4C49.8,30.9,50.8,30.9,50.5,30.6 M50.9,31.8      c0.2-0.2,0.4-0.4,0.5-0.8c-0.9-0.2,0.3-0.3-0.2-0.5c-0.1,0.1-0.1,0.2-0.3,0.1c0-0.2,0.1-0.4,0-0.4C51,30.9,51,31.3,50.9,31.8       M57.4,24.3c-0.6,0.3,0.4,1.7,0.7,1.5c-0.2-0.4-0.3-0.8-0.6-1.1c0.4,0.3,0.8-0.8,0.3-0.3C57.6,24.6,57.5,24.4,57.4,24.3       M59.5,23.2c0.8-0.1,1.1,0.4,0.8-0.5c0.1,0,0.3-0.1,0.1-0.2c0,0.4-0.8-0.6-0.4,0C60.9,23.3,59.1,22.9,59.5,23.2 M61.6,23.6      c0.4-0.4,1,0,0.5-0.7c0.1,0,0.2,0.1,0.3-0.1c-0.3-0.1-0.4-0.2-0.5-0.4C61.6,22.7,61.5,23.9,61.6,23.6 M61,19.8      c-1.3,1.2,2,0.8,1.1,0C61.4,20.3,60.9,20.7,61,19.8 M62.2,17.3c-0.1,0.4-0.4,0.3-0.6,0.4c0.2,0.2,0.3,0.4,0.4,0.6      c-0.3-0.1-0.7-0.1-0.9,0.1c0.3,0.2-0.2,0.3,0,0.4c0.4-0.6,0.6-0.3,1,0.2c0.3-0.2,0.7-1.3,0.2-1.2c-0.1,0.2,0.2,0.4-0.1,0.4      C62.1,18,62.6,17.5,62.2,17.3 M67.6,15.9c0.7,0.2-0.4,1.4-0.8,1.4c0.1,0.1,0.4,0.1,0.3,0.3c0,0.2-0.1,0.4,0,0.4      c0.2-0.4,1.1-0.1,1.4,0.1c0.3-0.5-0.2-0.8-0.6-0.7c0.2-1.1,0.6-1.4,0.7-1.8c0,0.1,0.1,0.3,0.2,0.1      C68.5,15.4,68.1,15.8,67.6,15.9 M72.5,7.7C71.8,8,72.2,7,71.6,7.4C72,7.7,71,8,70.5,7.5c-0.2,0.4-0.2,0.7,0.1,0.9      c0.4-1,0.2-0.2,0.4,0.1c0.1-0.3,0.3-0.3,0.4,0c0.2-0.2,0.2-1,0.5-0.8c-0.1,0.4,0.3,0,0.3,0.3c-0.7-0.2-0.1,0.8-0.8,1      C72,8.9,72,9.3,72.2,9.1c-0.4-0.3-0.2-1.3,0.6-1c0.1-0.3,0.1-0.7-0.1-0.9c-0.1,0.1-0.1,0.2-0.3,0.1c0-0.2,0.1-0.4,0-0.4      C72.1,7.3,72.7,7.3,72.5,7.7 M68.2,10.8c0.5,0.6,1.6,0.6,1.5-0.5c-0.5,0.3-0.2-1-0.3-1.4c0.5,0.4,0.4-0.3,0.1-0.4      c-0.5,0.3,0,0.7-0.5,0.8c0.2-0.3-0.4-0.9-0.7-0.5C69.4,9.4,69.5,10.9,68.2,10.8 M68.3,11.5c-0.1-0.1-0.2-0.2,0-0.4      c-0.3-0.2-0.5,0-0.8-0.1c0-0.2,0.1-0.4,0-0.4C67.2,11.3,67.9,11.6,68.3,11.5 M35.3,45.7c0.2,1.1,0.1,1,0.2,1.6      c0.3-0.9,1.2,0.1,1.6,0.2c0.1-0.3,0.1-0.7-0.1-0.9c-0.1,0.3-0.3,0.4-0.6,0.4c-0.5-0.6-0.8-1-0.2-1.7c-0.7-0.5-0.4-0.5-0.6-1.1      c0.2,0.1,0.4-0.2,0.1-0.4c-0.1,0.2-0.2,0.4-0.5,0.2c-0.1,0.5,0,0.8-0.3,1.3c0.2,0.1,0.5,0.2,0.7,0.3c0.2-0.3-0.1-0.6,0.2-0.5      c-0.1,0.2,0.1,0.3,0,0.6C35.7,45.6,35.6,45.8,35.3,45.7 M55.2,28.9c-0.3,0.7-1.2,0.3-1.8,0.3C52.3,28.4,55.4,30.7,55.2,28.9       M61.2,21.6c0.7,0-0.1,0.6,0.6,0.7c0.2-0.3-0.1-0.5-0.1-0.7c0.2,0.1,0.3-0.1,0.6,0c-0.1,0.2-0.1,0.4-0.2,0.5      c0.7,0.2,0.4-0.4,1,0.2c-0.1-0.8,0.3-0.3,0.7-0.8C62.7,21.8,62.1,21.1,61.2,21.6 M63.5,18.9c0.3,0.1,0.6,0.2,0.9,0.4      c0.3-0.5,0.1-0.8-0.2-1.1c-0.5,0.1,0.1,0.7-0.5,0.7c0.4-0.4-0.5-0.9,0-0.4C63.7,18.5,63.6,18.7,63.5,18.9 M66.4,13.7      c0,0.3,0.5,0.5,0.3,0.9c-0.3-0.1-0.4-0.9-0.7-0.5c0.5,0.3-0.4,0.2-0.4,0.5c0.4,0.5,0.6,0.4,0.3-0.1c0.2,0.2,1,0.2,0.8,0.5      c-1.2,0.4,0.9,0-0.1,0.8c0.5,0.3,0.7-0.2,0.9-0.7c0.1,0.3,1.8,0.2,1.6-0.2c-0.1,0.1-0.1,0.2-0.3,0.1c0.5-0.3,0-0.2,0-0.6      c-0.6-0.2-0.9,0.2-1.4,0.3c0.1,0.1,0.4,0.1,0.3,0.3C66.9,14.6,67.1,13.8,66.4,13.7 M70.4,12.7c-0.4-0.1-0.7-0.3-0.8-0.5      c-0.1,0.1-0.1,0.4-0.3,0.3c-0.1,0.4,0,1.4,0.4,1c-0.4-0.4,0.4-0.1,0.4,0.1C70.1,13,70,13.2,70.4,12.7 M70.8,9.5      c0.3,0.5,0.6,0.1,1,0.6c-0.1-0.5,0.3-0.5,0.1-0.8C71.7,9.4,71.2,9.2,70.8,9.5 M28.3,56.4c-0.1,0.3-0.5,0.4-0.2,0.5      c0.5-0.4,0.7,0,0.9,0.4c0.1-0.2,0.1-0.4,0.2-0.5C28.9,56.6,28.6,56.5,28.3,56.4 M63.7,39.8c-0.3-0.5-1.6-0.9-1.2-0.1      c0.1-0.2,0.3-0.2,0.5-0.2c-0.2,0.5-0.3,0.9-0.1,1.2C63,40.1,63.4,40.1,63.7,39.8 M79.2,18.5c0-0.1,0.1-0.2-0.1-0.3      c-0.3,0.3,0.3,0.9,0.4,0.6c-0.4-0.4,0.7-0.3,0.8-0.5c0,0.1,0.1,0.3,0.2,0.1C80.2,17.8,79.7,18.6,79.2,18.5 M81,17.8      c0.5-0.3-0.1,0.3-0.3,0.3c0.5,0.2,0.8,0.2,0.9-0.3c-0.1-0.1-0.4-0.1-0.3-0.3c0.1,0,0.3-0.1,0.1-0.2C81.4,17.6,80.5,17.5,81,17.8       M79.9,19c0.1,0.1,0.2,0.2,0,0.4c-0.2-0.1-0.2-0.2-0.3-0.3c0.1,0.8-1.3-0.3-0.8,0.3c0.3,0.2,0.7,0.4,0.8,0.7      c-0.2,0-0.4-0.1-0.4,0c0.1,0.1,0.4,0.1,0.3,0.3c-0.1,0-0.3,0.1-0.1,0.2c0.5-0.2,0.3-0.6,0.4-1.1c0.4-0.3,0.4,0.4,0.6,0      c-0.2-0.1-0.2-0.3-0.2-0.5c0.6-0.3,1.6,0.6,0.6-0.4C80.5,19.3,80.1,18.9,79.9,19 M81.5,20.7c0.4,0,0.4,0.8,0.7,0.3      c-0.8-0.5,1.2-0.2,1.3-0.7c-0.2-0.1-0.5-0.2-0.5-0.4c0.3,0.1,0.1-0.3,0-0.4c-0.3,1.1-0.7,0.9-1.2,0.8c0-0.4,0.6-1,0.2-1.2      c-0.1,0.3-0.3,0.3-0.4,0C81.5,19.7,82.3,20.4,81.5,20.7 M83.6,20.7c0.7,0.2,0.7-0.3,0.7-0.8c-0.4-0.2-0.7-0.2-0.9,0.1      c0.3,0.2,0.6-0.1,0.5,0.2c-0.2,0.2-1.1,0.4-0.7,0.8c0.7-0.2-0.2,0.5,0.3,0.8c0.1-0.3,0.2-0.4,0.4-0.5      C83.7,21.2,83.6,21,83.6,20.7 M24.3,92.3c0.4,0.2,1.5,0.1,1.2-0.4c-0.4,0.1-0.7,0.4-1.1,0.2c0.4-0.5,0.4-0.6,0-1.1      C24.5,91.7,24.3,91.6,24.3,92.3 M25.3,91.4c0.1-0.3,0.2-0.4,0.4-0.5c-0.6-0.1,0-0.7-0.8-0.7C24.6,90.8,24.5,91.2,25.3,91.4       M26.6,90.2c0-0.3,0.7,0.3,0.7,0.5c-0.3,0.1-0.4,0.6-0.3,0.7c0.1-0.2,0.3-0.2,0.5-0.2c-0.4,0.3-0.2,0.5-0.7,0.8      c0.9,0.1,0.5-0.5,1-0.9c-0.2-0.4-0.5-0.8-0.8-1.2c0.1,0,0.3-0.1,0.1-0.2C27,90,26.1,89.9,26.6,90.2 M30.4,87.5      c-0.2,0.3-0.4,0-0.5-0.2c-0.1,0.1-0.1,0.4-0.3,0.3c-0.1-0.6,0.1,0.3-0.3,0.3c0,0.2,0.8,0.6,0.4,0.1c-0.1-0.1-0.2-0.1-0.1-0.3      C29.7,87.7,30.8,88,30.4,87.5 M31,86.9c1.3,0.9,0.7-1.7,0.8-0.9C31.8,86.7,31.2,86.3,31,86.9 M29.6,85.3c-0.1-0.5,0,0.1-0.1,0.4      c0.2,0.1,0.5,0.2,0.5,0.4c-0.7-0.2,0.4,0.8-0.1,0.2c0.1-0.2,0.2-0.2,0.3-0.3c-0.5-0.5,0-0.8,0.2-1.2      C29.6,84.4,30.4,85.6,29.6,85.3 M34.9,87.8c0.3-0.3-0.3-1.2,0.7-1.2c-0.2-0.5-0.7-0.1-0.8-0.5C34.5,86.8,34.9,88,34.9,87.8       M30.7,84c0.8-0.2,0.1,0.4-0.3,0.3c0.1,0.2,1.1,0.8,0.9,0.4c-1-0.2,0.7-0.5,0.1-0.8C31.4,84.1,30.3,83.4,30.7,84 M32.7,85.3      c0.1-0.2,0.2,0,0.4,0.1c0.4-0.6-0.3-0.4-0.5-0.4c0.2-0.4-0.1-0.7-0.3-0.9c-0.1,0.2-0.2,0.5-0.4,0.5c0.1-0.3-0.5-0.3-0.2-0.1      c0.2,0.1,0.2,0.2,0.3,0.3c0.1-0.2,0.3-0.2,0.5-0.2C32.4,84.9,32.5,85.1,32.7,85.3 M36.4,84c-0.3-0.3,0.1-0.9-0.4-1.2      c-0.1,0.2-0.9,0.1-0.4,0.5C36.4,82.6,35.7,84.6,36.4,84 M34.6,83.3c-0.3-1.1,1-0.2,1.5-1.1C35,81.5,33.7,83.3,34.6,83.3       M33.7,81.7c0.1,0.1,0.4,0.1,0.3,0.3c-0.4,0.3-0.4-0.4-0.6,0c0,0.4-0.3,0.8,0,1.7c-0.5-0.2-0.5,0.2-0.7-0.3      c-0.3,0.7,0.8,0.6,0.8,0.5c0-0.2,0.1-1,0-1.7c0.4,0,0.7-0.2,1.1-0.2c0,0.3-0.9,0.2-0.4,0.5c0.1-0.2,0.4-0.2,0.6-0.4      c-0.2-0.5-0.7,0-0.6-0.7c0.1,0,0.3-0.1,0.1-0.2C34.2,81.5,33.9,81.4,33.7,81.7 M32.2,80.7c0.3,0.2-0.2,0.3,0,0.4      c0.9-0.3-0.3,0.6,0.3,0.9c0.1-0.7,1.8-1,1.2-1C33.4,81.2,32.6,80.6,32.2,80.7 M36.3,80.4c0.1-0.1,0.1-0.2,0.3-0.1      c-0.3,0.7-0.6,0.4-0.8,0.5c0.4,0,0,1.1,0.4,0.6c-0.1-0.3,0-0.5,0.4-0.5c0.1,0.4-0.4,0.9,0,0.6C37,81.5,36.4,79.3,36.3,80.4       M34.4,79.4c0-0.2,0.1-0.4,0-0.4c-0.1,0.2-0.2,0.5-0.3,0.7c0.6,0.1,1.2,0.2,1.6-0.2C35.4,78.9,34.9,79.4,34.4,79.4 M44.8,82.4      c0-0.2,0.1-0.4,0-0.4c-0.1,0.2-0.4,0.2-0.6,0.4c0.2,0.5,0.4,0,0.7,0.5c0.1-0.4,0.4-0.3,0.6-0.4C45.2,82.4,45,82.4,44.8,82.4       M43.7,82.4c0.2,0.2,0.3,0.5,0.3,0.8c0.4,0.2,0.7-0.1,1.1,0c0,0.2,0,0.5,0.1,0.7c0.4-1-0.8-1.2-1.1-0.9      C44.1,82.8,44,82,43.7,82.4 M29.4,76.2c0.1,0.1,0.2,0.2,0,0.4c-0.2,0-0.6,0.1-0.3,0.3c0.4-0.3,0.7-0.2,0.9-0.3      c-0.5-0.4,0.6,0,0.6-0.4C29.9,76.3,29.8,76.1,29.4,76.2 M37.3,78.4c-0.6,0.2,1.3,0.4,0.4-0.5c-0.2,0.6-1-0.7-0.6,0      C37,78.2,37.3,78.2,37.3,78.4 M38.8,79c-0.4-0.1-0.3-0.4-0.7-0.5c-0.7,0.1,0.1,1.5-0.9,1.1c0.4,0,0.3-1,0-0.6      c0.2,0.7-0.7,0.4-0.8,0.5c0.2,0.5,0.5,0.2,0.8,0.1c-0.2,0.7,0.9,0,0.7,0.5c-0.1,0.2-1,0.2-0.6,0.4c0.7,0,1.2-1,0.6-1      c0.1-0.3,0.3-0.4,0.6-0.4c0,0.2-0.1,0.4,0,0.4c0.2-0.7,0.9-0.4,1.2-0.8c-0.5-0.1,0.4-0.8-0.3-0.8c-0.2,0.4,0.2,0.5-0.2,1      C38.7,78.8,38.7,78.4,38.8,79 M30.4,74.7c-0.1,0.3,0.3,0.1,0.4,0c-0.4-0.1-0.5-1.2-0.4-0.6C29.8,74.4,29.4,75.1,30.4,74.7       M39.7,75.6c0.1,0.4,0.6,0.6,0.7,0.9c-0.2-0.1-0.2,0.2,0.1,0.3c0.5-0.7-1.1-0.9,0-1.1c-0.6,0.2-0.8-0.7-1.3-0.3      C39.4,75.6,39.4,75.7,39.7,75.6 M38.3,75.5c0.2,0.1,0,0.4,0.2,0.5c0.1-0.1,0.1-0.4,0.3-0.3c0,0.1-0.1,0.2,0.1,0.3      c0.2-0.7,0.1-1.2,0.1-1.4C38.5,74.8,39,75.5,38.3,75.5 M47,77.8c0,0.4,0.4,0.6-0.1,0.8c0.4-0.1,1.4-0.4,1.2-0.8      C47.6,78.6,47.1,77.8,47,77.8 M47.6,77.9c0.2,0,0.8-0.4,0.4-0.5c-0.4,0.5-0.1-0.5-0.4-0.6c-0.2,0.3-0.3-0.2-0.4,0      C47.8,77.1,47.4,78.2,47.6,77.9 M41.8,73.5c-0.1,0.1-0.1,0.2-0.3,0.1c0-0.1,0.1-0.2-0.1-0.3c-0.5,0.6-0.5,0.4-1.2,0.8      c0.3,0.2-0.2,0.3,0,0.4c0-0.4,0.8,0.6,0.4,0c-0.2-0.1-0.2-0.3-0.2-0.5c0.7,0.3,1-0.3,1.3-0.1c-0.1-0.1-0.2-0.1-0.1-0.3      C41.8,73.7,42,73.6,41.8,73.5 M39.3,71.9c0.1,0.1,0.2,0.1,0.1,0.3c-0.3-0.2-0.6,0.1-0.3,0.3c0.2-0.3,0.3,0.1,0.3,0.3      c-0.2-0.1-0.7-0.2-0.4,0c0.6,0.1,1.2,0.2,1.6-0.2C39.1,73,40.3,71.8,39.3,71.9 M40.5,71.3c0.8,0.2,0.8,0.8,1.3,0.3      c-0.3-0.2-1.2-0.2-1-0.6c0.2,0,0.4,0.1,0.4,0c-0.3-0.1-0.6-0.3-0.8-0.1C40.6,71,40.7,71.1,40.5,71.3 M45.1,72      c-0.4,0.5,0.1-0.5-0.5-0.4c-0.6,0.6-0.1,0.6,0.1,0.9c-0.2,0-0.4,0.1-0.5,0.2C44.6,73,45.3,72.2,45.1,72 M23.6,64.2      c0.5-0.1,0.2,0.1,0.5-0.2c0.2,0.6,0.3,1.3,1,1.7c-0.1-0.8,1.2-0.2,0.7-0.8c-0.2,0.1-0.8-0.1-1-0.6c0.2,0,0.4,0.1,0.4,0      c-1-0.4-0.2,0.6-0.7,0.6c-0.7-0.3,0.3-0.9,0-1.1C24.3,63.9,23.2,63.7,23.6,64.2 M51.7,74.4c0.4-0.2,1-0.7,0.2-1      C51.8,74.1,51.6,74.2,51.7,74.4 M45,71.2c0.2,0.2,0.3,0.4,0.4,0.6c-0.1,0-0.2-0.1-0.3,0.1c0.3,0.2,0.5,0,0.6-0.4      c-0.1-0.1-0.4-0.1-0.3-0.3c0.1-0.2,0.4-0.2,0.1-0.4C45.5,71,45.2,71,45,71.2 M54.5,74.3c-0.4-0.1,0-0.6-0.6-0.7      c0.1,0.5-0.8,0.7-0.4,0.9c0.2-0.3,0.2,0.1,0.5,0.2C54.2,74.5,54.4,74.4,54.5,74.3 M42.2,69.7c-0.6,0.1,0.5-0.1,0.2,0.5      c-0.1,0-0.2-0.1-0.3,0.1c0.2,0.1,0.5,0.2,0.6,0c0-0.4-0.6-1.2-0.6-1.1C42.1,69.4,42.3,69.5,42.2,69.7 M30.5,64.2      c0-0.1-0.1-0.3-0.2-0.1c0.3,0.1-0.1,0.5,0.1,0.7c0.2-0.3,0.3,0.2,0.4,0c-0.4-0.2,0.4-0.4,0.6-0.4c-0.1,0.2-0.1,0.4,0,0.6      c-0.2-0.1-0.5-0.1-0.3,0.1c0.3,0,1.4-0.1,1-0.4C31.8,64.6,31.4,64,30.5,64.2 M47.1,71.2c-0.4-0.4,1-0.8,0.3-0.7      c-0.1,0.2-0.3,0.2-0.5,0.2c0.1-0.3,0.3-0.6,0.1-0.8c-0.2,0.5-0.7,0.3-1,0.4c-0.3,0.5,0.4,0.7-0.2,1c0.3,0.1,0.4,0.5,0.5,0.2      c-0.2-0.1-0.1-0.4,0.1-0.4c0,0.1,0.1,0.3,0.2,0.1c-0.2-0.2-0.3-0.4-0.4-0.6C47,70.1,46.8,71.5,47.1,71.2 M54.2,71.8      c0.2,0.1,0.3-0.1,0.6,0c0.4-0.4,0-1.2-0.3-0.8C55.2,71.6,53.7,71.6,54.2,71.8 M54.7,70.1c0.2,0.1,0,0.4,0.2,0.5      c0.1-0.2,0.2-0.5,0.4-0.5c-0.1,0.2-0.2,0.5,0,0.6c0.6-0.5-0.2,0.9,0.3,0.3c0.4-0.6-0.1-0.5-0.3-1.4c0.1,0,0.3-0.1,0.1-0.2      C54.5,69.7,55.5,70,54.7,70.1 M46.7,66.8c-0.1-0.1-0.2-0.2,0-0.4c0.1,0,0.3-0.1,0.1-0.2c-0.3,0.4-0.6-1-1-0.2      c0.2,0.1,0.2,0.4,0.4,0.6C46.7,65.5,46.1,67.5,46.7,66.8 M33.9,61.3c0.4-0.2,0.4,1.9-0.4,2.1c0.4,0.2,0.6-0.2,0.9-0.3      c-0.3-1.6,0.1-1.3,0.4-2c0.3,0.2,0.6-0.1,0.3-0.3C34.8,61.4,33.5,61.1,33.9,61.3 M31.5,62.7c0.6-0.4,0.7-0.2,1.3-0.1      c-0.2-0.1-0.2-0.3-0.2-0.5c0.1,0,0.3-0.1,0.1-0.2C32.1,62.2,31.7,62.1,31.5,62.7 M33.3,61.9c-0.2-0.1,0-0.2,0.1-0.4      c-0.2-0.1-0.4-0.2-0.2-0.5c-0.5-0.5-1.2,0.1-1.3-0.5c0.3,0.1,0.5,0,0.7-0.1c-0.9,0.1-0.2-0.4-0.5-0.8c-0.4,0.3-0.1,0.6-0.6,1      c0.3,0.3,0.6,0.8,1,0.6c-0.3,0.1-0.5,0.6-0.1,0.8c0.2-0.2,0.4-0.3,0.7-0.1C33.1,61.9,33.2,62.1,33.3,61.9 M33.2,60.6      c0.2,0.3,1,0.6,0.8,0.1c-0.1,0.1-0.1,0.2-0.3,0.1c0.2-0.7,0.8-0.4,1.2-0.8C34.2,59.8,33.8,60.5,33.2,60.6 M49.6,66      c-0.3-0.3,0.8-0.4,0.2-1c-0.5,1.2,0-0.7-0.8,0.3c0-0.1,0.1-0.2-0.1-0.3c-0.2,0.4,0.2,0.6,0.3,0.9c0.1-0.1,0.1-0.2,0.3-0.1      C49.4,66,49.5,66.2,49.6,66 M50.3,65.7c0.1-0.2,0.5-0.3,0.4,0c-0.8,0.6-1,0.8-1.7,1c0.8-0.1,0.7,0.1,1,0.2      c-0.5-0.5,1.1-0.5,0.4-0.5c-0.1-0.1-0.4-0.1-0.3-0.3c0.2,0.1,0.3-0.1,0.6,0c-0.1-0.5,0.7-0.5,0.3-0.7      C51.1,65.4,50,65.2,50.3,65.7 M43.6,62.6c-0.5,0.7,0.8,1.2,0.9,0.4C44.1,62.6,44,62.6,43.6,62.6 M42.7,66.5      c-0.3,0.7-0.7,0.3-1.1,0c-0.4,0.4-0.1,0.6-0.5,0.7c-0.2-1-0.3-0.1-0.8-0.1c-0.3-0.4,0.4-0.4,0-0.6c-0.1,0.2-0.3,0.2-0.5,0.2      c-0.3-0.7-0.2-0.6-0.1-0.9c-0.5,0.5-1.2-1-0.9-0.4c-0.3,0.5,0.6,0.4,0.5,0.8c-0.7,0.6-0.9,0.4-0.3,0.7c-0.2,0.7-1-0.5-0.7,0.1      c0.1,0.4,0.5,0.9,0,1.1c0.6,0.3,0.3,0.3,0.3,0.8c0.1-0.2,0.5-0.3,0.4,0c-0.5,0.1-1.4,0.4-1.5-0.4c0.2,0.1,0.5-0.8,0.1-0.4      c-0.2,0.2-0.6,1-0.7,1.2c0.6-0.1,1.3-0.4,1.5,0.4c0.5-0.1-0.1-0.5,0.4-0.5c-0.1,0.2,0.2,0.4,0.4,0.1c-0.3-0.2,0.1-0.3,0.3-0.3      c-0.3,0.3-0.4,1.1-1.3,0.7c-0.1,0.1-0.1,0.4-0.3,0.3c-0.1,0.3,0.1,1.3-0.5,1.3c-0.3-0.3,0.4-0.7,0-0.4c-0.5,0,0.3,0.8-0.1,1.2      c-0.3-0.3-0.5-0.4-0.7-0.3c0.4,0.8-0.8,0.7-1.2,0.8c0.1,0.7,0.8-0.3,0.7,0.3c-0.2-0.1-0.8,0.3-0.4,0.5c1,0.4,3.4-0.7,2.7-2.1      c-0.1,0.2-0.6,0-0.5-0.2c-0.1-0.7,2.1,0.2,1.9-0.1c-0.4-0.2,0.3-0.8-0.3-0.9c-0.2,0.3,0.1,0.6-0.2,0.5c0.2-0.6-1,0.2-0.8-0.5      c0.7,0.5,1.1-0.6,1.4,0.1c0.2-0.3-0.1-0.5-0.1-0.7c0.6,0.2,0.4,1,0.9,0.4c-0.8-0.2,0.2-0.5,0.3-0.7c-0.4-0.3-0.2-0.7-0.3-1.4      c0.8,0.6,0.8-0.7,1.5-0.5c-0.9,0.6,0.6,0.5,0.9,1c0.1-0.3,0.5-0.4,0.2-0.5c-0.2,0.4-0.8-0.3-0.8-0.5c0.4-0.3,0.4,0.4,0.6,0      C42.8,67.1,43,66.7,42.7,66.5 M44.1,64.5c-0.1,0.3-0.9,0.4-0.5,0.7c0.2-0.2,0.5,0.3,1,0.2c-0.1,0.2-0.2,0.5-0.4,0.5      c-0.1-0.9-0.8-0.4-1.2-0.1c-0.2-0.5,0.3-0.3,0.1-0.8c-1,0,0-0.2-0.8-0.7c0.3,1.1-0.9,0-0.7,0.8c0.4-0.1,0.9,0.2,1.2,0.7      c-0.2-0.1-0.3,0.1-0.4,0c-0.1-0.7-0.4-0.4-1-0.6c-0.1,0.3-0.3,0.6-0.1,0.8c0.5-1.4,0.2,1,0.9,0.4c-0.9-0.4,0.5-0.1,0.6-0.4      c0.2,0.1,0.3,0.6,0.5,0.4c0.1-0.2-0.1-0.3,0-0.4c0.6,0.1,1,0.1,1.1,0.4c-0.5,0.1-1,0-1.3,0.6c0.5,0.4,0.4,0.3,1,0.2      c0.1,0.6-0.4,1.4,0.2,1.7c0.8-0.2,0.9-0.7,1.7,0c0.6-0.7,1-0.5,1.2,0.2c0.2-0.2,0.2-1,0.5-0.8c0,0.1,0.1,0.3,0.2,0.1      c-0.5-0.7-0.8,0.2-1.2-0.7c-0.6,0.2-0.3,0.4-0.8,1c-0.4-0.6-0.7-0.6-1.3-0.5c0.6-0.5,0-0.2-0.4-0.1c0.4-0.8-0.1-1.3-0.7-0.9      c0.1-0.2,0.1-0.4,0.2-0.5c0.3,0,0.9,0.6,1,0.2c-0.6-0.7,1-0.8,0.5-1.3c0.1-0.4-1.5-0.8-0.4-1.6c-0.5-0.4-0.6,0.3-0.9,0.3      c0.3-0.8-1-0.1-0.5-0.8c-0.8-0.3-1.4,0.1-1.7,0c0.2,0-0.3,0.9,0.2,0.5c-0.1-0.1-0.2-0.1-0.1-0.3c1.8-0.4,0.2,1.1,2.1,0.6      C43.7,64.7,42.8,64.4,44.1,64.5 M46.1,63.2c-0.2-0.7-0.6-0.5-1.2-0.2c0.5,0.5-0.3,0.6-0.4,1.1c0.5,0.2,0.5,0.5,0.8,0.7      c0.5-0.6,0-1.5,0.6-1.6C45.8,63.2,46,63.4,46.1,63.2 M46.3,63.1c0-0.2,0.9,0.3,0.5-0.2c-0.1,0.1-0.1,0.2-0.3,0.1      c0.1-0.5,1.1-0.6,0.7-1.2C47.2,62.6,46,62.5,46.3,63.1 M45.8,61.8c0.1,0,0.3-0.1,0.1-0.2c-0.3,0.2-0.4,0.4-0.3,0.7      c-0.2,0-0.6,0.1-0.3,0.3c0.4-0.1,1.8-1.1,1.4-0.9C46.3,61.5,45.8,62.5,45.8,61.8 M51.2,64.6c0.1-0.3,0-0.4-0.3-0.3      c0.6-0.3,0-1,0.2-0.5c-0.4,0.4-0.8-0.5-0.4-1c-0.4-0.2-0.6,0.2-0.9,0.3C50.6,63,50.2,64.1,51.2,64.6 M43.8,62      c0.7,0,1.1-0.4,1.3-1.2c-0.7-0.3-0.9,0.4-1.5,0.5c0.3,0.7,0.8-0.2,1.2-0.4C44.7,61.9,44,61.3,43.8,62 M45.5,60.8      c-0.1,0-0.3,0.1-0.1,0.2c0.2-0.4,0.4,0.4,0.7,0.5c0.1-0.2,0.2-0.5,0-0.6c-0.2,0.3-0.2-0.2-0.3-0.3c-0.1,0.1-0.1,0.2-0.3,0.1      c0-0.1-0.1-0.3-0.2-0.1C45.5,60.6,45.6,60.7,45.5,60.8 M58.4,65.5c0.1,0.1,0.2,0.2,0,0.4c0.5,0.2,0.7-0.1,0.9,0.4      c0.2-0.5-0.3-0.7-0.4-1C58.8,65.5,58.5,65.3,58.4,65.5 M50.5,62c0.3,0.2-0.2,0.3,0,0.4c0.1-0.1,0.1-0.2,0.3-0.1      c-0.1,0.3,0.8,0.8,0.3,0.3c-0.8-0.5,0.9-0.9,0.3-0.7C51,62.1,50.9,61.4,50.5,62 M45.8,59.5c-0.3,0-0.5,0.1-0.8-0.1      c-0.2,0.4-0.4,0.9,0,1.1c0.1-0.3,0.2-0.6,0.1-0.8c0.6,0,0.8,0,1.1,0c-0.6-0.3,0.2-0.5-0.1-0.7c0,0.3-0.9-0.6-0.5,0.2      C45.7,58.9,45.9,59.3,45.8,59.5 M60.5,64.4c0.1-0.2-0.2-0.3-0.5-0.4c0.3,0.8-1,0.7-0.7,1.2c0.2-0.3,0.3,0.2,0.4,0      c-0.5-1,1,0.4,0.5-0.2c-0.2-0.1-0.1-0.5-0.1-0.7C60.5,64.4,60.8,64.9,60.5,64.4 M43.9,59.1c0.5-0.5-0.5-1.1,0.2-1.2      c0.1,0.4-0.1,0.8,0.2,1.1c0.1-0.4,0.6,0,0.7-0.6c-0.4-0.1-0.3-0.4-0.4-0.6c-0.6,0.3-0.7-0.6-1.1-0.4      C43.9,57.8,43.6,59.2,43.9,59.1 M37.5,55c1.4,0.9-1.1-1.2-1.5-0.4c0.1,0.1,0.4,0.1,0.3,0.3c-0.1,0-0.3,0.1-0.1,0.2      c0.3-0.5,0.3,0.3,0.7,0.3C37.1,55.2,37.3,55,37.5,55 M52.9,61.4c0.7-0.4-0.4-0.5-0.5-0.4c0.1,0.1,0.2,0.2,0,0.4      c0.2,0.1,0.5,0.2,0.7,0.3c0.1-0.1,0.1-0.4,0.3-0.3c0.2,0,0.4,0.1,0.4,0c-0.1-0.1-0.4-0.1-0.3-0.3c0.1-0.2,0.2-0.2,0.3-0.3      c-0.2-0.1-0.4-0.1-0.5-0.2c-0.2,0.3,0,0.5-0.1,0.8C53.1,61.3,53,61.4,52.9,61.4 M51.9,61.7c0.2-0.4,0.3-1.1,0.5-1.3      c-0.5-0.1-0.1,0.2-0.8,0.3c0.1-0.3,0.1-0.7-0.1-0.9C51.3,61.2,51.8,60.9,51.9,61.7 M47.6,57.7c-0.1,0.4-0.6,0-0.8,0.3      c0.6-0.1,0.1,1,0.7,0.5c-0.2-0.1-0.2-0.3-0.2-0.5c0.2,0.1,0.3-0.1,0.4,0c0.3,0.1,0.7,1,1,0.6c-1.1-0.5,1.1-0.2,0.5-0.7      C48.6,58,48.1,58.3,47.6,57.7 M38.2,54.2c0.9,0.1,0.8,0.4,1.3,0.9c0.1-0.6,0.4-0.4,0.5-0.8c-0.1-0.1-0.4-0.1-0.3-0.3      c-0.5-0.4-0.5,0.4-1.1,0c0.6-0.3,0-1,0.2-0.5C38.7,53.6,38.5,54,38.2,54.2 M48.3,56c-0.6-0.5-0.8,0.3-0.7,0.6      c-0.9-0.5-0.2,0.4-0.9,0.3c0.1-0.2,0.2-0.5,0-0.6c-0.1,0.3-0.5-0.1-0.7,0.1c0.6,0.1,0.2,0.6,0.8,0.7c0.5-0.1,0.9-0.3,1.3-0.6      c-0.2-0.1-0.2-0.3-0.2-0.5c1.2,0.6-0.1-1.2,0.6-1.6c-0.3-0.3-0.7-0.2-1.2-0.2c0.6,0.5-0.1,0.5-0.5,0.7c0.3,0.2-0.2,0.3,0,0.4      c0.2-0.2,0.4-0.3,0.6-0.4c0.1,0.3,0.3,0.6,0.5,0.8c0.1-0.1,0.1-0.4,0.3-0.3C48.2,55.7,48.2,55.8,48.3,56 M45.9,53.9      c0,0.3-0.6,0.9-0.2,1c0.3-0.4,0.7-0.4,1-0.9C46.4,53.8,46.3,54,45.9,53.9 M46.9,53.6c-0.7-0.3-0.6,0-1.1-0.4      c-0.1,0.2-0.1,0.4,0,0.6c-0.2,0-0.4-0.1-0.4,0C45.9,53.9,46.4,53.7,46.9,53.6 M55.3,56.7c0.2,0.1,0.3-0.1,0.4,0      c0.1,1.1-1.4,0.1-1,0.9c0.3-0.6,0.7,0.6,0.8,0.1c-0.1-0.1-0.2-0.2,0-0.4c0.2,0.5,0.4,0,0.7,0.5c-0.7-0.7,0.2-0.5-0.1-1.3      C56,56.7,54.9,56.3,55.3,56.7 M53.7,57.7c-0.2-0.1-0.3,0.1-0.4,0c-0.1,0.3-0.1,0.7,0.1,0.9c-0.1-0.8,0.3-0.4,0.6-1      c-0.5-0.2-0.5-1.3-1-0.6C53.1,57.6,53.5,57.3,53.7,57.7 M46.5,60.4c0.1,0.3,0.6,0.1,0.1,0.9c0.5,0,1,0,1.3-0.6      C47.1,61.2,46.5,59.9,46.5,60.4 M49,56.3c0.4,0.6,1.2,0.1,0.9,1c-0.2-0.5-0.4,0-0.7-0.5c-0.2,0.5,0.1,0.7-0.5,0.7      c0-0.4,0.4-1.4-0.1-1.3c0.1,0.4,0.2,0.8-0.4,0.9c0.2-0.3,0-0.5-0.2-0.1c0.5,0.3,0.4,0.3,0.9,0.8c0.1-0.5,0.5-0.5,0.9-0.3      c-0.2,0.1-0.5,0.9-0.2,0.5c0.2,0,0.2-0.2,0.1-0.4c0.4,0.1,0.7,0.3,0.8,0.5c0.2-0.8-1-1-0.4-1.6c-0.4,0.7,0.6,0.5,0.7,0.3      c0.3,0.6-0.3,0.7,0.4,1.2c0.3-0.7-0.6-0.9-0.2-1.6c1,0.4-0.1-0.9,0.5-0.7c0.2,0.9,0.4,0.1,1.1,0.4c-0.4,1.7-2.4,2.2-2.3,3.3      c0.2-0.5,0.4-0.7,0.7-0.8c0,0.7-0.3,0.5-0.3,1.3c-0.5,0-0.5-0.2-1.1,0c0.3-0.8-0.2-0.5-0.6-1.1c-0.2,0.3-0.7-0.1-0.8,0.3      c0.1,0.7,0.9,0.2,0.9,1c-0.4-0.5-1.1,0.3-0.6,0c0.5,0.5,1-0.4,1,0.2c-0.4,0-0.7,0.6-0.9,0.1c-0.4,0.7-0.3,1-0.7,1.2      c-0.4-0.2-0.1-1.1-0.7-0.5c0.5,0.2,0.5,0.6,0.7,0.9c-0.3,0.3-0.3,1-0.9,0.7c0.2,0.1,0,0.4,0.2,0.5c0.3-0.5,0.3,0.3,0.7,0.3      c0.2-0.8,0.4,0.4,0.8-0.3c-0.5-0.5-1,0.4-1-0.2c0.4-0.2,0.8-0.4,0.4-0.9c0.4-0.1,1.3-1,0.5-0.8c0.2,0.1,0.1,0.3-0.3,0.1      c0.1-0.3,0.3-0.4,0.6-0.4c0.4,0.6,0.2,0.5,0.5,0.2c0.6,0.3-0.2,0.5,0.1,0.7c0.1-0.2,0.4-0.2,0.6-0.4c-0.6-0.1,0-0.8-0.7-0.5      c0.3-0.6,0-0.9,0.6-1c0,0.1,0.6,0.7,1,0.2c-1-0.7,1.2-1.1,0.5-1.9c0.2,0.1,0.5,0.2,0.7,0.3c0.5-0.6-0.4-0.9-0.1-0.3      c-0.3-0.1-0.7-0.2-0.7-0.5c0.4,0.3,1.2-0.4,0.9-0.7c-0.1,0.1-0.1,0.4-0.3,0.3c0-0.6,0.5-0.5,0.7-1.2c-0.8-0.4-0.2-0.9,0.2-1.2      c-0.1-0.7-0.9,0.4-0.9-0.4c0.2,0,0.4,0.1,0.4,0c-0.1-0.1-0.2-0.1-0.1-0.3c-0.1,0-0.2-0.1-0.4-0.1c-0.5,0.7,0.4,0.8,0,1.5      c-0.4-0.6-0.3-0.1-0.6,0c-0.1-0.6-0.8-0.7-1-0.6c0.2,0.1,0,0.4,0.2,0.5c0.1-0.1,0.1-0.4,0.3-0.3c-0.1,0.5-0.5,0.2-0.7,0.6      c0.3,0.2,0.6-0.1,0.5,0.2c-0.7,0.6-0.7-1.1-1-0.6C50.4,56.2,49.5,55.9,49,56.3 M45.1,51.8c1.1,0,0.1,0.2-0.1,0.8      c0.3,0,0.2,0.9,0.5,0.4c-0.8-0.5,1-1,0.6-1.5C45.9,52.1,45.1,51,45.1,51.8 M56.8,55.8c-0.4,0.5,0.4,0.5,0,1.1      c-0.1,0-0.3,0.1-0.1,0.2c1-0.7,0.1-0.2,0.2-1.2c0.1,0.1,0.5,0.7,0.7,0.3c-0.6-0.5,0.5,0.2,0.5-0.2c-0.2-0.5-0.6,0-0.8-0.5      C57.2,55.7,57,55.8,56.8,55.8 M66,58.6c-0.2,0.3-0.4,0-0.5-0.2c0.1,0.8-0.6,0.9-0.7,0.1c-0.4,0.5,0.1,0.7,0.3,0.9      C65.1,58.8,66.3,59.1,66,58.6 M41.8,49.9c-0.3-0.1-0.6-0.3-0.7-0.5c0.3,0.7-0.3,0.7-0.2,1.2c0.3-0.7,0.5,0.4,0.9-0.1      C41.4,50.3,41.5,50.1,41.8,49.9 M41.7,50.3c0.5,0.1,0.2,0.5,0.6,0.7c0.2-0.6,1.8,0.4,1.1-0.6c-0.3,0.5-0.7-0.1-1.3,0.1      c0.2-0.1,0.8-1,0.5-1.3c-0.1,0.1-0.1,0.4-0.3,0.3c0-0.1-0.1-0.3-0.2-0.1C42.6,49.8,42,50.1,41.7,50.3 M51.5,52.5      c-0.1,0.1-0.1,0.2-0.3,0.1c-0.4-0.1,0-0.6-0.3-0.8c-0.1,0.4-0.4,0.3-0.6,0.4c0.4,0.5,0.8,0.1,0.8,0.7c-0.5,1.3-0.1,1.2-0.8,2      c0-0.1-0.1-0.3-0.2-0.1c0.1,0.1,0.2,0.1,0.1,0.3c-0.2-0.7-0.8-0.4-1.1-0.4c0.2,0.1,0.1,0.4,0,0.6c0.2,0.3,1.1,0.5,0.8,0.1      c-0.4,0.4-0.8-0.5-0.2-0.5c-0.3,0.7,0.9,0.2,0.9,0.4c-0.4-0.2,0.5-0.4,0.1-0.8c0.7,0.3,0.7,1,1.2,0.7c-0.3,0.1,1-1.5,0-1.1      c0.2,0.1,0.1,0.4-0.1,0.4c-0.4-0.7,0.4-0.9-0.7-0.5c-0.1-0.6,0.7-0.4,0.1-0.8c0.1-0.4,0.6,0,0.8-0.3c-0.2-0.1,0-0.2,0.1-0.4      c-0.6-0.1-0.5-0.5-0.8-0.7C51.2,52.1,51.5,52.2,51.5,52.5 M56.7,55.4c-0.3-0.6-0.8-0.7-0.5-1.5c-1.3-0.1,0.1,0.2-1.2,1      C56.1,55,56.8,55.3,56.7,55.4 M53.6,55.8c0.3,0.4,0.7,0.5,0.9,0.4c0.1-0.4,0.1-0.3,0.4-0.9c0.4,0.2-0.1,0.7,0.3,0.9      c0.1-0.1,0.1-0.2,0.3-0.1c0-0.2,0.1-0.4,0-0.4c-0.1,0.1-0.1,0.2-0.3,0.1c0.1-0.2,0.1-0.4,0.2-0.5c-0.2-0.1-0.4-0.1-0.5-0.2      c0.1-0.2,0.1-0.4,0-0.6c0.8,0.1,0.6-0.8,1-1.1c-0.5,0.6,0.2-0.5-0.2-0.5c-0.2,0.3-0.3-0.2-0.4,0C55.2,54.1,54.2,55.2,53.6,55.8       M53.3,52.8c0,0.6-0.2,0.6-0.6,1c0.6,0.8,1,0.6,1.6,0.6c-0.1-0.1-0.2-0.2,0-0.4c-0.5-0.3-0.7,0.3-1.1,0.2c1-0.3,0.1-1,0.8-1.6      c-0.4-0.1-0.3-0.4-0.4-0.6C53.2,52.4,54.2,53.1,53.3,52.8 M66,57.5c0.3-0.1,0.8,0.1,0.8-0.5c-0.2-0.1-0.4-0.1-0.5-0.2      c-0.1,0.2-0.1,0.4,0,0.6C66,57.3,65.7,57.3,66,57.5 M57.5,50.6c0.1-0.2-0.3-0.3-0.2-0.5c0.1,0,0.3-0.1,0.1-0.2      c-0.2,0.3-0.3-0.2-0.4,0c0.1,0.3,0.2,0.5,0.3,0.8c-0.2-0.1-0.5-0.2-0.6,0c0.4,0.3-0.7,1.3,0,1.5c0.5-0.2,0.5-0.7,0.7-0.8      c0,0.4,0.8,1,0.5,0.2c0.2,0.1,0.2,0.4,0.4,0.6c0.1-0.4,0.6-0.5,0.5-0.8c-0.2,0.5-1.3,0.1-1.1-0.4c0.6-0.3,0.2,0.4,0.8,0.5      c0-0.5,0.9-1.3,0.4-0.9C58.5,50.9,58.4,50.6,57.5,50.6 M58.6,50c0.7,0,0.8-0.3,0.7,0.3c0.2-0.3,0.7,0.1,0.8-0.3      C59.5,49.9,59.2,49.4,58.6,50 M62.1,50.7c-0.2-0.1,0-0.2,0.1-0.4c-0.8-0.1-0.9-0.1-1.4-0.1c0.2,0.5,0.6,0.1,1.1,0.4      C61.9,50.8,62,50.9,62.1,50.7 M56.5,49.4c0.3-0.6,0.7,0.6,0.8,0.1c-0.2-0.1,0-0.4-0.2-0.5c-0.3,0.5,0.3-1-0.4-0.6      C57,48.7,56.2,49.2,56.5,49.4 M56.2,47.6c-0.3-0.2-0.7,0.9-0.4,0.9c0.6-0.5,0.6-0.2,1.1-0.6c-0.2-0.1-0.7-0.9-0.8-0.5      C56.2,47.4,56.3,47.4,56.2,47.6 M58.1,47.1c-0.1,0.2-0.2,0.5-0.4,0.5c-0.2,0-0.4-0.1-0.4,0c0.8,0.2,0,0.8,0.3,0.9      c0.2-0.2,0.4-0.3,0.6-0.4c-0.1,0.2,0.1,0.3,0,0.4c-0.3-0.1-0.4,0.3-0.6,0.4c0.3,0.3,0.7,0.6,0.6,1.1c-0.4,1.1,0.8-0.8,0.4-0.9      c-0.1,0.7-0.7-0.1-0.7-0.3c0.4,0,0.6-0.4,0.8-0.9C57.9,47.5,58.5,47.7,58.1,47.1 M62.1,48.2c-0.6-0.4-0.6,0.7-1.1,0.6      c-0.5-0.7-0.6,0,0.1,0.3c0.3-0.1,0.3-0.6,0.8-0.3c-0.3,0.1-0.5,0.6-0.1,0.8C62.2,49.3,61.8,48.7,62.1,48.2 M56.4,46      c0.5,0.4,0.8,0.3,1.1,1c0.1-0.1,0.1-0.4,0.3-0.3c-0.2,0.7,0.8-0.4,0.2,0.1c-0.2-0.2-0.2-0.3-0.5-0.2c-0.1-0.5,0.3-0.5,0.1-0.8      c-0.6,0.5-0.2,0.1-0.4-0.1c0.1,0.4-1-0.7-0.6,0C57.3,45.9,56.5,45.7,56.4,46 M60.6,47.6c-0.5-0.3,0.1-1-0.6-1.3      c-0.5,0.6-0.5,0.5-0.8,0.9c0.7,0.6,0.4-1,1-0.4c-0.1,0.8-0.6,0.7-1,0.9c0.1,0.1,0.2,0.1,0.1,0.3c0,0.1-0.1,0.2,0.1,0.3      C59.7,47.6,60.3,47.9,60.6,47.6 M57.9,45.9c0.9,0.2-0.3,0.3,0.2,0.5c0.1-0.2,0.3-0.2,0.5-0.2c0.4,0.4-0.5,0.4-0.1,0.8      c0.3-0.4,1-0.1,1.3-0.6c-0.4-0.3-0.5,0.2-0.9,0.1c0.1-0.2-0.1-0.3,0-0.4c0.2,0.1,0.2,0.2,0.3,0.3c-0.1-0.6,0.9,0,0.4-0.5      c-0.9,0.2,0.1-0.4-0.2-0.5c-0.1,0.2-0.5,0.1-0.7,0.1c0.1-0.2-0.1-0.3,0-0.4c0.2,0.3,0.4,0.4,0.6,0c-0.3-0.2-0.7-0.7-1.2-0.2      c0.7,0.5-0.1,0.3-0.1,0.4C58.3,45.6,58.2,45.8,57.9,45.9 M56.2,44c-0.1,0.3-0.1,0.7,0.1,0.9c0.1-0.3,0.2-0.6,0.6-0.4      c-0.1,0.2-0.5,0.3-0.2,0.5c0.1-0.3,0.3-0.3,0.4,0c0.6-0.5-0.2-1.4,0.1-0.8C56.9,44.9,56.8,43.9,56.2,44 M65,48.1      c0.3,0,0.9,0.6,1,0.2c0.1,0,0.2-1.5,0.1-0.8C66.1,48.4,65.3,47.7,65,48.1 M57.1,45.4c0.5-0.1,0.5,0.3,0.8,0.1      c-0.2-0.4-0.2-1.4,0.6-1c0.1-0.3,0.1-0.7-0.1-0.9c-0.1,0.5-0.5,0.5-0.8,0.5c0.2-0.3-0.1-0.6-0.3-0.3c0.2,0.5,0.5,0.4,0.6,0.7      C57.1,44.3,57.7,45.2,57.1,45.4 M60.8,46c0.5,0.4,0.6-0.1,1,0.2c-0.1,0.2-0.1,0.5,0.1,0.3c0.1-0.2-0.1-0.3,0-0.4      c0.2,0.1,0.7,0.2,0.4,0c-0.8-0.1-0.6-0.1-0.7-0.5c-0.3,0.1-0.5,0.2-0.8,0.3c0.2-0.5,0.3-0.9,0.6-1c-0.3-0.2-0.5-0.5-0.9-0.4      c0.1,0.1,0.4,0.1,0.3,0.3c-0.1,0-0.3,0.1-0.1,0.2c0.1-0.2,0.5-0.3,0.4,0C60.6,45,60.8,45.5,60.8,46 M63.3,46.6      c0.4,0.3,0.6,0.6,0.6,1.1c0.1-0.1,0.1-0.4,0.3-0.3c0.2,0.1,0.2,0.2,0.3,0.3c0.2-0.4-0.1-0.7-0.3-0.9c-0.1,0.1-0.1,0.4-0.3,0.3      c0.6-0.8-0.4-1.7-1-1.7c0.3-0.1,0.7,0.1,0.9-0.3c-0.5-0.2-0.8,0.2-1.2,0.4c0.1,0.5,0.7-0.1,0.7,0.5c-0.3-0.1-0.5,0-0.7,0.1      c0.3,0.1,0.4,0.2,0.5,0.4c0.1-0.2,1-0.4,0.9-0.1C63.7,47.1,63.5,46.2,63.3,46.6 M61.4,44c-0.1,0-0.2-0.1-0.3,0.1      c0.1,0,0.2,0.1,0.4,0.1c0.1,0,0.2,0.1,0.3-0.1c-0.5-0.2,0-0.8-0.4-1c-0.1,0.3-0.2,0.4-0.4,0.5C61.2,43.7,61.5,43.7,61.4,44       M59.7,43.5c0-0.2,0.1-0.4,0-0.4c-0.2,0.3,0.2,1-0.4,0.9c-0.5-0.1,0.6-1-0.3-0.9c0,0.6-0.4,0.6-0.2,1.2c0.2,0.1,0.4,0.1,0.5,0.2      c0.2-0.2,0.9-0.9,0.6-1C59.9,43.5,59.9,43.6,59.7,43.5 M60.8,42.2c-0.4,0.1-0.7-0.9-1.5-0.4c0-0.1-0.2,0.4-0.5,0.8      c0-0.1-0.1-0.3-0.2-0.1c0,0.2,0.3,1.3,0.1,0.7C59.3,41.8,60.7,43.6,60.8,42.2 M65.2,44.4c0.6-0.5-0.4,0.9,0.1,0.9      c0.7-0.3,0-1.4,0.9-1.1c-0.1,0.2-0.4,0.3,0,0.4c0.4-0.5-0.6-1.1-0.7-0.9C66.1,43.9,64.7,44.2,65.2,44.4 M66.7,44.4      c-0.6-0.2-0.3,1.2,0,0.6c-0.1-0.1-0.2-0.2,0-0.4c0.2,0.1,0.2,0.2,0.3,0.3c0.3-0.7-0.8-1.6-1.1-1.5      C66.1,43.8,66.7,43.9,66.7,44.4 M56.6,40.2c0.4,0.2,0.9,0.4,1.1,0c-1.1-0.2-0.4,0-0.6-0.7c0,0.4-0.8-0.6-0.4,0      C56.8,39.7,56.7,39.9,56.6,40.2 M63.9,42.6c-0.1,0.5,0.1,0.1,0.4,0.6c-0.2,0.2-0.7-0.2-0.9,0.1c0.3,0.1,0.7,1,1,0.6      c-0.3-0.2,0.1-0.2,0.2,0.1c0.1-0.2,0.2-0.5,0.3-0.7c-0.4-0.1-0.7-0.3-0.6-0.7c0.4,0.4,0.9-0.5,0.4,0      C64.4,42.4,64.1,42.4,63.9,42.6 M65,42.8c0.2,0.1,0.5,0.2,0.5,0.4c-0.3-0.1-0.3,0.5-0.1,0.2c0.4-0.1,0.4-1-0.1-0.7      C66,42.1,65.2,42.1,65,42.8 M59.1,38.2c-0.4,0.1-1.6,0.3-1.5,0.5c0.4-0.2,0.8,0.4,0.7,0.9c-0.3-0.3-0.5-0.9-0.9-0.4      c0.2,0.1,0.1,0.4,0,0.6c0.5,0.1,0.8,0.4,0.5,0.8c-0.7-0.2-0.8,1.3-0.7,0.8c0.2-0.2,0.4-0.3,0.7-0.1c-0.6,1.2,0.2,1.4-0.6,1.6      c0.3,0.2,0.5,0,0.8,0.1c0-0.7-0.3-0.8,0.3-0.7c-0.2-0.1,0-0.2,0.1-0.4c-0.3-0.2-0.6,0.1-0.5-0.2c0.4-0.7,0-2.2,1.1-2.9      c-0.4-0.4-0.9,0.5-0.8-0.1C58.5,38.5,58.9,38.5,59.1,38.2 M68.6,42.4c0.2,0.4,0.9,0.5,1.2,0.2c0.1-0.4-1-1.3-0.7-0.5      C69.7,42,68.8,42.4,68.6,42.4 M68.5,38.3c0.4-0.4,0.4-0.8-0.2-1.1c-0.1,0.1-0.1,0.4-0.3,0.3c0.4-0.4-0.5-0.9,0-0.4      C67.8,37.6,68,38,68.5,38.3 M65.9,36.3c1,0.5,0,1.3,0,1.7c0.3,0,0.5-0.1,0.8,0.1c-0.4,1.1,0.6,0.6,0.7,1.3      c-0.4-1.3-1-0.9-0.6-2.8c-0.1-0.5-0.7,0.1-0.7-0.5c0.3,0.1,0.3-0.5,0.1-0.2C66.2,36.1,66,36.1,65.9,36.3 M67.3,33.2      c-0.4-0.4-0.5,1-0.1,0.4c0.3-0.7,0.3,0.2,0.7-0.1c0,0.2-0.1,0.4,0,0.4c0.6-0.9-0.5-0.9-0.7-0.9C67.3,33,67.4,33.1,67.3,33.2       M64,32.6c-0.6,0.9,0.2-0.5-0.5-0.4c0.1,0.8-0.6,1-0.5,1.3c0.1-0.1,0.1-0.2,0.3-0.1c0.4,0.3,0.6,1.4,1.1,0.4      c-0.3-0.2-1.2-0.2-0.8-0.7C63.9,33.7,64.1,32.8,64,32.6 M66.1,32.1c0.1,0.1,0.2,0.1,0.1,0.3c-0.6-0.4-0.7,0.1-1.1,0.2      c1,0.7-0.5,0.9-0.3,1.8c-0.3-0.7-0.5,0.3-0.9,0.3c0.1-0.3-0.4-1-0.6-0.7c0,0.4,0.4,0.5,0.5,0.8c-0.1,0-0.3,0.1-0.1,0.2      c1-0.5,0.8,0,1.5-0.7c-0.4,0.4,0.5,0.9,0,0.4c0.2-0.3,0.4-0.8,0.8-0.5c-0.1,0.2-0.2,0.2-0.3,0.3c0.3,0.3,1.1,0.1,0.7-0.1      c-0.2,0.3-0.6-1-1.2-0.2c0-0.5,0.4-0.7,0.6-1c-0.5,0.4,0.7,1,0.2,0.5C65.7,33.4,66.9,32,66.1,32.1 M69.5,33.7      c-0.2-0.1-0.5-0.2-0.6,0c0.4,0.1,0,0.6,0.3,0.8c0.1-0.3,0.2-0.7,0.5-0.7c-0.5,0.9,0.4,0.2,0.3,0.9c-0.5-0.1-1.2-0.4-1.3,0.6      c-0.7,0.2-2.2-0.6-1.6,0.4c0.3-0.8,0.8,0.2,0.9,0.4c0.4-1.1,1.6-0.4,2.2-1.2c-0.1-0.8,0.2-1,0.2-1.2c-0.3-0.1-0.4,0.2-0.7,0.1      c0-0.3,0.3-1.1-0.3-0.9C69.7,33.2,69,33.2,69.5,33.7 M75.3,34.9c0.1,0.1,0.7,0.8,0.9,0.4c-0.3-0.9,0.6,0.3,0.8-0.3      c-0.1-0.1-0.4-0.1-0.3-0.3c0.1,0,0.3-0.1,0.1-0.2c-0.1,0.1-0.1,0.2-0.3,0.1c0-0.1-0.1-0.3-0.2-0.1C76.7,35,75.5,34.6,75.3,34.9       M69.3,30.9c-0.3-0.1-0.6-0.3-0.8-0.1c0.4,0.1,0.3,0.4,0.7,0.5c0-0.5,1.1-0.3,0.9-0.1c-0.7,0-0.4,0.8-0.3,1.3      c0.4-0.9,0.2,0.7,0.5,0.8c0.4-1-0.5-1.5,0.2-2.2c-0.3,0.6,1,0.5,0.5,0.2c-0.5,0.1-0.8-0.8-1-1.2c-0.1,0.3-0.5,0.4-0.2,0.5      c0-0.1,0.2-0.1,0.2,0.1c-0.9,0.5-0.5-1.3-0.6-0.7C68.9,30.3,69.2,30.5,69.3,30.9 M70.3,29.5c0,0.2-0.1,0.4,0,0.4      c0.1-0.2,0.1-0.4,0.2-0.5c-0.8,0.1-0.7-1-1-0.6C69.7,29.2,69.7,29.8,70.3,29.5 M70.7,30.1c1.6-1,1.4,0.7,1.8,0.7      c-0.4,0.5-0.1,0.5-0.5,0.8c0.8,0.2,0.2-0.6,0.9-0.7c-0.4-0.3-0.5-0.8-0.6-1.3c0.4,0,0.9,0.7,0.5,0.2c-0.2-0.5-1.4-0.5-1.6-0.8      c0.1,0,0.3-0.1,0.1-0.2C71.1,29.1,70.4,30,70.7,30.1 M74.4,27.6c0.3,0.8-1,0.7-0.7,1.2c0.2-0.3,0.3,0.2,0.4,0      c-0.5-1,1,0.4,0.5-0.2c0-0.1,0.4-1,0.2-0.5C74.6,28.5,74.7,27.6,74.4,27.6 M75.7,26.9c0.7-0.3,0,0.4,0.7,0.5      c0.4,0,0.6-0.4,1-0.4C76.6,27.4,75.9,26.3,75.7,26.9 M74.9,24.6c-0.1,1.1,0,0.6,0.5,1.5c-0.2,0.2-0.4,0.3-0.6,0.4      c0-0.5-0.8,0.4-0.9-0.4c-0.1,0.3-0.2,0.7-0.5,0.7c0-0.2,0.1-0.4,0-0.4c-0.2,0.7,0.1,1.1,0,1.7c-0.3-0.1-0.6-0.3-0.7-0.5      c-0.1,0.3-0.2,0.4-0.4,0.5c0.8,0.5-0.3,0.2-0.3,0.3c0.8,0.8,0.8-0.5,1.7-0.2c-0.1-0.6-0.4-1.4,0.4-1.5c-0.3,0.3,0.3,0.9,0.4,0.6      c-0.2-0.1-0.2-0.3-0.2-0.5c0.8,0.9,1.9-0.9,1.6-0.4c-0.8-0.1,0.2-1-0.1-1.3C75.4,24.8,75.1,25.1,74.9,24.6 M76.3,23.3      c-0.4,0.3-0.3,0.3,0.1,0.3c-0.2,0.5-0.4,0.2-0.3,0.7c-0.3,0-0.9-0.6-1-0.2c0.5,0,0.4,1.1,1.1,0.9c-0.8-0.2,0.4-0.6-0.5-0.4      c0.3-0.7,1.2-0.2,1-0.4c-0.2-0.1,0-0.2,0.1-0.4c-0.4-0.1-0.5-1.1-0.8-0.7C76.3,23.1,76.4,23.1,76.3,23.3 M72.5,23.3      c-0.4,0.1-0.5,1-0.9,1.1c0.8-0.4,0.6-0.3,1.3-0.1c-0.4-0.3-0.2-0.7,0.1-0.2c0.1-0.7,0.5-0.5,0.9-0.3      C74.2,22.3,73,24.2,72.5,23.3 M66.6,30.8c-0.6,0.5-0.8-0.4-1.2-0.2c0.8,0.8-0.9,0.6-1.1,1.2c0.9,0.2,0.1,0.4,0.4,0.6      c0.1-0.4,0.6,0,0.8-0.3c-0.3-0.2-0.6,0.1-0.5-0.2C65.3,31.2,66.7,31.2,66.6,30.8 M65.7,36.4c-0.3-0.1,0.6-1-0.1-1.3      c-0.2,0.5-0.3,1.3-0.9,1.1c0.1-0.2,0.5-0.3,0.2-0.5c-0.2,0.3-0.3-0.2-0.4,0c0.4,0.4-0.5,0.4-0.1,0.8c0.6,0.5,0.7-0.4,1.1-0.2      C65.5,36.4,65.6,36.6,65.7,36.4 M64,37.4c-0.3-0.6,0.9-0.4,0.2-1c-0.8,0.2-0.6-0.8-1.4-0.1c0.2-0.8,0.3-0.6,0.2-1.2      c0.2,0.1,0.7,0.2,0.4,0c-0.3-0.1-0.5,0-0.7,0.1c0.3,0.2-0.1,0.3-0.4,0c-0.1,0.6-0.6,1.7-0.3,1.3c0.5-0.3,0.7,0,1.4-0.3      c0,0.4-1.1,0.9-0.3,0.7c-0.5,0-1.5,1.3-0.7,1.2c-0.1-0.1-0.2-0.1-0.1-0.3c0.5-0.7,0.7,0.3,0.9-0.7c0.1,0,0.9-0.2,0.7,0.3      c-0.4,0-1.2,0.7-1,0.9c0.2-0.3,0.3,0.1,0.3,0.3c-0.4-0.4-0.9,0.5-0.4,0c0.5,0.6,0.5,0.1,1.2,0.2c-0.1,0.2-0.5,0.3-0.2,0.5      c0.1-0.4,0.4-0.3,0.5-0.7c-0.7-0.3-0.1-1.2-0.1-1.3c-0.1,0.6-0.6-0.1,0.6-0.4C64.4,37,64.2,37.3,64,37.4 M66.7,39.7      c-1.6,1.7-0.4,1.5,1.2,1.1c-0.5-0.5,0.6-0.3,0.5-0.8c-0.3-0.1-0.4,0-0.3,0.3c-0.8-0.5-1.4-0.2-1.6-1.3c-0.1,0.2-0.1,0.4,0,0.6      c-0.2-0.1-0.4-0.1-0.5-0.2c0.1-0.2,0.2-0.5,0-0.6c-0.2,0.3-0.2-0.1-0.5-0.2c0.1,1,0.3,0.5,0.6,1.3c-0.5-0.2-0.5,0.2-0.7-0.3      c-0.7,0.4-0.4,1-1.2,1c0.1-0.3,0.8-0.9,0.3-1.3c-0.8,0.6-0.2,1.3-0.7,1.8c0.4,0.1,0.3,0.4,0.4,0.6c0.4-0.3-0.2-0.9,0.3-0.7      c0.3,0.1,0,0.5,0.4,0.6c0-0.5,1-0.3,0.5-0.8c-0.1,0.2-0.5,0.1-0.7,0.1c0.3-0.2,0.4-0.4,0.3-0.7C65.7,40.4,65.4,40.1,66.7,39.7       M59.6,39.5c-0.1,1,0.9,0.8,1.4,1.4c0.5-0.6-0.4-0.5,0-1.1c0.1,0,0.3-0.1,0.1-0.2C60.3,39.6,60.1,40.4,59.6,39.5 M62.8,40.9      c0.8,0.3,1.1-0.4,0.5-0.8c-0.2,0.3,0.1,0.5,0.1,0.7c-0.6-0.4-0.7,0.5-1.3,0.1c0.7-0.8-0.6-1.3,0.3-1.8c-0.1-0.5-1.1-1.2-0.4-1.6      c-0.6,0-0.8,0.3-1.1,0.2c0.2,0.9,0.1,0.2,0.8,0.7c-0.2,0.5-0.3-0.6-0.5,0.2c0.3,0.4,0.9-0.2,0.7,0.3c-0.6,0,0.1,0.6-0.5,0.7      c0.5,0.2,0.7,0.4,0.8,0.7c-0.3,0.6-0.5-0.2-0.7,0.1c0.5,0.4-0.2,0.5,0.3,0.9c-1,0.2-0.9-0.9-1.6-0.6c0.2,0.1,0,0.2-0.1,0.4      c0.2,0.5,1,0.5,1.3,0.3c-0.2,0.7-0.1,0.7,0,1.5c0.8-0.5,1.9-0.2,2.1-1.1C63.3,42.1,62.9,41.2,62.8,40.9 M54.9,44.5      c0.5,0.2,0.5-0.2,0.7,0.3c0.1-0.3,0.1-0.7-0.1-0.9c-0.1,0.3-0.5-0.1-0.7,0.1C55,44.2,55,44.3,54.9,44.5 M55.3,49.9      c-0.6-0.4,1.1-0.3,0.5-0.8c-0.2,0.4-0.4-0.4-0.7-0.5c-0.1,0.1-0.1,0.4-0.3,0.3C54.6,49.3,55,50.2,55.3,49.9 M54.3,49.2      c0.4,0.2-0.4,0.4-0.6,0.4c0.2-0.4,0.7-0.6,0.2-1c0,0.8-0.3,0.6-0.4,0c-0.1,0.6-1.1,0.6-0.8,0.9c0.7-0.3-0.7,0.2-0.1,0.4      c0.1-0.5,0.8,0.5,0.9-0.1c-0.2-0.1-0.2-0.3-0.2-0.5c0.9-0.2-0.2,0.2,0.4,0.6c0.2-0.2,0.5-0.3,0.8-0.3c-0.2,0.3-0.7,0.1-0.5,0.7      C53.5,50,53.2,50,53,50.3c0.2,0.1,0,0.4,0.2,0.5c0.6-0.6,0.5,0,1.4-0.3c-0.2-0.1-0.1-0.4,0.1-0.4c0,0.1,0.1,0.3,0.2,0.1      C54.3,50.2,54.9,48.8,54.3,49.2 M54.4,51.7c0.5,0.1,0.2,0.5,0.6,0.7c0-0.1,0.1-0.2,0.1-0.4c0.1,0,0.2,0.1,0.3-0.1      c-0.3-0.2-0.6,0.1-0.5-0.2c0.4-0.4,0.9,0,1.1,0.4c-0.4,0.8,0.2,0.6,0.3-0.1C55.7,51.3,55,51.1,54.4,51.7 M52,50.1      c0,0.3,0.5,0.5,0.3,0.9c-0.2-0.2-0.4-0.5-0.6-0.7c-0.5,0.4-1.3,1.2-0.9,1.1c0.3,0.1,0.3-0.4,0.2-0.5c0.6,0.1,1,0.1,0.3,0.3      c0.6,0.2,1-0.2,1.5-0.5c-0.2,0.7-0.6,0.7-1,0.9c0.5,0.1,0.7-0.1,0.4,0.6c0.7,0.4,0.9-0.5,0.5-0.8c0.3,0.1,0.6,0.2,0.9,0.4      c0.4-0.3-0.2-0.9,0.3-0.7c0.2,0.1,0,0.4,0.2,0.5c0.1-0.2,0.4-0.2,0.6-0.4c-0.7-0.3-0.4-0.4-1.1-0.4c-0.2,0.3,0,0.5-0.1,0.8      C52.4,51.2,52.8,50.2,52,50.1 M48.5,48.5c0.6,0.1,0.7,0.5,0.7,0.9c-0.6,0.2-1.1,0.4-1.8,0.3c0.5,0.4-0.1,0.4,0.1,0.9      c-0.2-0.2-0.2-0.3-0.5-0.2c0-0.2,0.1-0.4,0-0.4c0,0.1-0.1,0.2-0.1,0.4c0.6,0.3,0.5,0.9,0.4,1.2c1.2-0.4,0.2-0.3,0.8-1.6      c0.5,0.4,0.6-0.3,0.9-0.3c0.1,0.3,0.5,1.8,0.4,1.2c-0.3-0.9,0.9-0.3,0.5-0.8c-0.4,0.4,0.1-0.6-0.5-0.2c0.5-0.2,0.1-0.7,0-1.1      c0.7,0.4,0.4,0.8,1.3,0.5c-0.1,0.3-0.3,0.6-0.1,0.8c0.3-0.6,0.9-0.5,0.4-1.1c1.1,0.4,0.3,1-0.2,1.2c0.3,0.2,0.5,0,0.8,0.1      c0,0.2-0.1,0.4,0,0.4c0.8-1-0.5-1.7-0.6-2.1c0,0,1.2-1.1,0.1-0.4c-0.5,0.2-0.8,0.1-1.1,0.6c0-0.2-0.2-0.2-0.4-0.1      c0.1-0.3,0.2-0.4,0.4-0.5C49,48.8,49.2,48.3,48.5,48.5 M44.2,53.6c0.3,0.2-0.1,0.7,0.3,0.8c-0.1-0.6,0.9-0.3,0.5-0.7      C44.8,54.2,44.5,53,44.2,53.6 M41.7,57.7c0.4,0,0.7-0.3,0.9-0.7c-0.8,0-0.3-0.2-0.6-0.7C41.4,57,42.3,57.4,41.7,57.7 M40.1,55.8      c0.1,0.3,0.2,0.5,0.3,0.8c-0.1,0-0.3,0.1-0.1,0.2c0.3-0.6,1.1,0.7,1.2,0.2c-0.4-0.3,0.3-0.2,0-0.6c-0.3-0.2-0.5,0-0.8-0.1      c0.7-0.5-0.7-1.3-0.3-0.8C40.9,56.4,40.5,55.7,40.1,55.8 M41,55.7c0.3,0.2,0.5,0,0.8,0.1c0.2-0.4-0.1-0.7-0.3-0.9      C41.3,55.2,40.8,55.2,41,55.7 M40.5,53.8c0.3,0.2,0.5-0.1,0.7-0.1c-0.1,0.2,0.3,0.3,0.2,0.5c-0.1,0.8-0.7,0.3-0.8,1      c1.1-0.7,1.5,0.2,2.5-0.1c-0.6,0.1-0.3-0.9-0.7-0.5c0.2,0.1,0.3,0.5,0,0.4c-0.5-0.5-0.9-1-1.3-1.6c0.1,0,0.3-0.1,0.1-0.2      C41.1,53.6,40.7,53.5,40.5,53.8 M43.6,52.9c0.2,0.3-0.2,0.3,0.1,0.7c-0.3,0.1-0.9-0.3-1-0.6c0.6-0.3,0-0.5-0.1-0.9      c0.1,0,0.2,0.1,0.3-0.1c-0.7-0.6-0.4,1-1,0.4c0.3-0.1,0.5-0.6,0.6-1c-0.3-0.1-0.4-0.5-0.5-0.2c-0.4,0.1-1.1,0-0.2,0.5      c-0.6,0.2-0.6,0.2-0.9-0.4c-0.2,0.9-0.3,0.7-0.1,1.4c-0.2-0.1-0.5-0.1-0.3,0.1c1,0.2-0.3-1.1,0.9-0.7c-0.9,1,0.7-0.1,1.2,0.7      c-0.1,0.3-1.3-0.2-0.8,0.3c0.7-0.4-0.4,0.4,0,0.4c0-0.2,0.8-0.4,0.6,0c-0.7-0.5-0.5,1.2,0,0.6c-0.2-0.1-0.3-0.5,0-0.4      c0.7,0.9,1.6,0.9,2.2,1.3c-0.5,0.2-0.8,0.6-1.2,0.4c0.2,0.2-0.5,0.8-0.2,1c1.1-0.2,1.1-1.1,1.7-0.2c-0.2,0-0.2,0.2-0.1,0.4      c-1-0.3,0.2,0.4,0.5-0.2c0.1-0.2-0.4-1.3-0.5-0.8c-0.1-0.7,1-0.5,0.5-0.8c-0.3,0.6-0.2-0.8-0.5-0.2c0.2,0.1,0.1,0.4-0.1,0.4      c-0.4-0.5-0.9-0.8-1.1-0.9c0.2,0.1,0.1,0.4-0.1,0.4c-0.2-0.1-0.1-0.5-0.1-0.7c0.4,0,0.6-0.4,0.8,0.1      C44.1,53.6,44,52.5,43.6,52.9 M39.3,50c0.7,0.9-0.7,0.4-0.5,0.7c0.1,0.1,0.8,0.5,1.7,0c-0.4-0.4-0.9,0.5-0.8-0.1      c0.6,0.1-0.5-0.4,0.1-0.8c0.3,0.1,0.7,0.6,0.4,0.1C40.2,49.3,39.4,49.8,39.3,50 M31.7,57.3c0.2,0.1,0.1,0.4,0,0.6      c0.6,0.3,0.1,0.7,0.7,0.3c-0.4,0.4,0.5,1.2,0.1,0.7c-0.1-0.5,0.1-1.4-0.5-0.8c-0.1-0.5,0.3-0.5,0.1-0.8      c-0.1,0.1-0.1,0.2-0.3,0.1C32,57.3,31.9,57.1,31.7,57.3 M20,69.1c0.2-0.4,0.6-0.4,0.1-0.8c-0.4-0.1-0.4,0.3-1.2,0.8      c0.4,0.3,0,0.9,0.9,1c0.5-0.6-0.5-0.6-0.4-1c0.2-0.1,0.8-0.9,0.8-0.3C19.9,68.6,19.7,68.9,20,69.1 M19.6,71      c-0.2-0.1-0.2-0.3-0.5-0.4c-0.1,0.4,0.1,0.9-0.4,1.1C19.2,72,19.3,71.3,19.6,71 M22.3,68.5c-0.2,0.4-0.2,0.7,0.1,0.9      c0.1-0.7,1.5,0,1.1-0.6C23,69,23,68.6,22.3,68.5 M36.2,59.9c-0.2-0.1-0.2-0.4-0.4-0.6c-0.3,0.1-0.5,0.6-0.6,1      c0.3,0.3,0.7,1.2,0.7,0.5c-0.1,0.1-0.1,0.2-0.3,0.1C36.5,60.3,35.4,60.9,36.2,59.9 M36.8,60.6c-0.4-0.1-1.2,0.8-1,1.1      C36.4,61.2,36.4,61.2,36.8,60.6 M35.8,58.3c-0.2,0.4,0.1,0.7,0.3,0.9c0.2-0.3,0.3,0.2,0.4,0c-0.6-0.2-0.5-0.8-0.6-1.3      C35.6,58.2,35,58.4,35.8,58.3 M42.1,59.9c-0.6,0.9,0.1-0.4-0.2-0.5c-0.2,0.2-0.9,0.9-0.6,1c0.3-0.6,0.7,0.6,0.8,0.1      C41.5,60.4,42.7,60.2,42.1,59.9 M35.4,76.2c-0.5,0.4-0.3,0.6-0.1,1.2c-0.6-0.5-1.2,0.3-0.4,0c0.1,0.8-1.3-0.3-0.8,0.3      c0.1,0.1,0.4,0.1,0.3,0.3c0,0.2-0.1,0.4,0,0.4c0.2-0.9,0.3,0.3,0.5-0.2c-0.5-0.7,0.9,0.7,0.4,0c-0.7-0.7,1-0.7,0.4-1.1      C35.3,77.6,35.4,76.3,35.4,76.2 M27.9,87.4c0.1-1,1.8,0.6,1.1-0.6c-0.3,0.5-0.7-0.1-1.3,0.1c0.2-0.1,0.8-1,0.5-1.3      c-0.1,0.2-0.2,0-0.4-0.1c0.1,0.6,0.2,1-0.5,1.3C27.9,86.8,27.5,87.2,27.9,87.4 M29.1,90.2c-0.4-0.2-1-1-1.5-0.4      c0.6,0.1,1.2,0.2,0.6,0.7c0.4,0.1,0.3,0.4,0.4,0.6c0.7-0.1-0.1-1,0.4-0.9C28.9,90.2,29,90.4,29.1,90.2 M69.2,56.7      c-0.6-0.1,0-0.7-0.5-0.8c-0.4,1.5-0.9,0.5-1.6,1.3c0.4,0,0.4,0.8,0.7,0.3C67.1,56.9,69,57.3,69.2,56.7 M68.5,55.4      c0.3-0.2,0.6-0.2,0.8-0.5c-0.3-0.1-0.6-0.2-0.8-0.1c0-0.2,0.1-0.4,0-0.4C67.9,54.6,68.4,55,68.5,55.4 M62.8,59.7      c0.3-0.3,0.8-0.1,1.1-0.2c-0.1,0.3-0.2,0.4-0.4,0.5c1.2,0.7-0.1-2.1,0.7-0.8c-0.1-0.6,0.5-0.6,0.2-1c-0.1,0.1-0.7,0.8-0.7,0.1      c0.4-0.1,1.2-0.3,0.5-0.8C63.1,58.8,63,58.7,62.8,59.7 M52.3,69.8c-0.2,0.9-0.2,0.8,0.5,0.8c0-0.4,0.2-0.8,0-1.1      C52.7,69.8,52.5,69.8,52.3,69.8 M47.8,76.5c0.1-0.5,0.5-0.5,0.8-0.5c-0.4,0.7,0,1,0.4,0.6c-0.2,0.3,0.1,0.5,0.1,0.7      c-0.5,0.3-0.9-0.7-0.7,0.1c1-0.2,1.1,0.3,1.3,0.5c0.1-0.6,0-0.4,0.5-0.7c-0.8-1.3,0.1-0.2-1-0.2c0.1-0.5-0.4-0.6-0.4-1      c0.1,0,0.2,0.1,0.3-0.1C48.5,75.6,47.5,76,47.8,76.5 M45.8,77.2c0.2,0.1,0,0.2-0.1,0.4c0.1,0.3,0.8,0.6,1,0.2      C46.5,77.6,46.3,76.7,45.8,77.2 M42.5,76.5c0.2-0.2,0-0.9-0.2-0.5c0.2,0.1,0.1,0.4,0,0.6c0.6,0.1,0.4,0,0.9,0.4      C43.6,76.4,42.7,76.4,42.5,76.5 M49,67.5c0.4,0.3-0.9,0.3-0.1,0.8c0.6-0.9,0.7,0.7,1.2,0.2C49.7,68,49.8,67.4,49,67.5       M68.3,43.1c-0.1,0.1-0.1,0.2-0.3,0.1c0,0.1-0.1,0.2-0.1,0.4c0.5,0.1,0.4,1.3,0.9,1c0-0.3-0.5-0.5-0.3-0.9      c0.7,0.9,0.3-0.6,1,0.2c0.5-0.4-0.9-1.1-0.4-0.6C69.3,43.7,67.8,43.5,68.3,43.1 M70.2,40.3c-0.6,0.3-0.3,1.5,0.1,1.3      c-0.3-0.2,0.2-0.3,0-0.4c-0.1,0.1-0.1,0.2-0.3,0.1C70.2,40.6,70.8,40.7,70.2,40.3 M70.1,40c-0.1,0-0.3,0.1-0.1,0.2      c0.1-0.3,0.5,0,0.8,0.1c0.1-0.2,0.1-0.4,0.2-0.5c-0.7-0.3-0.7,0-0.8-0.5c-0.2,0.2-0.4,0.3-0.7,0.1c0.1-0.3-0.5-0.3-0.2-0.1      C69.5,39.8,70.1,39.8,70.1,40 M77.1,32.9c-0.6,0.7-1-0.3-1-0.8c-0.1,0.3-0.3,0.6-0.5,0.7c0.8,0.2,0.4,0.2,0.1,0.7      c0.1,0,0.2,0.1,0.4,0.1c0.4,0,0-0.2,0-0.4c0.6,0.5,0.5,0.5,0.9,0.8c0.1-0.3,0.2-0.4,0.4-0.5C77.3,33.3,77.4,33,77.1,32.9       M76.1,34.4c0-0.8,0.8,0.2,0.9-0.3C76.6,33.5,75.5,33.7,76.1,34.4 M72.7,37.7c-0.5,1-1.9,0.4-1.8,1c-0.6-0.1-0.4,0-0.7-0.5      c-0.1,0.2-0.4,0-0.5,0.2c0.8,0.9,0.8,0.2,1.5,1c0.3-0.4,0.7-0.8,1-1.1c-0.1,0.2,0.1,0.3,0,0.4c0,0.3-0.9,0.2-0.4,0.5      c0.1-0.2,0.2,0,0.4,0.1c0.4-0.3,0.1-0.4,0.7-0.6c-0.3-0.1-0.4-0.3-0.4-0.6c0.3,0.3,1.2,0.3,0.7-0.1c-0.4,0.4-0.3-2-1-0.6      C72.5,37.7,72.8,37.4,72.7,37.7 M71.6,37.9c0.2-0.9-0.9-1.2-1.4-1.8c0.2-0.1,1.4,0.7,1.2,0.1c-0.2-0.1-0.3,0.1-0.6,0      c0-0.8,0.6-0.4,0.8-0.9c-0.5-0.4-0.6,0.1-0.9,0.1c0.2-0.4-0.1-0.7-0.3-0.9c0.1,1.2-0.7,0.7-0.6,2.1c-0.3-0.7-0.4,0.2-0.9,0.1      c0.2-0.3-0.1-0.6-0.3-0.3c0.5,0.3-1.4,0.5-0.6,0.4c0.4,0.1,0.7,0.3,0.8,0.5c0.1-0.3,0.3-0.4,0.6-0.4c-0.4,0.7,0.4,0,0.2,0.5      c-0.3,0-0.6,0.3-0.7,0.8c0.8,0.4-0.3,0.3-0.4,0.5c0.3,0.1,0.6,0.2,0.8,0.1c0.3-0.5-0.1-1.1,0.4-0.5c0.4-0.5,0.1-0.7,0.2-1.2      c0.3,0.8,0.3-0.5,0.9-0.1c-0.2,0.3-0.6,0.6-0.2,1c0.5-0.1,0.1-0.8,0.5-0.7C71.4,37.3,71.1,37.8,71.6,37.9 M72.5,32.9      c0.2-0.4,1.3-0.3,0.9-0.7c-0.4,0.2-1.6,0.5-0.9,1.1c0.2-0.8,1.1,0.1,1-0.4C73,33,73.1,32.7,72.5,32.9 M78.2,23.8      c0.1-0.2-0.1-0.3,0-0.4c0.4,0.1,0.5-1.2,0.6-1.6c-0.6,0.1,0,0.9-0.5,0.8c-0.3-0.7-0.8-1.3-1.4-1.8c-0.1,0.3-0.5,0.4-0.2,0.5      c0-0.3,1,0,0.7,0.3c-0.3-0.2-0.6,0.1-0.3,0.3c0.4-0.6,0.7,0.2,0.8,0.5c-0.7-0.1-0.2,0.4-0.7,0.6c0.4,0.2,0.5-0.2,1,0.2      c-0.3,0.2-0.2,1.3-0.4,1.5c0.1-0.2,0.4,0,0.5-0.2c-0.7-0.6,1-0.4,0.4-0.9C78.6,23.8,78.4,23.8,78.2,23.8 M25.2,61.1      c1.2-0.3,0.1,0.8,1,0.6c-0.5-0.2,0.4-0.2,0.3-0.7c-0.3-0.1-0.6-0.2-0.9-0.4C25.5,60.8,25.4,60.9,25.2,61.1 M24.6,63.1      c0.1-0.3,0.2-0.7,0.5-0.7c0,0.3,0.1,0.4-0.2,0.5c0.5,0.4,0.5-0.5,0.9-0.3c0,0.2,0.2,1,0.4,0.6c-0.1-0.3-0.4-1.3-0.9-1      c0.3,0.6-0.3,0.2-0.4-0.1C24.6,62.4,24.2,62.6,24.6,63.1 M26.7,60c0.1,0.5-0.3,0.5-0.1,0.8c0.2-0.3,1.2-0.5,0.8-0.9      C27.2,60,26.9,59.9,26.7,60 M16.6,83.5c0.5,0.2,0.7-0.4,1.2-0.4c-0.7-0.5-0.7-0.6,0.1-1.2c-0.6-0.1-0.7-0.3-1-0.2      c0.6,0.3-0.7,0.9-0.2,1c0.2-0.4,0.7,0.3,0.7,0.5C16.9,82.9,16.8,83.4,16.6,83.5 M21.1,78.6c0-0.2-0.1-0.6-0.3-0.3      c0.2,0.1,0.2,0.4,0.4,0.6c0.3-0.3,0.6-0.4,0.9-0.7c-0.1,0-0.2-0.1-0.4-0.1c-0.3-0.1-0.3,0.3-0.2,0.5      C21.3,78.5,21.2,78.6,21.1,78.6 M25.4,73.5c-0.1,0-0.2-0.1-0.3,0.1c0.3,0.2,0.5-0.1,0.7-0.1c-0.2,0.7,0.8-0.2,0.5,0.4      c-0.3,0.2-0.7,0.1-0.2,0.5c0.3-0.4,1.6-0.7,0.7-0.8c0.3,0.2-0.1,0.3-0.3,0.3c-0.1-0.9,0.1-0.5-0.6-1.1c0.1,0,0.3-0.1,0.1-0.2      C25.1,72.8,24.7,73.3,25.4,73.5 M22.7,74.8c-0.2-0.8,1.1-0.7,1.2-1c-0.5-0.4-0.5,0.4-1.1,0C22.7,74.2,21.9,75.1,22.7,74.8       M21.4,74.9c-0.1,0.1-0.1,0.2-0.3,0.1c0-0.2,0.1-0.4,0-0.4c-0.1,0.3-0.3,0.6-0.1,0.8c0.3-0.5,0.2,0.4,0.5,0.4      c0.2-0.5,0.7-0.3,1-0.4c-0.2-0.1-0.2-0.4-0.4-0.6C21.8,75.7,21.2,75.3,21.4,74.9 M19.5,78.2c-0.1,0.3-0.1,0.7,0.1,0.9      c0.2-0.3-0.1-0.6,0.2-0.5c0.2,0.5,0.1,0.9,0.2,1.1c0.1-0.1,0.1-0.2,0.3-0.1c0.1,0,0.2,0.1,0.3-0.1c-0.4-0.1-0.5-0.4-0.3-0.8      c0.8,0.4,0.4,1.2,0.8,1.8c0.2-0.2,0.4-0.2,0.5-0.7C20.6,79.1,20.7,78.5,19.5,78.2 M23,77.4c-0.1,0-0.2-0.1-0.3,0.1      c0.2,0.2,0.3,0.4,0.1,0.7c-0.1,0-0.3,0.1-0.1,0.2c0.1-0.1,0.1-0.2,0.3-0.1c0,0.1-0.1,0.2,0.1,0.3c-0.1-0.6,0.9-0.3,0.5-0.7      C22.7,78.4,23.2,76.9,23,77.4 M24,75.3c0-0.2,0.1-0.4,0-0.4c0,0.3-0.6,0.9-0.2,1c0.4-0.3,0.6-0.9,1.2-0.8c0-0.1,0.1-0.2,0.1-0.4      c-0.2-0.1-0.2-0.2-0.3-0.3C24.1,74.5,24.6,75.1,24,75.3 M29.4,66.9c-0.3,0.2-0.5,0.4-0.8,0.5c-0.1-0.6,0.9-0.3,0.5-0.7      c-0.2,0.3-0.2-0.2-0.3-0.3c-0.2,0.3-0.4,0-0.5-0.2c-0.6,0.4,0,1.2-0.1,0.4c0.8,0.3,0.1,0.5,0.3,0.9c-0.5-0.5-0.7,0-1.3-0.3      c0.3-0.1,0.3-0.7,0.2-1c-0.5,0.2,0,0.7-0.7,0.6c-0.1-0.5,1-0.8,0.9-1.3c0.2,0.6,1.4,0.7,1.7,0.5c0-0.3-0.7-0.3-0.6-0.7      c0.1,0,0.3-0.1,0.1-0.2c-0.2,0.2-0.4,0.3-0.6,0.4c0.6-0.7-1.1,0-0.9-0.8c0.5,0.4,0.5-0.6,0.5-0.7c-0.1,0.1-0.2,0.2-0.4,0      c0.1-0.2,0.1-0.5-0.1-0.3c-0.1,0.2,0.1,0.3,0,0.6c-0.3-0.6-1.1-0.3-1.5,0c0.7,0,0.8,0.4,1.4,0.1c-0.3,0.3,0.3,0.8-0.3,0.7      c0-0.3-0.2-0.1-0.1,0.2c-0.2-0.1-0.5-0.2-0.7-0.3c-0.2,0.9-0.3-0.3-0.5,0.2c0.1,0.5-0.1,0.2,0.2,0.5c-1-0.1-1.4,0.9-1.7,1.2      c0.1-0.2,0.5-0.1,0.7-0.1c-0.1,0.2-0.1,0.4,0,0.6c-0.9-0.5-1.1,0.5-2.1,0.4c0.1-0.2,0.1-0.5-0.1-0.3c0,0.2,0.1,0.4,0.2,0.5      c0.3-0.2,2.4,1.2,2.5,0.1c-1.1,0,2.4,0.2,0.7-0.6c0.3,0.1,0.5,0,0.7-0.1c-0.5-0.1-0.5-0.5-0.5-0.8c0.2,0.5,0.6,0.3,1.1,0.4      c-0.7,0.1,0.2,0.9-0.1,0.4c0.6-0.6,1.1,0.8,1.5,0.6c-0.2-0.2,0.4-0.5,0.5-0.7c0,0.2,0,0.5,0.1,0.7c0.5-0.3,0.2-1,1-0.9      c-0.1,0.4,0.4,0.5,0,1.1c-0.2-0.1-0.3,0.1-0.4,0c1-0.5-1.3-0.1-0.8,0.3c0.5-0.4,0.7,0,0.9,0.4c0.2-0.6,0.3-0.6,0.5-0.2      c0.8-0.4-0.6-0.9,0.6-1c-0.8,0.7,0.7,0.2,0.1-0.4C30.1,67.7,29.2,67.3,29.4,66.9 M23,73.6c0.6-0.1,0.4-0.4,0.6-1      c0.8,0-0.2,0.8,0.3,0.9c0.2,0,0.2-0.1,0.1-0.2c0.1-0.2,0.4,0,0.6,0c0.1-0.3-0.6-0.6,0.1-0.4c0-0.6-0.8,0.1-0.8-0.5      c0.2-0.1,0.5,0,0.6-0.4c0.1,0.1,0.1,0.3,0.3,0.3c0.1-0.3-0.4-1.1,0.3-0.7c0-0.6-0.6,0.1-0.7-0.5c0.2-0.3,0.5-0.3,0.9-0.1      c0-0.6-0.8-0.9-1.4-1.2c0.2-0.5,0.9,0.1,0.9-0.7c1.1,0.3-0.5,0.9,0.6,1.3c-0.7-0.4,0.6-0.8-0.2-1.1c0.5,0,0.7-0.5,1.2-0.4      c-0.6,0.2-0.1,0.7,0,1.1c-0.2,0.5-0.3-0.6-0.5,0.2c0.7,0.7-0.2,0.3,0.2,1.1c0.3,0.2,0.5-0.1,0.8,0.1c-0.3,0.5,0.4,0.7-0.2,1      c0.2,0,0.3-0.1,0.4,0c-0.2-0.4,0-0.9-0.4-1.2c0.2-0.2,0.2,0.2,0.5,0.2c-0.1-0.5-0.3-0.5-0.8-0.5c-0.1-0.2,0-0.5,0.1-0.8      c0.5-0.2,0.3,0.3,0.8,0.1c-0.1-0.4-0.9-0.1-1.1-0.9c0.1-0.2,0.4,0,0.4,0.1c0-0.1,0.8-1,1.1-0.2c0.2,0.1,0.3-0.3,0.4-0.5      c-0.5-0.2-0.7,0.1-0.7-0.5c-0.4-0.1-0.4,0.8-0.7,0.8c-0.9-1.3-1.8,0.8-2.6-0.4c0.8,1.2-0.7,0.8-1.3,0.6      c-0.4,0.6,0.5,0.7,0.1,1.3c-0.8-0.7-0.7,0.6-1.4,0.3c0.3-0.3,0.6-0.7,1.1-0.6c0-0.3-0.3-0.1-0.4,0c-0.2-0.1-0.1-0.3,0-0.4      c-0.3,0-0.5,0.3-0.7,0.6c0,0.7-0.1-1.3,0.5-0.8c0-0.3-0.2-0.4-0.1-0.7c-0.4,0.1-0.6,0.8-1.1,0.6c0,0.2,0.1,0.3,0,0.4      c0.6,0,0.3,1.4,0.8,1.2c-0.2,0.7-1.6-0.2-2.3,0.4c-0.1,0.3,0.5,0.3,0.4,0.6c0-0.4,0.8-0.3,0.7,0.5c-0.5-0.3-0.7,0.1-0.9-0.4      c0,0.2,0.1,0.4,0,0.6c0.2,0.1,0.2-0.2,0.3-0.3c0.2,1.3-0.6,0.9-1.3,1.2c0.2-0.4-0.1-0.2-1.1-0.9c-0.3,0.4,0.2,0.5,0.1,0.9      c0.5,0.3,0.9-0.3,1.2,0.2c0,1.1-2.3-0.2-1.5,0.5c-0.1,0.4-0.7-0.2-1-0.2c0.2-0.2,0.2-1,0.5-0.8c0-0.2-0.6-0.8-0.7-0.5      c-0.3-0.2,0.4-0.8,0.5-0.2c0.1-0.5-0.6-0.7-0.1-1.3c0.3,0.6,0.3,0.9,1,0.8c-0.3-0.3-0.7-1.2-1.1-0.9c-0.6-0.3,0.8-0.2,0.2-0.5      c0.3,0,0.8,0.4,0.9,0.8c0.3-0.3,0.6-0.9,0.6-1c0.4-0.4,0.4,0.5,0.8,0.1c0.2-0.7-0.8,0-0.3-0.9c-0.2,0-0.4,0.1-0.6,0      c0.5-0.4,0.3-0.1,0.4-1.1c0.2,0.3,0.3,0.2,0.5,0.2c0.1-0.3,0.1-0.5-0.1-0.7c0.7,0.2-0.1-0.2,0.5-0.7c0.3,0.1,0.3,0.4,0.7,0.5      c0.4,0.1-0.1-0.6,0.5-0.7c-0.5-0.4-0.6,0.1-1-0.2c0.1-0.2,0.1-0.3,0-0.4c0.1-0.2,0.4,0,0.5-0.2c-0.2,0.6,0.3,0.1,1.1,0.4      c-0.9,0.4,0.7,0.7-0.5,0.7c0.1,1,1.2-0.1,1.7-0.2c0-0.2-0.3-0.4-0.1-0.7c0.7,0.7,0.4-0.1,1.1-0.6c-0.7,0.7-0.5-0.9,0.1-0.8      c-0.1-0.2-0.8-0.6-1.5-0.6c0.2-0.9,0.4,0.5,0.6-0.4c0.6,0.6,1,0.3,1.6,0.8c0.3-0.4-0.2-0.4-0.1-0.7c-0.3-0.1-0.7-0.1-0.9,0.1      c-0.7-1.1,0.5-1,0-1.5c0.4-0.1,0.7-0.4,1.3-0.1c0.1-0.7,0.2-0.5,0.2-1.2c0.2,0.3,0.4,0.4,0.7,0.3c0.3-0.4-0.9-0.2-0.6-0.7      c-0.2-0.1-0.2,0.2-0.3,0.3c-0.6-0.5,0.1-0.9-0.1-1.3c0.4,0.6,1.1-0.5,1.7-0.2c0.1-0.5,0-1-0.3-1.4c0.3-0.2,0.7,0,1.1,0      c0.1-0.7-1.3,0-0.8-0.7c-0.2-0.1-0.2,0.2-0.3,0.3c-0.3-0.3-0.3-0.8-0.9-1c1-0.3,1.3,0.1,2-0.3c0.1,0.6,1.4,1.5,1.2,0.2      c-0.2-0.1-0.4-0.1-0.5-0.2c0.2,0.6-0.8-0.3-1.2-0.2c0.1-0.4,1.1-0.3,1,0.2c0.8-1.1,0.7-0.7,1.2-1.9c0.1,0.4,0.7,0.5,0.4,1      c0.6-0.2,1-0.8,1.7-0.6c-1.1-0.1-0.6,1.3-1.3,0.6c0,0.8,0.6,0.5,0.8,1.2c-0.5,0.6-0.5,0.3-0.4,1.1c-0.2-0.7-1.1-0.1-1-0.8      c-1-0.3-0.8,2-1.4,0.9c-0.2,1,0.7,1.6,0.6,1.7c0.4,0.8-1,0.6-1.3,1.2c-0.1,0.4,0.6,0.4,0.3,0.8c0.4,0.7-0.7-0.9-0.3,0.1      C26,63,26.5,61.9,25.9,62c0.2,0.6,0.3,1.5,1.1,1c0.5-0.7-0.1-0.9,0.1-1.4c0.3-0.3,0.2,0.2,0,0.4c0.2-0.1,0.4-0.2,0.6-0.4      c0.5,0.4-0.4,0.4-0.5,0.7c0.2,0,0.4,0,0.5-0.2c0.2,0.2-0.1,0.3-0.3,0.3c0.1,0.4,0.5,1.6,1.1,0.9c0.3,0.5-0.7,0.8-0.9,0.3      c0.6,1.2,1.1,0.8,1.4,1.8c0.4-0.1,0.1-0.6,0.5-0.8c0.3,0.3,0.3,0.7,0.9,0.8c-0.4-0.6-1-1.2-0.3-1.8c0.3,0.2,0.6,0.6,1.1,0.4      c-0.4-0.5-1-0.1-1.1-1c0,0.6-0.9-0.3-0.8,0.3c-0.4,0.5-0.6-0.3-0.7-0.5c0.8,0.2,0.7-0.5,1.1,0c0.2,0,0.3-0.1,0.4,0      c-0.9-0.7-0.4-0.7-1.2-1.1c-0.1,0.2,0.2,0.2,0.3,0.3c-0.1,0.2-0.4,0-0.6,0c0.4-0.7,1.2-0.8,0.4-1.5c0.3,0,0.5-0.5,0.9-0.3      c-0.2,0.5,0.2,0.6,0.5,0.8c0.2,0,0.2-0.1,0.1-0.2c0.2-0.1,0.4-0.1,0.7-0.1c0.7-1.4-0.6-1.3,0.5-2.3c-1.2,0.2-0.2-0.4-1-0.6      c0.1-0.3,1.1,0.2,0.6-0.4c0.8-0.2,1.3,0,1.3-0.6c0.5,0.1-0.4,1.7,0.8,2.2c-0.6-0.3,0-1.3-0.3-0.9c-0.2-0.5,1.3-0.1,1.4-0.9      c-0.4-0.5-0.7,0.7-0.6,0c-0.3,0-0.1,0.3,0,0.4c-0.8,0.2-0.3-0.7,0.2-1c0.5,0.5,0.7,0.1,1.3,0.3c0.3-0.4-1.2-1.3-0.2-1.1      c0.2-0.4-0.6-0.3-0.8-0.5c0.6,0.7-0.3,0.5-0.5,1.3c-0.6-0.5-0.5,0.4-1.1,0c0-0.2,0.1-0.1,0.3-0.1c-0.6-0.6-1.3-0.4-1.4-1.4      c0.8,1,1.2-0.1,1.4,1.2c0.4,0.1,0.3-1.1,1-0.4c-0.6-0.7,1-0.8,1.5-1.1c0.1-0.8,0.6-1,0.1-1.2c0.2-0.1,0.3-0.2,0.4-0.5      c0,0.4,0.8,0.2,0.4,0c0.8,0.3,1.7-0.1,2.7,0.2c-0.5-0.7-1-0.4-1.7-0.5c0-0.2-0.1-0.4,0-0.6c0.2,0.1,0.1,0.3,0,0.4      c0.4,0,0.2-0.3,0.2-0.5c-0.2,0-0.4,0-0.5,0.2c0.3-0.9,0.8-2,2.2-2.3c-0.3-0.7,0.2-1.2,0.8-2c0.2,0.1,0,0.2-0.1,0.2      c0,0.4,0.8,0,0.8-0.5c0.9-0.1-1.1,1-0.2,1c-0.8,0.2-0.7,0.2-1.3,0.7c0,0.2,0.1,0.3,0,0.4c0.3,0,0.3-0.4,0.5-0.7      c0.7,0.2,0,0.2,0,0.6c0.3,0,0.6-0.3,0.7-0.8c0.1,0.2,0.5,0.3,0.4,0.6c0.3-0.9,1.4-0.4,1.9-0.5c0.2,0.8,0.6,0.9,1.2,1.3      c0.1-0.1,0-0.2-0.1-0.3c0.1-0.2,0.3-0.1,0.4,0c-0.1-0.2-0.2-0.4-0.4-0.6c0.2-0.5,0.6-0.5,0.9-0.7c0.2,0.1,0.1,0.3,0,0.4      c0.2,0,0.6-0.1,0.3-0.3c0.2-0.1,0.6,0.3,0.1-0.4c-0.6-0.1-0.9,0.1-1.5,0c0.6,0.2-0.4,1.2-0.1,0.4c-0.6,0-0.2,0.8,0.3,0.8      c-0.5,0.4-1.2-0.5-0.9-1c-0.1-0.3-0.4-0.1-0.6-0.7c-0.1,0.5,0.6,0.8,0,1.1c-0.4-0.4-0.4-1-0.7-1.5c-0.7-0.2,0.4,0.7-0.2,0.5      c-0.1,0.2,0.3,0.3,0.5,0.4c-0.5,0.7-1-0.4-0.4-0.6c-0.2-0.1-0.3-0.1-0.4,0c0.2-0.3-0.4-1.5,0.7-1.2c-0.2,0.1-0.3,0.2-0.4,0.5      c0.4,0,0.3-0.5,0.6,0c-0.1-0.5-0.2-0.9,0-1.5c0.3,0,0.6-0.3,0.7-0.8c0.6,0.6,1,0.2,1.1,0.4c0.2,0,0.3-0.8,0.7-0.1      c-0.3-0.9,0.3-0.3,0.3-1.3c0.3,0.1,0.5,0.2,0.6,0c-0.4,0-0.3-0.8,0.5-0.7c0.1-0.5-0.7-0.3-0.7,0.1c-0.3-0.9,0.9-0.8,1.4-0.3      c0.2-0.4-0.9-0.2-0.3-0.8c-0.3,0-0.6,0.1-0.8,0.3c-0.3-0.3,0.9-0.9-0.2-1.1c0.4-0.3,0.9-0.1,1-1.1c1,0.5-0.3,0.4-0.3,1.3      c0.3,0,0.4-0.2,0.7-0.1c0-0.2-0.1-0.2-0.2-0.1c0.3-1,1,0.2,0.7-1.2c-0.5-0.4,0.3-0.3,0.4-0.5c0.3,0.3,0.3,0.4,0,0.6      c0.2,0,0.4,0,0.5-0.2c-0.1-0.2-0.2-0.4-0.4-0.6c0.1-0.2,0.2-0.5,0.3-0.7c0.2,0.2,0,0.5-0.1,0.8c0.4,0.1,0.3-0.8,0.9-0.3      c-0.1-0.3,0-0.4,0.3-0.3c0.1-0.2-0.3-0.3-0.5-0.4c0.1-0.2,0.1-0.4,0.2-0.5c0.5,0.2,0.2,0.2,0,0.4c0.6,0,0.7-0.5,1.2,0.1      c-0.3-0.7,0.2-0.7,0-1.5c-0.2,0-0.3,0.1-0.4,0c0,0.2,0.1,0.2,0.2,0.1c-0.4,0.6,0.2,0.2-0.4,1.1c-0.7-0.6,0.3-1-0.5-1.5      c0.2-0.1,0.3-0.2,0.4-0.5c0.3,0.6,0.9,0.7,1.3,0.3c0.3,0.3,0.6,0.9,1.2,0.7c0-0.2-0.4-0.4-0.5-0.2c-0.1-0.2,0-0.5-0.4-0.6      c0.6,0.1,1.1-0.3,1.5-0.7c0.2-0.4-0.5-0.1-0.5,0.2c-0.2-0.2-0.2-0.4-0.4-0.6c0.1-0.3,0.3-0.4,0.6-0.4c-0.1-0.3-0.4-0.3-0.7-0.3      c-0.2,0.5,0.1,0.7-0.4,0.9c-0.9-0.6,1.4-1.7,0.3-1.8c-0.3-0.2,0.3-0.3,0-0.4c0.2-0.4,0.4,0.5,0.7-0.1c0.4,0.3-0.9,0.3-0.1,0.8      c0.2-0.4,0.4-0.3,0.5,0.4c0.5,0.1,1.1-0.6,1.4,0.1c-0.1-0.2,0-0.5,0.1-0.8c-0.3,0.2-0.8-0.1-1,0.4c-0.1-0.2,0-0.5-0.4-0.6      c0.6-0.1,1.5-0.2,1.3-1.2c0.3,0.3,0.5,0.6,0.4,1c0.2,0,0.3-0.1,0.4,0c0.1-0.2-0.2-0.2-0.3-0.3c0.2-0.1,0.3-0.5,0.6-0.4      c0-0.6-0.8,0.1-0.6-0.7c-0.4,0.2-0.6,0.4-0.3-0.3c-0.2-0.1-0.2,0.2-0.3,0.3c-0.1-0.2-0.2-0.3-0.4-0.1c-0.3-0.4,0.3-0.4,0.2-1      c0.2,0.5,0.8,0.3,1.1,0c-0.2-0.1-0.7-0.3-0.9-0.4c-0.5,0.2,0.4-0.5,0.2-1c-0.1,0-0.2-0.1-0.4-0.1c-0.2,0.3-1.5,0.5-0.7,0.8      c-0.5,0-0.7,0.4-1.3,0.1c0.2,0.4,0.4,0.6-0.3,0.3c-0.1,0.7,0.4,0.2,0.6,0.7c-0.2,0.2-0.4,0.3-0.7,0.1c0,0.6,0.6,0,0.8,0.1      c0.2-0.3,0-0.4,0-0.6c0.2-0.4,0.2,0.5,0.4,0.6c0.6,0,0.9-0.5,0.7-0.8c0.4-0.5,0.1,0.5,0.4,0.6c-0.2,0.5-1.2,0-0.9,0.7      c-0.2-0.1-1-0.6-1.6,0.2c0.7-0.1-0.4,0.9-0.9,1.3c-0.3-0.3-0.4-0.6-0.4-1c-0.5-0.3,0.3,0.7-0.4,0.5c0.1,0.3,0.4,0.1,0.6,0.7      c-0.1,0.2-0.2,0-0.2-0.1c-0.5-0.4-0.5,0.4-1.1,0c-0.1,0.6,0.6-0.1,0.9,0.4c-0.2,0.1-1,1-0.5,0.7c0.3,0.5-0.9,0.6-1.2,0.8      c-0.2-0.2,0-0.5,0.1-0.8c-0.3-0.1-0.8,1-0.2,1c-0.1,0.3-1.1,0.2-0.7,0.6c-0.2,0.1-0.5-0.3-0.7,0.6c-0.3-1-0.4-0.3-1.1-0.9      c0.2-0.2,0.4-0.2,0.6-0.4c-0.7,0-0.5,0.2-1.2-0.1c0.3,0.2,1.1,0.7,0.2,1.1c-0.1,0.5,0.4-0.1,0.7,0.3c0-0.2-0.3-0.4-0.1-0.7      c0.2,0.2,0.4,0.4,0.8,0.5c-0.3,0.9-1,2.9-2.3,1.6c0,0.4,0.1,0.9,0.6,0.7c0.4,0.3-0.6,0.3-0.9,0.1c0,0.3,0.2,0.4,0.1,0.7      c0.2-0.3-0.8,0.4-0.7-0.5c-0.6-0.1-0.1,0.6-0.4,0.9c0.2-0.1,0.5,0.1,0.7-0.1c0.3,0.2-0.1,0.7,0.3,0.8c-0.2,0.5-0.3-0.6-0.5,0.2      c0.4,0.5-0.5-0.2,0-0.6c-0.5-0.2-0.2,1.1-0.8,0.5c0.1,0.6-0.3,0.5-0.2,1.2c-0.5-0.4-0.7-0.1-1.2-0.2c0.6,0.6-0.3,0.7-0.7,1.2      c-0.5,0.1-0.5-0.7-0.7-0.3c0-0.4-0.8-0.9-0.2-1.1c-1.5,0.1,0.4,0.4-0.7,1.2c0.7-0.2,1.2,0.8,1.9,0.1c0.2,0.1,0,0.4,0.2,0.5      c-0.4,0.4-0.4-0.5-0.8-0.1c0.7,0.3-0.2,1.2,0.5,0.8c0,1.3-0.7-0.3-0.7-0.3c-0.4,0-0.9,0.9-1.6,0.4c0.1,0.3,0.3,0.1,0.7,0.5      c-0.3,0.2-0.5,0.7-0.7,0.1c0.1,1.2,1.4-0.3,1.6,0.6c-1.1,0-2.1,0.3-2.4-0.3c-0.4-0.2,0.3-0.5,0.5-0.2c0-0.2-0.3-0.4-0.1-0.7      c-1.2-0.3-0.9-0.4-1.9-0.5c0.1,0.4,0,0.5-0.3,0.7c0.5,0.1,0.6-0.7,1.3-0.1c-0.6,1,0.5,0.5-0.1,1.2c0.3-0.1,0.4,0,0.3,0.3      c0.2,0,0.4-0.3,0.7-0.1c-0.3,0.4-0.5,0.5-0.2,1c-0.2,0.4-0.4-0.4-0.7-0.5c0.2,0.7,0,0.9-0.4,1.5c-0.1-0.7-0.6,0.4-0.5-0.2      c-0.2,0.4-0.9,0.5-0.1,0.8c-0.2,0.2-0.5,0-0.8-0.1c0.2-0.5-0.3-0.9,0.3-1.3c-0.5,0.2-0.8,0.1-0.8-0.5c-0.3-0.1-0.8,0.8-0.3,0.3      c0.3,0.4-0.7,0.6-0.9,1.1c0.4,0,0.7-0.3,0.9-0.7c0.2,0.1,0.5,0.2,0.7,0.3c-0.2,0.7-1,0-1.3,0.6c0,0.7,1,0.1,1,0.6      c0.5-0.4-0.3,0.5-0.4-0.1c0,0.3,0.1,0.5,0.4,0.6c-1.5,0.5-1.5,0.3-2.8,1.2c-0.4-0.2,0.4-0.4,0.5-0.7c-0.9-0.3-0.8,0.5-1.4-0.1      c-0.4-0.1,0,0.8-0.5,0.8c0.5,0.4,0.5-0.5,1.1,0c-0.2,0.4-0.7,0.6-0.2,1c0.1-0.3,0.5-0.5,1-0.9c0.4,0.5,0.9,0.1,0.7,0.9      c-0.3-0.4-1.3-0.1-1.6,0.4c0.5-0.3,1.3-0.4,1.1,0.4c0.4-0.1,0.2-1,1-0.9c-0.4-0.3-0.2-0.9-0.3-1.4c0.6-0.8,1.3,0.2,1.7-0.6      c0.4,0.2,0.2,0.6,0.5,0.8c-0.4,0.4-0.7-0.7-0.9,0.3c0.2,0.1,0.2-0.2,0.3-0.3c0.4,0.4-0.5,0.7-0.8,0.5c0.2,0.5-0.2,1-0.1,1.2      c0.6-0.3-0.5,0.5-0.3-0.3c-0.6,0.2-0.8,1.2-1.6,0.8c0-0.2-0.1-0.4,0-0.6c-1,1-0.5,0.7,0.2,1.6c-0.2,0.3-0.3-0.3-0.4,0      c-0.2-0.2,0.1-0.2,0.1-0.4c-0.4,0-0.8,0.3-1.3,0.1c-0.1-0.1,0.1-1-0.2-0.5c-0.5-0.4,0.4-0.4,0.5-0.7c0.3-1.4-0.7-0.8-0.6-1.7      c-0.2,0-0.3,0.3-0.5,0.2c0.5,0.2,0.4,0.7-0.4,0.9c-0.4-0.2-0.3-1.3-1.1-0.9c0.2,0.2,0.5,0.3-0.2,0.5c-0.2,0.8,1.4,0,0.5,0.8      c0.6,0.5,0.7-0.5,1.4,0.1c0.1-0.2-0.2-0.2-0.3-0.3c0.4-0.3,0.4,0.3,1,0.2c-0.2,0.3-0.6-0.1-0.7,0.6c-0.3-0.7-0.5,0.4-0.7-0.3      c-0.3-0.1-0.3,0.5-0.6,0.4c0.5,0.5-0.5,0.5,0.3,1.8c0-0.2,1.1-0.7,0-0.6c0.8-0.2,1.2-0.7,1.9-0.1c-1,0.8-0.2,0.4-0.4,1.5      c-0.3-0.1-0.3-1-0.5-0.2c-0.3-0.1-0.3-0.4-0.7-0.5c0,0.6,0.3,1.3-1.4,0.9c0.4-0.7-0.6-1.3-1.1-0.9c-0.7-0.1,1-0.2,0.6-1      c0.2,0.4,0.7,0.1,1.3,0.5c0-0.5-0.7-0.7-0.3-1.4c-0.3-0.1-0.5-0.2-0.6,0c-0.3-0.2,0.4-0.6,0.5-0.8c-0.3,0.1-0.6,0-1-0.2      c0.6,0.5-0.1,0.7,0.4,1.2c-0.9,0.1-1.2,0.1-1.9,0.1c-0.2-0.2-0.3-0.4-0.1-0.7c-0.5,0.2-0.3-0.2-0.4-0.6c-1,0.2,1,1.4-0.6,1      c-0.2,0.3,0.7,0.3,0.8,0.1c0.1,0.2,0.1,1.2,0.5,0.8c0.4,0.2-0.7,0.7-0.7,0.1c0,0.1-0.1,0.2-0.1,0.4c0.1,0.2,0.5,0.2,0.3,0.9      c-0.2-0.1-0.1-0.3,0-0.4c-0.3,0.2-0.7,0.2-0.9,0.7c-0.3-0.1-0.3-0.3-0.2-0.5c-0.4-0.1-0.4,0.6-0.8,0.3c-0.2,0.5,1.1,0.2,0.5,0.8      c-0.5-0.2-0.7-0.8-1.2-0.7c0-0.3,0-1-0.5-1.5c0.1-0.2,0.2,0,0.2,0.1c0.2,0.1,0.2-0.2,0.3-0.3c0,0.5,0,1.6,0.7,1.3      c0-0.2-0.1-0.2-0.2-0.1c-0.6-0.6,0.2-1.1,0-1.7c-0.5-0.2,0.2,0.7-0.5,0.2c0.2-0.8,1.6,0,1.1-0.2c0,0.3,0.3,0.1,0.4,0      c0-0.2-0.4-0.5,0-0.4c0-0.2-0.4-0.8-0.5-0.4c-0.2-0.2,0-0.5,0.1-0.8c0.1,0.2,0.2,0.3,0.5,0.4c-0.2-0.8,0.6-2.3,1.5-2.8      c0.2,0.1,0,0.2-0.1,0.2c-0.1,0.2,0.2,0.2,0.3,0.3c-0.1,0.2-0.4,0-0.6,0c0,0.2,0.4,1.3-0.4,0.9c0,1.3,1.2,1.2,1.4,1.8      c0.4,0,0.3-0.4,0-0.4c0-0.2,0.1-0.1,0.3-0.1c0.1-0.4-0.6,0.1-0.4-0.6c-0.2-0.1-0.2,0.2-0.3,0.3c-0.2-0.7-0.1-0.1-0.7-0.3      c0.1-0.4,0.3-0.4,0.5-0.7c0.1,0.2,0.3,0.4,0.7,0.5c-0.5-0.3-0.2-0.8-0.4-0.6c0.4-0.5,0.4-1.1,1.3-0.7c-0.2,0.1-0.7-1.1,0-0.4      c0-0.6-0.5-0.9-0.7-1.3c0.1-0.2,0.4,0,0.5-0.2c0,0.8,0.6,0.1,0.7,0.5c0.3-0.1,0.6-0.3,0.8-0.5c-0.9,0.1,0.2-0.2,0.4-0.5      c0.2-0.4-0.5-0.1-0.5,0.2c-0.6-0.3,0.6-0.4,0-0.6c0.6,0.1,0.6-0.1,0.6-1c0,0.6,0.6,0.7,0.7,0.9c0.2,0.1,0.3-0.3,0.4-0.5      c-0.3-0.2-0.4,0-0.5,0.2c-0.3-0.3-0.4-0.9,0-1.1c0.2,0.2-0.1,0.2-0.1,0.4c0.8-0.4,1.6-0.8,1.1-1.2c0.1,0,0.2,0.1,0.4,0.1      c-0.1,0.1,0,0.2,0.1,0.3c-0.5,0.2-0.8,0.7-1,0.9c0,0.3,0.5,0.1,0.8,0.5c-0.7,0.2-0.3,0.2,0.3,0.3c-0.5-0.8,0-1.4,0.4-2      c0.2,0.3,0,0.8,0.4,1c-0.1-0.3,0.1-0.7-0.3-0.9c0.2-0.3,0.5-0.3,0.9-0.1c-0.2-0.8-0.9,0.2-1.4-0.1c0.6-0.5,1.1-1.3,1.3-1.8      c0.2,0.1,0,0.4,0,0.6c0.3,0.1,0.3-0.5,0.6-0.4c0.1-0.2-0.2-0.2-0.3-0.3c0.2-0.2,0.5-0.2,0.9-0.1c-0.1,0.1-0.3,0.1-0.3,0.3      c0.2,0,0.4-0.1,0.6,0c0-0.2-0.1-0.4,0-0.6c0.2,0.2,0.3,0.5,0.3,0.8c0.3,0.1,0.4-0.6,0.7-0.6c0.4,0.2,0.2,0.6,0.5,0.8      c0.4-0.5-0.5-0.5-0.3-0.9c-0.5,0.1-1.4,0.1-1-0.8c0.1,0.1,0.3,0.3,0.2,0.5c0.4,0.3,1.2-1,0.9-0.1c0.6-0.1,0.1-0.8-0.5-0.8      c-0.4,0-0.5,0.6-1.1,0.2c0.1-0.2,0.3-0.1,0.4,0c0.1-0.1,0-0.2-0.1-0.3c0-0.4,1.1,0.3,0.5-0.2c0.2-0.1,1,0.5,1.2-0.4      c0.1,0.2,0.1,0.4,0.1,0.7c0.2-0.4,0.4-0.3,0.7,0.3c-0.3-0.8,0.2-0.8,0.1-1.4c-0.3-0.1-0.5-0.2-0.6,0c-0.6-0.3,0.6-0.7,0.1-0.8      c0.2-0.4,0.5,0.3,0.2,0.5c0.7,0,0.7-0.2,1.1,0.4c-0.1-0.6-0.4-0.8-0.9-0.8c0.1-0.2,0.1-0.4,0.2-0.5c0.2,0.1,0.3,0.2,0.3,0.3      c0.3-0.1,0.5-0.2,0.8-0.3c0.1,0.7,0.1,1,0,1.5c0.6-0.2,1.4,0,1.8-0.8c-0.2,0.1-0.4,0.2-0.6,0.4c-0.8-0.1-0.5-0.7-0.9-1      c0-0.6,1.2-0.2,0.8-0.5c0.4-0.3,0.7-0.1,0.7,0.3c0.4,0.1,0.3-0.8,0.2-1c0.1,0.5-1.2,0.5-1.6-0.2c0.4,0,1.1,0.4,1.7,0      c-0.2-0.7,0-1,0.8-1c0-0.2-0.1-0.3,0-0.4c-0.2,0-0.2,0.1-0.1,0.2c-0.1,0.2-0.4,0-0.5,0.2c-0.3-0.2,0.3-0.3,0-0.4      c0.1-0.2,0.4,0,0.5-0.2c0.2,0.3,0.5,0.5,0.3,0.9c0.9-0.1,1.2-2.1,1.1-0.6c0.3,0.1,0.5-0.2,0.7-0.6c-0.4-0.2-0.7-0.2-0.9,0.1      c0.1-1.3,1.5-1.9,2.4-1.2c-0.3-0.3-0.3-0.7,0.4-0.5c0-0.2,0-0.4-0.2-0.5c-0.1,0.1-0.5,0.8-0.9,0.1c0.1-0.2,0.2,0,0.2,0.1      c0.6,0.1,0-0.5,0.3-0.7c0.9,1.1,1.1-1.2,1.7,0c-0.3-0.4-0.7-1.1-0.6-1.1c-0.2-0.1,0.4-1.1,0.9-0.7c-0.3,0.1-0.5,0.6-0.4,0.9      c0-0.2,0.9-0.8,0.3-1.3c0.1-0.4,0.9,0.1,0.5,0.4c0.5-0.1,0.2-1,0.6-1c0.9,0.1-0.6,0.5,0.3,0.8c-0.6,0.6-0.4,1-1.2,1      c1,0.7,1.2-1.5,2-1.3c-0.1-0.4-0.6-0.6-0.7-0.9c-0.1,0.1,0,0.2,0.1,0.3c-0.2,0.2-0.2-0.1-0.4-0.1c0-0.1,0.1-0.2,0.1-0.4      c0.5-0.2,0.3,0.2,0.7,0.5c0.2-0.4-0.2-0.6-0.3-0.9c0.5-0.1,1.1,0,2-0.7c-0.2,0.1-0.4,0.2-0.6,0.4c-0.3-0.2,0.5-0.4-0.4-0.6      c1.5-0.9-0.1,0.4,1.7-0.2c0.2-0.4-0.9-0.2-0.3-0.8c1.3,0.2,2.1,1,3.1,0.2c-0.3-0.2-0.4,0-0.5,0.2c-1.1-0.8-1-0.9-2.4-0.9      c0.1-0.4,0.3-0.4,0.5-0.7c0.2,0.8,0.3-0.1,0.8,0.5c-0.1-0.3,0-0.7-0.5-0.8c0.3-0.5,1,0.5,0.4-0.5c0.3-0.6,0.5,0.2,0.7-0.1      c0,0.4,0.3,0.7,0.2,1.1c0.2,0,0.3-0.3,0.5-0.2c0-0.2-0.1-0.2-0.2-0.1c-0.4-0.3,0.2-1-0.6-1.1c0.8-0.5,0.2-0.2,0.4-0.9      c0.2-0.2,0.2,0.2,0.5,0.2c-0.1-0.5,0-0.5,0.3-0.1c0.2,0,0.3-0.1,0.4,0c0.1-0.4-0.4-0.4-0.1-0.9c0.2,0.8,1,0.7,1.3-0.1      c0,0.4,0.2,0.7,0.4,1c0.3-0.1,0.1-0.3,0.5-0.7c-0.8,0.6,0.1-0.7-0.8-0.7c0.2-0.2,0.4-0.2,0.6-0.4c-0.2-0.1-0.9,0.3-0.8-0.1      c-0.3,0,0.6-0.3,1.3-0.1c0.1-0.8-1.1,0.2-0.9-0.4c0.4,0.1-0.2-1.1,0.6-0.4c0.1-0.2,0.1-0.3,0-0.4c0.6-0.4,0.7,0.7,1.1-0.2      c0.4,0.1,0.1,1.5,0.6,0.7c0.6,0.5-0.2,0.6-0.3,1.3c0.5-0.8,0.7-0.1,1.3-0.6c0-0.2-0.3-0.4-0.1-0.7c-1.5,0.2-0.4-1.3-1.8-0.9      c-0.1-1.2,1.5-0.5,1.2-1c0.2-0.2,0.5,0,0.8,0.1c-0.2,0.1-0.3,0.2-0.1,0.4c-0.1,0.2-0.4,0-0.6,0c0,0.6,0.7,0.1,1,0.2      c-0.4-0.7,0.1-0.9-0.3-1.4c0.5-0.6,1.3-0.5,1.6-1.5c-0.2,0-0.3,0.1-0.4,0c-0.1-0.6,0.8,0.3,1-0.4c0.4-0.6-0.6-0.9,0.1-1.2      c0.2,0.2-0.1,0.2-0.1,0.4c0.7-0.1,0.6-0.7,1.2-1.4c0.3-0.3,0.2,0.2,0,0.4c0.2,0.1,0.4,0.1,0.5,0.2c0.1-0.2-0.2-0.2-0.3-0.3      c0.5-0.2,0.1-0.7,0-1.1c0.4-0.5,0.7,0.4,0.6,0.7c0.3,0.2,0.2-0.5,0-0.6c0.7-0.6,0.7,0.5,1.2,0.2c-0.5-0.5,0.2-0.7,0.5-1.3      c0.4,0.1,0.4,0.3,0.7,0.5c-0.2,0.3-0.7-0.1-0.9,0.1c-0.2,0.6,1.1-0.2,0.6,0.7c0.3,0.1,0.3-0.5,0.6-0.4c-0.1-0.8,0.5-1.7,1-2.1      c0.2,0.1,0.1,0.3,0,0.4c0.2,0,0.4-0.3,0.7-0.1c0-0.2-0.1-0.3,0-0.4c-0.9,0.4-1.1-0.4-1-1.2c0.2,0,0.1,0.1,0.1,0.3      c0.3,0,0-0.3,0.2-0.5c0.3-0.1,0.3,0,0.5,0.2c0-0.7-0.5-0.2-0.5-0.8c0.1-0.2,0.2,0,0.2,0.1c0.5-0.4,0-0.5,0.8-0.3      c0-0.2,0-0.4-0.2-0.5c0.3-0.4,0.2,0.3,0.6,0c0.2-0.3,0-0.4,0-0.6c0.6,0.6,0.2-0.5,1.3,0.3c0.5-0.7-0.5-0.8-0.3-1.4      c0.5,0.4,0.5,0.4,1.1,0.4c0.1-0.2,0.1-0.4,0.2-0.5c-0.2,0.1-0.4,0.2-0.6,0.4c-0.2-0.1,0-0.4-0.2-0.5c0.2-0.1,0.5,0,0.6-0.4      c0.1,0.1,0.1,0.3,0.3,0.3c0.3,0,0-0.4,0.3-0.3c-0.5-0.1,0-0.6-0.1-0.9c0.5-0.4,0.6,0.5,0.3,0.9c0.3,0.1,0.7,0.1,0.9-0.1      c0-0.4-0.4-0.3-0.4,0c-0.5-0.3,0.3-0.3,0.3-0.7C72.4,5.8,72.4,6,72.6,6c0-0.2-0.1-0.4,0.1-0.4c0.1-0.2-0.3-0.3-0.5-0.4      c0.5-0.6,1.2-0.2,0-0.6C72.6,4,73.4,4.6,73.4,4C73.8,4,74,4.4,74.7,4.4c-0.2,1,0.9,1,1.1,2.1c0.1,0.6-0.9,0.3-0.5,0.7      C75,7,74.6,7.3,74.2,7.7c-0.4-0.1,0.1-0.9,0.4-0.5c0.2-0.6-0.9,0.2-0.4-0.6c-0.3-0.1-0.7-0.1-0.9,0.1c-0.1,0.1,0,0.2,0.1,0.3      c-1.1-0.4,1.6-1.6,1.1-0.2c1.9-0.6-0.4-1.2-0.4-2.3c-0.6-0.1,0.3,0.4-0.1,0.8c-0.1-0.1-0.3-0.3-0.2-0.5c-0.2,0-0.3,0.1-0.4,0      c0,0.2,0.1,0.2,0.2,0.1c-0.8,1.2-0.6,2.3,0.3,4.1c-0.4-0.2-0.4-0.6-0.7-0.9c-0.2,0-0.4,0.3-0.7,0.1c0.4,0.8-0.5,0.5,0,1.7      c-0.2,0.1-0.4-0.2-0.8,0.3c-0.1,0.5,0.4-0.1,0.5,0.4c-0.1,0.3-1.1,0-0.6,0.4c-0.3,0.1-0.8-0.1-0.9-0.4c-0.2-0.1-0.5,1.4-1,0.4      c-0.2,0.4-0.1,0.5-0.1,0.8c0.1-0.2,0.5-0.5,0.5,0.2c0.3,0,0-0.3,0.2-0.5c0.1,0.2,0.2,0.3,0.4,0.1c-0.2,0.7,0,0.9-0.1,1.9      c-0.3-0.2-0.4,0-0.3,0.1c0,0.1-1.1-0.2-0.3,0.3c-0.6,0.2-1.4-0.8-1.1-1.5c-0.3,0.1-0.7,0.9-0.9,1.3c-0.6-0.4,0.2-0.5,0.2-1.2      c-0.3,0-0.3,0.4-0.5,0.7c-0.6-0.4,0.2-0.5,0.2-1.2c-0.8,0.6-0.9,0.7-1.3,1.2c0.3-0.1,0.6,0,1,0.2c-0.4,0.2-0.1,0.2-0.3,0.7      c1,0.1,1.5-0.4,1.8-0.3c0.2,0.8,0,1.3-0.2,2c0.5,0,0.6-0.9,1.3-0.6c-1,0.6-0.4,3-0.8,1.6c-0.6,0.8-0.9,2-2.2,3.4      c0-0.1-0.4-1.4,0.3-1.8c-0.3,0-0.4,0.2-0.7,0.1c-0.4-0.4,0.6,0.1,0.2-0.5c-0.4,0-0.9-0.2-0.3-0.3c0.1-0.2-0.3-0.3-0.5-0.4      c0.1,0.8-0.1,0-0.3,0.3c-0.2-0.2,0.2-0.2,0.2-0.5c-0.4,0-0.6,0.7-0.9,0.1c1.1-0.1-0.5-0.8,0.9-0.7c0-0.2-0.1-0.4,0-0.6      c-0.8,0.4-0.7-0.4-1.3-0.3c0.2,0.2,0.3,0.3,0.8,0.7c-1,0.7,0.1,1.7-1,1.5c0,0.2,0.3,0.4,0.1,0.7c-0.1-0.1-0.1-0.3-0.3-0.3      c0,0.3,0.2,0.4,0.1,0.7c0.3-0.1,0.2-0.3,0.5-0.8c0.5,0.1,0.3,0.6,0.3,0.9c-0.3-0.2-1.1,0.1-0.8,0.3c-0.4,0.5-0.6-0.3-1,0.4      c-0.2-0.3,0.2-0.3-0.1-0.7c-0.4,0.2,0.1,1.2,0,1.7c-0.3,0.3-0.4,0.3-0.6,0c0,0.2,0.1,0.3,0,0.4c0.4,0.2,0.7-0.1,1.2,0.2      c-0.1,0.1-0.3,0.1-0.3,0.3c0.2,0,0.3-0.1,0.4,0c0-0.2,0-0.4-0.2-0.5c-0.3-0.5,0.9,0.4,1,0.6c0.2-0.9-0.7-0.4,0.2-1.2      c0.5,0.4-0.3,1.2,0.4,1c0.2,0.2-0.2,0.2-0.2,0.5c-0.3-0.5-0.6,0.3-1.2,0.8c0.5,0.3,0.6-0.4,0.9-0.7c0.6,0.8-0.5,0.9-1,1.5      c0.1-0.8-0.7-0.7-0.8-1.6c-0.4-0.1-0.2,1.4-0.7,0.6c-0.2,0.7,0.3,0.7,0.8,0.7c-0.3,0.9-0.3,0.1-0.8,0.3c0.5,0.6-0.3,1-0.2,1.6      c-0.4-0.1-0.5-0.4-0.3-0.8c-0.2,0-0.3,0.1-0.4,0c0.5,0.5,0.5,1.3,0.4,1.6c-0.4,0.6-0.6-0.3-1.1,0.2c-0.4-0.5,0.7-0.4,0.7-1.2      c-1.8,1.1-1,1,0.9,2c0-0.2-0.1-0.6-0.3-0.3c-0.5-0.4,0.4-0.4,0.5-0.7c0.5-0.2-0.5,0.7,0,1.1c0.3,0,0.6-0.3,0.7-0.8      c0.1-0.5-0.4,0.1-0.5-0.4c0.4-0.6,0.7,0.2,0.8,0.5c-0.2,0.6-1.3,0.8-1.2,1c-0.1,0.2-0.4,0-0.5,0.2c-0.4-0.1,0-0.6-0.3-0.8      c-0.3,0.5,0,1.4,0.3,1.8c-1.3,0.2-1.1,0.2-2.5,0.5c0.2,0.6,0.8,0.1,0.9,0.8c-0.4,0.4-0.5-0.5-1.1-0.4c0.7,0.9-1,0.6-0.6,1.5      c-0.2,0.3-0.3-0.3-0.4,0c-0.2-0.3,0.1-0.4,0.4-0.9c-0.6,0.7-0.5-0.7-1.1,0c-0.3-0.2,0.3-0.3,0-0.4c0.2-0.1,0.4,0.1,1,0.2      c-0.1-0.2-0.1-1.1,0.5-0.7c-0.3,0.1-0.3,0.5-0.1,0.8c0.2-0.3-0.1-1.3,1-1.1c-0.1-0.3-0.5-0.5-0.5-0.8c-0.5-0.1,0.1,0.4-0.4,0.5      c-0.1-0.2,0-0.5-0.4-0.6c0.7-0.4-0.3-0.1-0.6-0.7c0.3-0.6,1.1,0,1.1,0.4c1-0.1,0.1-1.9,0.9-1.3c0-0.8-0.3-0.6-1-0.6      c0.2,0.6,0.2,0.6-0.4,0.9c0.3,0.6-0.5-0.5,0.3-0.3c-0.1,0-0.7-0.7-0.8-0.5c0.7,0,2.9-1,3.7-1.9c-0.1-0.2-0.5-0.9,0.2-0.5      c0-0.4-0.3-0.2-0.5-0.2c-0.2,0.3,0.1,0.5-0.1,0.8c-0.3-0.7-0.8-0.4-0.9-1c-0.8,0.7-1.8,1-2.8,1.2c0,0.2,0.1,0.6,0.3,0.3      c0.2,0.2-0.1,0.2-0.1,0.4c-0.1,0.2,0.2,0.2,0.3,0.3c0.5,0,0.4-1.1,1.1-0.6c-0.5,0.8-1.4,0.5-2,1.8c-0.8-0.6-2.1-0.5-1.8,0.3      c0.2-0.1,0.4-0.8,1.2-0.4c-0.4,0.5-0.2,1.3-1,1.5c-0.2-0.2-0.3-0.4-0.1-0.7c-0.9-0.1,0.3,0.9-0.3,0.7c-0.1,0.6,0.4-0.2,0.6,0      c-0.1-0.1-0.8,1.1-1.3,1.2c-0.1,0.5,0.4-0.1,0.5,0.4c-0.2,0.3-0.7-0.1-0.9,0.1c-0.1,0.4,0.4,0.4,0.1,0.9c0.2,0,0.4-0.3,0.7-0.1      c0.2,0.5-0.3,0.8-0.7,0.8c0.7,0.3,1,1.6,0.7-0.1c0.5,0.4,0.7,0,0.8-0.5c0.2,0.1,0.3,0.1,0.4,0c-0.1,0.8,0.2,0.7,0.7,1.5      c0.2-0.6,0-0.5,0.7-0.8c-0.1-0.2-0.5-0.2-1-0.6c0.3-0.8,0.7,0.6,1.2,0.1c0.1-0.4-0.8,0-0.8-0.5c0.4-0.4,0.5,0.6,0.9-0.1      c0.2,0.6,0.3,1.9-0.1,2.3c-0.1-0.2,0-0.5-0.4-0.6c-0.2,0.5,0.3,0.7,0.4,1c-0.2,0.1-0.7-0.2-1.1,0.2c-0.4-0.2-0.2-0.7,0.1-0.8      c-0.4,0-0.9,0-1.3,0.1c-0.2,0.5,0.7-0.2,0.2,0.5c0.2-0.6,0.9-0.4,0.3,0.3c0.2,0.1,0.2-0.2,0.3-0.3c0.4,0.4-0.1,0.8-0.2,1.2      c0.7,0.2,0-0.7,0.8-0.3c-0.1,0.4-0.3,0.4-0.5,0.7c0.2,0,0.4,0,0.5-0.2c0.4,0.4-0.6,0.1-0.5,0.8c-0.5-0.4-0.5-0.1-0.8-0.5      c0.8-0.3,0.2-0.2-0.5-0.4c0.3-0.3,0.7-0.5,0.9-0.1c0-0.2-0.1-0.3,0-0.4c-1.4-0.1-1.3,1.1-0.8,2c0.4-1.6,1,2.2,0.1,0.3      c-0.2,0-0.3,0.1-0.4,0c0.2,0.5,0.6,1-0.4,0.9c0.7,0.2-0.2,0.4,0,1.1c-0.3,0.3-0.3-0.1-0.5-0.2c-0.1,0.3-0.1,0.5,0.1,0.7      c-0.2,0.3-0.5,0.3-0.9,0.1c-0.1-0.3,0-0.3,0.2-0.5c-1.1,0.1-1,0.9-1,1.5c0.4,0,0.7-0.6,1.2-0.4c-0.8,0.5-0.3,0.7-1.5,0.5      c-0.4,0.7-1.5,1.5-0.9,2.4c-0.3,0.4-0.9-0.2-0.3-0.3c-0.6-0.4-0.6,0.6,0,0.6c0,1-1.3,0.6-0.9,1.3c-0.2,0.4-0.8-0.2-1.2-0.2      c0,0.4,1.2,0.8,1.3,0.3c0.2,0.2-0.3,0.5-0.2,1c-0.2-0.1-0.5-0.2-0.7-0.3c0.2,0.5-0.1,0.2-0.3,0.7c1.3-0.5-0.2,0.8-0.6,0      c0.5-0.2,0.4,0,0.5-0.7c-0.5-0.1-1,0.2-1.5,0c-1.4-0.3-0.4-0.3-1.3,1.2c0.1,0.3,0.4,0.6,0.3,0.9c0.2,0,0.3-0.1,0.4,0      c0-0.2-0.1-0.2-0.2-0.1c-0.2-0.4,0.6-0.7-0.2-1.1c0.5,0.3,1.1-0.9,2-0.7c-0.1,0.3-0.5,0.3-0.2,0.5c-0.3,0-0.3,0.1-0.9,0.1      c0.1,1.3,0.3,2,1.8,1.8c0,0.2-0.1,0.1-0.3,0.1c-0.1,0.5,0.4-0.1,0.5,0.4c-0.3,0.3-0.6,0.4-1,0.4c-0.5-0.3,0.4-0.2,0.5-0.2      c0.2-0.5-1-0.1-0.3-0.3c-1-0.6-1.1-0.6-1.8-0.7c-0.1,0.3,0.2,0.5,0.6,0.7c-0.7,0.8-0.5-0.5-1.2-0.7c-0.2,0.3-1.4,0.8-0.7,0.1      c-0.7,0.1-0.6,0.7-0.7,1.2c0.4,0.1,0.4-0.4,0.9-0.1c-0.1-0.3,0-0.3,0.2-0.5c0.2,0.1,0.4,0.1,0.5,0.2c-0.1,0.2-0.3,0.1-0.4,0      c0,0.3,0.2,0.4,0.1,0.7C46,49,45.5,49,45.1,49.1c0,0.4,0.5,0.3,0,0.6c0.2,0.1,0.3,0.1,0.4,0c0.3,0.2-0.4,0.5,0.1,0.9      c-0.3,0.1-1.4,0-1.7-0.5c0.1,0.3-0.1,0.7,0.3,0.9c-0.6-0.2-0.3,0.8-0.8,1.4c0.2,0,0.3-0.8,1-0.4c-0.2,0.5-0.2,0.2-0.4,0      c-0.2,0.4,0.1,0.7,0.3,0.9c0.1-0.2,0.5-0.3,0.8-1c-0.2-0.1-0.3,0.3-0.4,0.5c-0.2-0.3-0.2-0.7,0.1-0.8c-0.5,0.1-0.3-0.2-1-0.2      c1.6-0.1,2.5-1.2,3.4-1.8c0-0.3-0.4,0-0.3-0.3c-0.2-0.1-0.3,0.3-0.4,0.5c0.1-0.2-0.6-0.9-0.3-0.3c-0.2,0.3-0.3-0.3-0.4,0      c0.2-0.8,1.6,0,1.9-0.5c0-0.3-0.1-0.5-0.4-0.6C47.1,47.9,48,49,48.7,49c0-0.3-0.4-0.3-0.7-0.5c0.3-0.6,1-0.3,1.5-0.5      c0-0.5,0.1-1.1-0.6-1.3c0.1-0.7,0.9-0.1,1.1-0.6c0.4,0.4-0.7,0.2-0.3,0.7c0.2,0.1,0.2-0.2,0.3-0.3c0.3,0.1,0.6,1.3-0.2,1      c0,0.2,0.1,0.3,0,0.4c0.6-0.3,1.2-0.1,1.5-0.5c0.2,0.2,0.4,0.5,0.6,0.7c-0.1,0.8-0.5,0.9-0.2,1.6c-0.1-0.1,0.9-1,0.2-1.2      c0.6-0.1,0.5-0.1,0.8-0.5c0.2,0.1,0.1,0.3,0,0.4c0.3,0,0.4-0.5,0.9-0.1c0-1.7,1.1-0.1,1.6-1.5c-0.3,0.2-0.8-1.7,0-1.5      c0-0.2-0.1-0.3,0-0.4c-0.5,0.1-0.5,0.3-0.5,0.8c-0.2-0.6-0.8-0.8-1.3-0.5c0,0.2,0.1,0.3,0,0.4c0.2,0,0.6-0.1,0.3-0.3      c1.9,0.5,0,1.7,0.3,1.8c-0.2,0.1-1.3,0.3-0.9-0.4c-0.7,0.1,0.4,0.9-0.4,1.1c-0.4-0.5,0.1-0.7-0.6-1.3c0,0.4,0.3,0.8,0.1,1.3      c-0.4-0.1-0.4-0.3-0.7-0.5c0.1-0.3,0.3-0.2,0.4-0.5c-0.5,0-0.9,0.2-1.5,0c0.1-0.6,0.6-0.8,0.8-0.3c0-0.2-0.1-0.4,0-0.6      c-0.7,0.3-0.6,0.2-0.9,0.1C50.2,46.2,51,46,51,45.8c0.2,0.2-0.2,0.2-0.2,0.5c0.7,0.1,0.7-1.4,1.7-0.6c0-0.2-0.1-0.3,0-0.4      c-0.3-0.2-0.4,0-0.6,0c-0.4,0.2,0.5-0.2,0.1-0.8c0.4,0.7,0.3-0.7,1.3-0.1c-0.3-0.5-0.2-0.6,0.2-1c0.5,0.6,0.5,1.1,0,1.5      c0.2,0,0.6-0.1,0.3-0.3c0.3-0.2,0.5-0.5,0.9-0.3c0.1-0.5,0.2-0.7,0.1-1.4c0.6,0.4,0.8,1.1,1.5,1c-0.4-0.3-0.6-0.5-1.3-0.9      c0.2-0.1,0.3-0.2,0.4-0.5c0.2,0.3,0.6,0.4,0.8,0.7c0.1-0.7-0.8-1.2-1.1-0.4c-0.3-0.3-0.3-0.4,0-0.6c-0.3-0.2-0.4,0-0.5,0.2      c-0.3-0.1,0.2-1.2-0.3-0.3c-0.4-0.7,1-0.5,0-1.1c1-0.2,1.2,0.7,1.2,1.1c0.2,0,0.2-0.1,0.1-0.2c0.1-0.2,0.4,0,0.6,0      c-0.7-0.4-0.7-1.2-1.4-1.2c0.9-0.3-0.2-1.3,0.3-1.3c0.5-0.3-0.2,0.1,0,0.4c0.5-0.4,0.5,0.2,1.1,0c-0.2-0.4,0.1-0.9-0.1-1.3      c0.2-0.2,0.5-0.2,0.9-0.1c-0.1-0.3-0.3-0.6-0.5-0.8c0-0.2,0.1-0.1,0.3-0.1c0.2-0.1,0,0.1,0.5,0.4c0.6-0.4,0.8-0.4,1.2,0.1      c0.2-0.4-0.2-0.5,0.2-1c0.7,0.2,1.1,0.3,1.1,1c-0.2,0-0.1-0.1-0.1-0.3c-0.8,0.7,0.1,1,0.1,1.3c0.5-0.4,0.8-1.8,1.6-1.5      c0.3-0.7-0.3-0.2-0.7-0.5c0.2-0.1,0.3-0.2,0.4-0.5c0.1,0.1,0.1,0.3,0.3,0.3c-0.3-0.5,0.3-1.4-0.2-1.7c-0.2,0-0.3,0.1-0.4,0      c0,1,0.3,0.4,0.3,1.4c-0.7-0.4-0.5-0.4-1.3-0.5c0,0.2,0.6,0.8,0.7,0.5c0.2,0.4-0.2,0.6-0.4,0.9c-0.1-0.2-0.4-0.5-0.5-0.2      c-0.2-0.6,0.5-0.9-0.3-1.4c0.2-0.2,0.5-0.4,0.7-0.6c0.2,0.3,0.1,0.7,0.5,0.2c-0.7-0.7,2-1.9,0.8-2.6c0.1-0.2,0.4,0,0.5-0.2      c0.2,0.4,0.4,0.7,0.4,1.2c0.3-0.1,0.8,0,0.7,0.5c0.6,0-0.4-0.6,0.3-0.7c-0.7-0.1-0.7-0.5-1-0.8c0.3-0.5,0.2,0.4,0.5,0.4      c-0.3-0.8,0.5-0.3,0.6-1c-0.1-0.2-0.2-0.4-0.4-0.6c-0.6,0.1,0.7-0.3,0.7,0.3c0.2-0.1,0.4-0.2,0.6-0.4c-0.2-0.1-0.7-0.7,0-1.1      c0.4,0.3-0.3,0.2,0,0.6c0.5-0.4,1.1-1.4,1.1-1.7c0.5-0.5,0.3,0.6,0.8,0.5c0.2-0.3,0-0.4-0.1-0.3c-0.5-0.3,0.3-0.3,0.3-0.7      c0.7,0.6-0.1,0.9,0.1,1.3c-0.4,0.3-0.8-0.6-1.2-0.1c0.2,0.1,1.1,0.5,1.8,0.3c-0.7-0.3,0-1.2-0.6-2.3c0.1-0.5,0.6,0.9,0.4,0.1      c0.3-0.3,0.6,0.9,1.2,0.2c0.3-0.4-1.1,0.2-0.6-0.7c0.2,0.5,0.6,0.1,1.1,0.4c-0.6,0.9-0.8,1.3-1.2,2.5c0.6-0.3,0.4-1.2,1.3-1.2      c-0.3-0.6,0.6-2.3-0.2-1.6c0-1.3,1,0,1.7-0.2c0.2,0.1,0,0.4-0.1,0.4c-0.2,0.5,0.6,0.3,0.7,0.3c0-0.2-0.1-0.2-0.2-0.1      c-0.2-0.1,0-0.4,0-0.6c-0.2-0.2-0.3-0.3-0.8-0.7c0.1,0.2,0.2,0.4,0.4,0.6c-0.4,0.2-0.6-0.2-0.9-0.4c0.6-0.7,0.6-1,1-0.9      c-0.1,0.9,0.8,0.7,0.5,1.5c0.2,0,0.3-0.1,0.4,0c-0.1-1-1.4-1.6-0.8-3.3c0.1,0.2,0.2,0.3,0.4,0.1c0.3,0.4-0.5,0.5-0.2,1.2      c0.4,0.2,0.7-0.1,1.2,0.2c0.1-0.4-1.1-0.4-0.3-0.8c-0.7-0.2,0,0.7-0.8,0.3c0.5-1,1.9,0.1,2.2-1.2c-0.5-0.2-0.7,0-0.8,0.5      c-0.7,0.2-0.7-0.7-1.1-0.4c-0.2-0.2,0.9-1.9,1.2-1c-0.2-1,1.3-0.5,1.8-1c0.1-0.3-0.6-0.4-0.6-0.7c0.3-0.3,0.9,0.2,1.1-0.2      c0.2,0.2,0.2,0.4,0.4,0.6c0.1-0.6,0.1-1.1,0.3-1.3c0.5-0.6,1.1,0,1.5,0c0.1-0.6,0-0.4,0.4-0.9c0.4,0.7,0.9-0.5,1.6-0.2      c0.4-0.3-0.2-0.9,0.3-0.7c0-0.3-0.3-0.5-0.6-0.7c0.5-0.2,0.9,0.3,0.5-0.8c0.2-0.3,0.7,0.1,0.8-0.3c0.1,0.1,0.3,0.3,0.2,0.5      c0.4,0,0.6-0.7,0.9-0.1c0.2-0.4,0.2-0.7,0.2-1c-0.5-0.2,0.2,0.9-0.6,0.4c0.1-0.4,0.3-0.7,0.4-1.1c0.6,0.1,0.3,0.7,0.4,1      c0.2-0.3,0.3-1.4,1.3-1.2c-0.1,0.2-0.1,0.3,0,0.4c-0.1,0.5-0.7-0.1-0.9,0.3c0.8,0.4,1.5-0.2,2.3-0.6c-0.1,0.1-0.3,0.1-0.3,0.3      c-0.1,0.6,0.2,0.3,0.7,0.5c-0.1,0.3-0.6,0.7-0.1,0.4c0.3,0.8-1.1,0.7-1.3,1.6c0.1-0.1,1,0.1,0.5-0.2c0.2-0.4,1.2,0.3,0.5,0.4      c0.3,0.2,0.5-0.1,0.8,0.1c0.1-0.4-0.4-0.4-0.1-0.9c-0.3,0-0.4,0.5-0.9,0.1c0.9-1,1,0.7,1.3,0.3c0.1,0.4-0.3,0.7-0.3,1.3      c0.5-0.3,0.5,1.1-0.2,1.6c0.1-0.4,0.3-0.4,0.5-0.7c-1.4,0.4-0.3,1.4-1.5,1.1c-0.2-0.2-0.3-0.4-0.1-0.7c-0.8,0.1,0.1,0.6-0.2,1      c0.7-0.4,0.7,0.4,1,0.6c0.6,0.3-0.6,0.4,0,0.6c-0.1,0.2-1,0.3-1-0.2c-0.3-0.5,0.1,0.2,0.5,0.2c0.2-0.4-0.2-0.5,0.2-1      c-0.8,0.3-1.2-0.2-1.1-1c-0.8-0.3-1.3,0.3-1.2-0.7c-0.5-0.1,0.1,0.4-0.3,0.7c0.5,0.2,0.5-0.2,0.7,0.3c-0.6,0.5-0.3,0.7-0.4,1.5      c-0.2-0.2-0.2-0.4-0.4-0.6c-0.2,1.1-0.2,2.2,0,3.2c0.7-0.2,0.7,0.7,0.2,0.5c0.1,0.7,1.2-0.4,0.8,0.7c-0.5-0.4-0.6,0.1-1-0.2      c0.3-0.7,0.1-1.1-0.6-1.7c0.3-1.3,0-1.1-0.1-2.4c-0.6-0.3-0.9,0.2-1.3,0.6c0.5,0.2,0.7,0,0.8-0.5c0.9,0.1-0.1,1,0.4,0.6      c0.3,0.2-0.6,0.6,0.1,0.9c-0.3,0.4-1-0.5-0.4-0.6c-0.2,0-0.4,0.1-0.6,0c0,0.2,0.1,0.4,0,0.6c-0.5,0.6,0.2-0.5-0.2-0.5      c-0.2,0-0.2,0.9-0.7,0.1c0.3,0.7-0.4,0.5-0.6,1c1-0.6,0,0.8-0.4-0.1c0.3,1.6-0.4,1.1,0.4,2.1c-0.1,0.3-0.3,0.4-0.6,0.4      c0.3,0.3,0.7,0.5-0.1,0.4c-0.3,0.6,0.1,0.9,0,1.5c-0.4-0.1,0-0.6-0.6-0.7c-0.2,0.5,0,0.8,0.4,1c-1.2,0.2-0.2,1.3-1.6,1.3      c0-0.2,0.1-0.1,0.3-0.1c0-0.2-0.4-0.8-0.5-0.4c-0.2-0.2,0-0.5,0.1-0.8c0.1,0.2,0.2,0.3,0.5,0.4c-0.2-0.6-0.1-1.3-0.8-1.6      c-0.1,0.3,0.1,0.5,0.6,0.7c-0.1,0.2-0.1,0.4-0.2,0.5c-0.5-0.2-1.3-0.4-0.6-0.7c-0.5,0.1-1,0.9-1.4-0.1c-0.3,0.1-0.1,0.9-0.4,0      c-0.2,0-0.3,0.3-0.5,0.2c0.5,0.7,1.8,0.4,2.5,0.6c0.4,0.2-0.5,0.4,0.1,0.7c-0.4,0.6-0.5-0.3-1.1,0c0,0.2,0,0.4,0.2,0.5      c-0.2,0.2-0.2-0.2-0.5-0.2c0.4,0.6-0.8,1.1-0.1,1.4c0.2,0,0.2-0.1,0.1-0.2c0.2-0.5,0.3,0.6,0.5-0.2c0.2,0.6-0.5,0.9-0.5,1.7      c-0.6-0.3-0.9,0.3-1.5,0c0-0.3-0.2-0.4-0.1-0.7c-0.5-0.3-0.7,0.1-0.9-0.4c0,0.2,0.1,0.4,0,0.6c0.7-0.9,0.5,2.3-0.2,1.2      c0,0.2,0.1,0.3,0,0.4c0.5-0.1,0.5-0.3,1,0.2c0-0.4,0-0.9-0.4-1.2c0.5-0.1,1.1,1.6,0.4,2.1c1-0.6-1.1,1.4-0.2,2.2      c0.2,0,0.3-0.1,0.4,0c0.2-0.5-0.7-0.4-0.3-0.9c0.7-0.4,0.6,0,0.8-0.9c0.6,0.4,0.4,0.2,1,0.6c-0.2,0.2-0.5,0.3-0.8,0.3      c-0.2,0.5,1.3,0.2,0.7,0.9c0.3-0.3,0.7-0.8-0.1-0.7c0.2-0.1,0.3-0.5,0.6-0.4c-0.6-1.1,0.1-0.9-0.3-1.8c0.7,0.3,0.8,0,1.3,0.5      c0.1-0.5-0.2-1.6,0.7-1.2c-0.1-0.5,0.2-1.2-0.5-1.5c0.4-0.3,0.6-0.9,1.2-0.8c0.1-0.3-0.2-0.5-0.6-0.7c0.2-0.6,1-0.1,1.3-0.6      c0.2-0.7-0.6,1.3,0.3,0.9c0.2,0.2-0.2,0.2-0.2,0.5c-0.3-0.1-0.2-0.3-0.5-0.4c-0.1,0.2-0.1,0.4-0.2,0.5c0.1,0.1,0.2,0,0.3-0.1      c0.2,0.1,0,0.2-0.1,0.2c-0.1,0.6,0.6,0.1,0.9,0.4c0-0.2-0.3-0.3-0.4-0.1c-0.3-0.3,0.6-1,1.1-0.6c-0.7,0.2-0.5,0.8-0.1,1.2      c-0.1-1-0.1-0.7,0.6-1c0-0.2-0.1-0.6-0.3-0.3c-0.1-0.8,2,0.4,2.2,0.9c-0.1,0.1-0.7,0.5-0.3,0.7c-0.1,0.2-0.2,0-0.2-0.1      c-0.2-0.1-0.2,0.2-0.3,0.3c-0.3-0.3,0.1-0.3,0.2-0.5c0.1-0.2-0.3-0.3-0.5-0.4c-0.1,1.1-0.2,0.1-0.5-0.2      c-0.3,0.7,0.4,0.9,0.5,1.5c-0.4,0.2-0.7,0.7-1.2,0.8c-0.1,0.6,0.4-0.3,0.8,0.1c-0.3,0-0.5,0.5-0.9,0.3c-0.4-0.4,0.5-0.4,0.1-0.8      c0.4,0,0.5-0.4,0.8-0.5c0-0.3-0.5-0.1-0.8-0.5c-0.8-0.2-0.4,0.7-1,0.4c0.4,0.5,0.4,1.2-0.3,1.3c0,0.3,0.3,0.1,0.4,0      c0.2,0.3,0.2,0.6,0,1.1c-0.3-0.2-0.4,0-0.3,0.1c-0.5-0.1-1.1,0.2-1.1-0.4c-0.2,0-0.6,1.2-1,0.4c0.6-0.1,0.2-0.3,0.7-0.6      c0.1-0.2-0.3-0.3-0.5-0.4c0.1,0.2,0,0.5-0.1,0.8c-0.2-0.2-0.2-0.4-0.4-0.6c0.1,0.5,0.3,0.5-0.2,1c0.5-0.4,0.9,0.5,1.5,0.6      c-0.5,0.1-0.5,0.5-0.1,0.8c-0.2,0.5-1,0.1-1.2-0.2c-0.4,0.7-0.4,0.4-1.3,0.7c-0.2,0.5,1.1,0.2,0.5,0.8c-0.8-0.7-0.2,0.2-1.1,0      c0,0.9,0.5,1,0.7,1.5c-0.5-0.5-0.7,0-1.3-0.3c0.3,0.3,0.6,0.3,0.9,1c-0.6,0.5-0.8,0.1-1.6-0.2c0.7-0.7-0.1-1.7,1.3-1.2      c0-0.2-0.1-0.3,0-0.4c-0.4,0-0.8,0.3-1-0.2c-0.3,1.1-1.3,0.9-1.4,1.4c0.6,0.3,0.7,0,0.4,0.6c0.3,0.2,0.5-0.1,0.8,0.1      c0,0.2,0.1,0.4,0,0.6c-0.2-0.1-0.1-0.3,0-0.4c-0.5,0.1-0.4,1-0.9,0.3c0,0.6,0.1,1.2,0.7,1.5c-0.3,0.5-0.3-0.3-0.7-0.3      c-0.1,0.2,0.2,0.2,0.3,0.3c-0.6,0.1-1.2,0.1-1.7,0.6c-0.3,0.5,0.4,0.7-0.2,1c0.2,0,0.4,0,0.5-0.2c0.3,0.2-0.4,0.5,0.1,0.9      c-0.3-0.2-0.9,0.3-0.9-0.4c-0.3-0.1-0.3,0.9,0,1.1c-0.2,0.3-0.6-0.4-0.8-0.5c-0.6-0.1,0.3,0.4-0.1,0.8c-0.4,0-0.7-0.3-1.4-0.1      c0,0.2,0.1,0.3,0,0.4c0.2-0.1,1.2-0.7,0.8,0.1c0.3-0.1,0.6-0.3,0.8-0.5c0.2,0.2,0.4,0.5,0.6,0.7c-0.2,0.4-0.4-0.4-0.7-0.5      c0,0.2,0,0.4,0.2,0.5c-0.3,0.2-0.7,0-1.1,0c-0.4,0.1-1,0.8-0.4,1.1c0.5-0.4-0.3,0.5-0.4-0.1c-0.2,0.5,0.2,0.5-0.3,0.7      c-0.9-0.5-0.6-0.1-1,0.4c-0.2-0.2-0.3-0.4-0.1-0.7c-0.4,0-0.3,0.5-0.6,0c-0.2,0.5,0,0.7,0.5,0.8c-0.5,0.2,0,0.6-0.5,0.8      c-0.2-0.1,0-0.2,0.1-0.2c0-0.3-0.4,0-0.3-0.3c-0.1,0.2-0.9,1.3-1.3,0.6c0.1,0.3,0,0.3-0.2,0.5c-0.1,0.2,0.2,0.2,0.3,0.3      c0.2,0,0.2-0.1,0.1-0.2c0.1-0.5,0.8,0.1,0.8-0.5c0.1,1,0.4,0.4,1.3,0.9c0-0.2-0.3-0.4-0.1-0.7c0.5-0.1,0.5,0.7,0.7,0.3      c0.3,0.3,0.3,0.7,0.2,1.1c-0.5-0.2-0.4-0.7-0.1-0.9c-0.3,0-0.4,0.2-0.7,0.1c0.4,0.5-0.5,1.3,0.2,1.1c0.2,0.2-0.2,0.2-0.2,0.5      c-0.2-0.1-0.1-0.3,0-0.4c-0.4-0.1-0.4,0.4-0.9,0.1c0.3-0.2,0.5-0.7,0.9-0.7c0-0.2-0.1-0.3,0-0.4c-0.5-0.4-0.7,0.1-1.2-0.2      c0,0.3-0.6,0.9-0.2,1c-0.2,0.4-0.4-0.4-0.7-0.5c0,0.4,0.1,0.8,0.7,0.9c-0.9,0.7-1.4-0.7-2.3-0.7c0.1-0.4,0.6,0,0.8-0.3      c0.1-0.4-0.7-0.1-1-0.2c0.2,0.6,0.1,0.5-0.2,1.2c-0.1-0.1-0.3-0.3-0.2-0.5c-0.2,0-0.3,0.1-0.4,0c0.3,0.2,0.3,0.6,1,0.6      c0-0.2-0.1-0.4,0-0.6c0.1,0.3,0.6,0.5,0.8,0.1c0.2,0.5-0.8,0.6-0.4,0.9c-0.1,0.4-0.6,0-0.8,0.3c-0.2-0.2,0.2-0.2,0.2-0.5      c-0.2,0-0.4,0.1-0.6,0c0.1,0.2-0.1,0.5,0.1,0.7c-0.4,0.5-0.7-0.3-1.1,0c-0.2,0.5,0.7-0.2,0.2,0.5c0.2,0,0.5-0.4,0.4,0      c0.8-0.5,1.7-0.2,1.9-1.1c0.4,0.1,0.1,0.5,0.4,0.6c-0.8,0.5-1.9,0.4-2.6,1.3c-0.4-0.2-0.2-0.6-0.5-0.8C59.2,54,59,54.2,58.7,54      c1,1.2-0.8,1.7-1.5,0.5c0,0.4,0.5,0.6,0.7,0.9c0.6,0.2,0.9-0.4,1.6-0.2c-0.1-0.4-0.5,0.1,0-0.6c0.3,0.3,0.5,0.7,0.1,1.3      c-0.3,0-0.6,0.1-0.9,0.1c0.7,0,0.4,0.4,1.3,0.9c-0.7,0.3,0.6,0.7-0.2,1c-0.4-0.2-0.2-0.6-0.3-0.9c-0.4,0-0.3,0.5-0.6,0      c-0.3,0.5,0.1,0.8-0.3,1.3c-0.2-0.1-0.1-0.3,0-0.4c-0.4-0.1-0.4,0.4-0.9,0.1c0.1-0.2,0.1-0.4,0.2-0.5c-0.5,0.2-0.6-0.3-0.8-0.5      c0.2,0.7-0.2,0.6,0.2,1.1c0.1-0.8,0.3,0.2-0.4,0.5c-0.6-0.7-0.6,0.1-1.2-0.1c0.1-0.2,0.1-0.4,0.2-0.5c-0.6-0.1-0.1,0.6-0.4,0.9      c0.8-0.2-0.1,0.3,0.1,0.7c0.7,0.1,0.2-0.4,0.6-1c0.2,0.3,0.4,0.4,0.6,0c0,0.5-0.2,0.7,0.1,1.3c0.6,0.2,0.7-0.8,1.4-0.3      c-0.5,0.7-1.2,1.1-1.2,2c-0.7-0.3-0.3-0.8,0.1-1.2c-0.6-0.1-0.6,1.2-1.3,0.7c0.4-0.5-0.1-0.6,0.2-1c0.4,0.3,0.4-0.2,0.7-0.1      c-0.1-0.2-0.5-0.4-0.9-0.4c-0.2,0.3,0.1,0.5-0.1,0.8c-0.4-0.3-0.2-0.9-0.3-1.4c-0.5-0.2-0.8,0.2-1.2,0.4      c0.3,0.7,0.5-0.2,0.8-0.3c0.6,0.3,0.1,1,0.3,1.4c-0.4,0.3-0.4-1-0.5,0.2c-0.9-0.7-0.6-0.2-0.9-0.8c-0.8,0.3,0.3,1.1,0.5,1.5      c-0.5,0.3,0,0.8-0.7,0.6c0.7,0.2,0.4,0.5,1,0.2c-0.6-0.7,0.5-0.3,0.8-0.9c0.8,0.3,0.9,0.7,0.4,1.2c-0.3-0.1-0.2-0.3-0.5-0.4      c-0.2,0-0.3,0.3-0.5,0.2c0.2,0.4,0.2,0.9,0,1.1c-0.2,0.4,0.1-0.8-0.6,0c-0.2-0.2,0.2-0.2,0.2-0.5c-0.4,0.1-1,0.3-0.9-0.4      c-0.7,0.4,0.2,0.9-0.5,1.3c-0.2-0.1-0.1-0.3,0-0.4c-0.2,0-0.3,0.1-0.4,0c0,0.7,0.8,0.2,0.7,0.9c0.4-0.1-0.2-0.7,0.5-0.8      c-0.5,0.1-0.5,0-0.1-0.3c0.6,0.2-0.3,1.1,0.6,1.3c-0.3,0.1-0.3,0.6-0.8,0.3c0.2-0.1,0.3-0.2,0.4-0.5c-0.6,0.4-1.1-0.6-1.6,0.4      c0.2,0.8,0.8,0.7,1.2,1.1c-0.3,0.5-1.1-0.3-0.7,0.1c-0.3,0.4-1.1-0.8-0.5-0.8c-0.4,0-0.7,0.2-1.1,0.2c0.7,0.5-0.2,0.8,0.3,1.4      c-0.1,0.4-0.6,0-0.8,0.3c0.5,0.3-0.1,0.2,0.4,0.6c-0.1,0.3-0.4,0.3-0.5,0.7c-0.1-0.8-0.3-0.2-0.7,0.1c-0.3,0.3,1,0.5,0.2,0.5      c0,0.2,0.3,0.3,0.4,0.1c0.3,0.2,0.3,0.5,0.1,0.9c-0.1-0.5-0.3-0.6-0.7-0.3c-0.1,0.5,0.5,0.6,0.2,1.1c-0.9-0.7-0.1-0.7-0.2-1.6      c-0.6,0.4-0.4,0.5-0.5-0.2c-0.7,0,0.1,1.2-0.8,0.9c-0.2,0.3,0.7,0.3,0.7-0.1c0.3,0.4-0.5,0.7-0.2,1c-0.3,0.1-0.7-0.3-0.7,0.6      c-0.4-1-1.3,1.2-0.5,0.2c0.3,0.7-0.9,0.1-0.7,1.2c-0.3-0.2,0.1-0.7-0.3-0.8c-0.2,0-0.3,0.1-0.4,0c0,1,0.3,0.4,0.3,1.4      c-0.4-0.4-0.6-0.4-1.1-0.4c0.7,0.7,0.3,0.5,0.6,1.3c-0.4,0.5-0.5,0-0.7-0.3c0,0.4-0.6,0.5-0.2,1c0.5,0-0.3,0.1-0.6,0      c0.1,0.3,0.3,0.6,0.5,0.8c0.3-0.8,0,0.8-0.9,0.7c0.5,0.3-0.3,0.7-0.6,1.5c-0.4-0.6,0.7-2.9,0.9-1.8c0.6,0.1-0.2-0.4,0-0.6      c-0.5-0.3-0.7,0.4-1-0.2c0,0.4,0,0.8-0.1,1.2c-0.3-0.3-0.5-0.7-0.1-0.9c-0.6-0.1-0.3,0.2-0.5,0.7c-0.1,0.3,0.6,0.4,0.6,0.7      c-0.4,0.1-0.6,0.7-1,0.9c0.1,0.4,0.2,0.8,0.4,1.2c-0.2,0.1-0.5,0-0.6,0.4c-0.2-0.2-0.2-0.4-0.4-0.6c-0.1,0.5,0.3,1.2-0.4,1.5      c-0.4-0.5-0.2-0.7-0.9-0.8c0.2-0.1,0.3-0.2,0.4-0.5c0.3,0.2,0.3,0.6,0.8,0.7c0.1-0.7-0.8-1.2-1.1-0.4c-0.3-0.3-0.3-0.4,0-0.6      c-1-0.3,0.2,1-0.8,1c-0.1,0.5,0.4-0.1,0.5,0.4c-0.2,0.1-0.4,0.3-0.5,0.7c-0.4-0.6-0.5,0.4-0.9,0.7c0.5-0.4,1.8-0.8,1.4-2      c0.3,0.3,0.6,0.7,0.9,1c-0.2,0.2-0.5,0.2-0.9,0.1c-0.2,0.5,0,0.7,0.5,0.8c-0.2,0.3-0.6,0.3-0.7,0.8c-0.1,0.1,0,0.2,0.1,0.3      c-0.4,0.5-0.1-0.5-0.7-0.5c0.1-0.4,0.3-0.4,0.5-0.7c-0.6-0.3-0.5,1.1-1.2,0.8c0,0.3,0.9,0.9-0.2,1c0,0.2,0.1,0.3,0,0.4      c0.5,0.4,0.6-0.3,0.9-0.3c0-0.4-0.2-0.7-0.4-1c0.3-0.3,0.8,1,0.6,0.7c-0.1,0.2,0.2,0.2,0.3,0.3c-0.2,0.2-1.2,0.4-0.9,0.7      c-0.3,0.4-1.2,0.4-1.4-0.1c0.3-0.3,0.3,0.1,0.5,0.2c0.2,0,0.3-0.1,0.4,0c-0.5-0.2-0.5-0.7-0.7-1.3c-0.6,0.5,0,1-0.4,2.1      c-0.5-0.1-0.5-0.5-0.5-0.8c-0.2,0-0.4,0.1-0.6,0c0,0.2,0.1,0.4,0,0.6c0.7-0.6,1.1,0.6,0.5,1.5c-0.2,0.1-0.5,0-0.8-0.1      c0.1-0.2,0.4,0,0.6,0c-0.3-0.5-0.9-0.6-0.2-1.1c-0.6,0.1-0.9,0.7-1.5,0.7c0,0.2,0.1,0.4,0,0.6c0.7-0.2,1.1-0.1,0.5,0.8      c0.5,0,0.5-1.1,1.3-0.6c-0.5,0.1-0.7,0.8-1.3,0.7c-0.7,1.1,1.2,0.8,0.2,1.6c0.3,0.1,1.1-0.5,0.7-0.8c0.3-0.5,0.3,0.3,0.7,0.3      c-0.3-0.5-0.1-0.3,0.2-1c-0.9,0.4,0.2-0.6,0.1-1.4c0.3,0.1,0.7,0.1,0.9-0.1c-0.1-0.3-0.6-0.1-0.1-0.9c0.4,0.6,1.1,0.3,1.2-0.8      c0.3,0.4,1,0.7,1.4-0.3c0.1-0.5-0.4,0.1-0.5-0.4c0.4-0.2,0.7-0.2,0-0.4c0.4-0.5,0.4-0.1,0.8,0.1c-0.2-0.5,0.2-0.3,0.6-0.4      c0.1-0.4-0.4-0.6-0.3-0.9c-0.4-0.2-0.2,0.9-0.8,0.3c0.2-0.8,0.9-0.1,1.2-0.8c0.4-0.5,0.1,0.4,0,0.6c0.2,0,0.4-0.3,0.7-0.1      c0.1-0.3,0.2-0.6,0.4-0.9c-0.3-0.2-0.4,0-0.5,0.2c-0.2-0.1,0-0.4,0-0.6c0.7-0.1,0.5,1,0.8,0.5c-0.1,0.2-0.3,0.7-0.7,1.2      c1.2,0.4,0.2-1.3,1.4-0.9c0.2-0.6-0.2-0.9-0.6-1.3c0.2-1,0.8-0.7,0.1-1.4c0.5-0.4,0.8,0,1.1,0.4c-1.1,0.2,0.4,0.7-0.9,0.7      c-0.1,0.2,0.2,0.2,0.3,0.3c0.9-0.3,0.6-1.2,1.5-1.1c-0.2,0.3-0.7,0.1-0.5,0.7c0.4-0.3,1-0.1,1.4-0.3c-0.1-0.3-0.4-0.1-0.6-0.7      c-0.1,0.9-0.4-1.3-1.2-1.1c0.7,0.2,1.4-0.7,1.9,0.1c0.3-0.5-0.4-0.9,0.2-1.2c-0.2-0.1-0.3-0.1-0.4,0c-0.7-0.5,0.8-0.2,0.2-0.5      c0.2-0.5,0.3,0.6,0.5-0.2c0.3,0.3,0.3,0.4,0,0.6c0.5,0.4,0.6-0.3,0.9-0.3c-0.5-0.5,0.2-0.8,0.1-1.2c0.8-0.2,0.5-0.6,1.2-1      c0.5,0.4,0,0.5-0.3,0.7c0.4,0,0.7-0.2,1-0.4c0-0.3-0.2-0.1-0.3,0.1c-0.8-0.5,0.5-0.5,0.1-0.8c1-0.2,1.2-0.4,1.6-1.5      c-0.6-0.3-0.5,0.9-1,0.9c-0.7,0.5,1-0.9-0.3-0.9c0.7,0.1,1.1-1.7,1.2-0.4c0.3,0,0.4-0.2,0.7-0.1c0-0.3-0.3-0.1-0.4,0      c0-0.3,0-1.4,0.5-1.9c0.3,0.3-0.1,0.3-0.2,0.5c0.3,0,0.4-0.2,0.7-0.1c0-0.2,0-0.4-0.2-0.5c0.3-0.2,0.4,0.1,0.9,0.4      c-0.8,0.2-0.2,0.4,0.1,0.7c0.2-0.5-0.2-0.8-0.4-1.2c0.6,0.1,0.2-0.1,0.1-0.8c0.1-0.5,0.5-0.5,0.8-0.5c0.1-0.5-0.4,0.1-0.5-0.4      c0.3-0.4,0.4-0.6,1-0.9c0.2,0.3-0.1,0.8-0.7,0.8c0.3,0.1,0.5,0.7,1.1,1c0-0.2-0.3-0.4-0.1-0.7c0.3,0.1,0.5,0.1,0.7-0.1      c-0.1,0.4-0.5,0.7,0,1.5c0.2,0,0.3-0.1,0.4,0c-0.2-0.2-0.1-0.3-0.6-0.7c0.3,0,0.3-0.9,0.8-0.5c-0.3-0.7-1.4-0.1-0.4-1      c-0.2,0.1-0.4,0.2-0.6,0.4c-0.2-0.2,0-0.5,0.1-0.8c1.3,0.2,0.7-0.6,0.2-1c0.4-0.1,0.6-0.4,0.5-0.7c0.2-0.3,0.3,0.3,0.4,0      c0.2,0.5-0.4,0.4-0.5,0.8c0.6,0.4,0.7-0.1,1.1-0.2c-0.1,0.3-0.6,0.7-0.9,1.3c0.5-0.2,1.1-0.1,1.6-0.2c0.5,0.4-0.3,0.6,0.4,1      c-0.4,0.5-0.1,0.5-0.5,0.8c0.7,0.1,0.2-0.4,0.7-0.6c0.1,0.3,0.6,0.5,0.9,0.4c-1.3-0.2-0.7-2.5-2.1-2.1c-0.6-0.2,1.1-0.5,0.1-0.8      c0.2-0.5,0.5-0.6,1-0.4c-0.2,0.5-0.2,0.2-0.4,0c0,0.2,0.1,0.3,0,0.4c1,0.4,0.8-1.1,1.6-0.2c-0.1-0.4,0.2-1-0.1-1.3      c-0.7,0,0.2,0.6-0.2,1c-1,0.1-1.7-1.2-2.1,0c-0.2-0.1,0-0.4-0.2-0.5c0.1-0.2,0.9,0,0.1-0.4c0.2-0.1,0.6-0.1,0.3-0.3      c0.6-0.2,1.8-0.5,2.4-0.3c0.1,0.3,0.2,0.5,0.3,0.8c0-0.3,0.4-0.9,0.9-0.3c0-1,1.7-0.7,0.4-0.9c0-0.8,0.6-0.2,0.8-0.5      c-0.4-0.2-0.6-0.8-1.2-0.7c0.9-0.2,0.3-0.7,1.7-0.6c0-0.2-0.3-0.3-0.4-0.1c-0.2-0.2,0.1-0.3,0.3-0.3c0-0.4-0.2-0.7-0.4-1      c-0.4,0.3-1.1,0.7-0.6,1c-0.1,0.2-0.4,0-0.6,0c0.6-0.6,0.8-0.8,0.9-1.8c0.1,0.2,0.3,0.4,0.7,0.5c-0.2-0.4-0.4-0.8-0.6-1.3      c-0.2-0.6,0.5,0.3,0.4,0.6c0.5,0.4,0.5-0.5,1.1,0c0.2-0.6-0.4-1.4,0.6-1c-0.1,0.3-0.4,0.3-0.5,0.7c0.5,0,0.6-0.8,1.1-0.6      c0-0.2-0.1-0.2-0.2-0.1c-0.3-0.2,0.1-0.7-0.3-0.8c0.1-0.4,0.6,0,0.8-0.3c0.3,0.4-0.1,1,0,1.5c0.4,0.3-0.2-1.1,0.7-0.6      c-0.2-0.2,0.2-0.7-0.1-0.9c0.3,0.3,0.8-0.5,1.1,0c-0.1-0.8-0.7-0.8,0.5-0.8c0-0.2-0.1-0.3,0-0.4c-0.4,0.2-0.7,0.4-1.1,0.6      c-0.5-0.6,0.6-0.2,0.7-0.6c0-0.3-0.4,0-0.3-0.3c-0.4-0.5,0.7,0.4,1.1,0c0.5,0.1-0.5,0.8,0.1,0.9c-0.2,0.2-0.5,0-0.8-0.1      c0.2,0.4,0.6,0.6,0.1,1.3c0.5,0.1,0.5-0.4,0.3-0.7c0.2-0.3,0.5,0.1,0.3,0.3c0.3,0,0.4-0.2,0.7-0.1c0.5-1.1-0.6-1.3,0-2.1      c0.1,0.2-0.3,0.6,0.4,0.1c0-0.4-0.5-0.7-0.8-0.5c-0.4-0.5,0.9,0.1,1-0.4c0.2,0.2-0.2,0.2-0.2,0.5c1.1-0.6,0.4-0.3,1.7,0      c-0.2,0.1-0.3,0.2-0.1,0.4c-0.2,0.1-0.4,0.1-0.7,0.1c0.1,0.4,1.5-0.2,1.1,0.9c0.7,0,0.6-0.2,0.8-0.9c-0.5,0.2-0.6-0.1-0.9,0.1      c-0.5-0.5,0.7-0.3,0.9-0.3c0-0.6-0.7,0-1.1-0.4c0.1-0.5,0.5-0.2,0.7-0.6c-0.7-0.3-0.8,0.7-1.5,0.5c0.4-0.9,0.2-0.3,0.2-1.2      c0.2-0.1,0.3-0.2,0.4-0.5c0.2,0.2,0.4,0.5,0.6,0.7c-0.1-0.3,0-0.7-0.5-0.8c0.2-0.1,0.4-0.1,0.7-0.1c-0.3-0.3-1-0.2-1.5-0.4      c0.2-0.3,0.8,0.1,0.8-0.5c0.1,0.2,0.6,0.9,0.3,0.3c1.1-0.1-0.1,1.4,0.6,2.1c0.2-0.2,0.1-1.3,0-1.1c-0.2-0.9,0.8-0.2,0.7,0.5      c0.7-0.1-0.7-1,0.1-1.2c-0.3-0.2-0.6,0.1-0.5-0.2c0,0.1,0.4-0.6,0.7-1.2c0.5,0.3-0.3,0.9,0.5,0.4c0.2,0.1,0.1,0.3,0,0.4      c0.2,0,0.4-0.3,0.7-0.1c-0.1,0.5,1.2,1.1,1.2,0.7c0.3,0.7-0.9,0.9-1.3,1.8c-0.1,0.2,0.3,0.3,0.5,0.4c-0.1-0.8,0.7-0.6,0.6-1.5      c0.4,0,0.6-0.4,0.8,0.1c-0.2-0.7,0.1-0.8,0.3-0.1c0.4-0.2,0.1-0.7,0.8-0.9c0.3,0.2-0.1,0.6,0.6,0.7c0.5,0.5-0.8,0-0.7-0.3      c-0.3,0,0,0.3-0.2,0.5c0.5-0.1,1.2,0.4,1.3,0.5c0.1,0.2-0.9-0.3-1.8-0.3c0,0.3,0.2,0.4,0.1,0.7c0.2,0.6-0.1-0.5-0.7-0.5      c0.5,1-0.4,0.1-0.9,1.1c0,0.2,0,0.4,0.2,0.5c-0.2-0.8,0.5-0.1,0,0.4c-0.7-0.5-0.2-0.3-0.6,0.4c-0.1-0.2,0-0.5-0.4-0.6      c0.7-0.6-0.4-1.2-0.9-1.4c0.1,0.7,0.7,0.8,1.1,1c-1,1.1-0.3-0.2-1.3,0.6C71.1,54.2,72,54.3,72,54c-0.3,0-0.4,0.2-0.7,0.1      c-0.2,0.4,0.4,0.4,0.3,0.8c0.2,0,0.4-0.3,0.7-0.1c0.2,0.5-0.1,0.2-0.3,0.7c-0.1-0.1-0.1-0.3-0.3-0.3c0.4,0.7-0.3,0.9-0.8,1.4      c-0.4-0.2-0.2-0.6,0-1.1c0.1,0.1,0.1,0.3,0.3,0.3c0-0.2,0-0.4-0.2-0.5c-0.9-0.4-1,1.2-0.6,1c0.3,0.5-0.6,0.3-0.8-0.1      c0.4-0.4-0.3-1,0.5-0.7c0-0.3-0.2-0.4-0.1-0.7c-0.2,0-0.3,0.1-0.4,0c0,0.2,0.1,0.2,0.2,0.1c0.2,0.2-0.1,0.3-0.3,0.3      c0,0.4,0.3,0.9-0.2,1.2c0.2,0.1,0.3,0.1,0.4,0c0.4,0.3-0.6,0.5-0.7,0.8c0,0.5,0.8-0.3,1.2,0.1c-0.1,0.2-0.2,0.5-0.3,0.7      c0.3,0.1,0.3-0.5,0.6-0.4c-0.1-0.2-0.2-0.4-0.4-0.6c0.3-0.6,0.4,0.6,0.6,0c0.2,1.3-1.6,1.9-1.9,1.1c0,0.7,0.5,0.2,0.5,0.8      c-0.7,0.3-0.8,0-1.5,0.5c0,0.3,0.3,0.1,0.4,0c0.3,0.2-0.6,0.6-0.8,0.9c-0.3-1.7,0.4-1.3,0.3-2.4c0.1,0.2,0.2,0.3,0.5,0.4      c0-0.2-0.1-0.3,0-0.4c-0.3-0.1-0.7-0.1-0.9,0.1c-0.2-0.1,0.2-0.6-0.1-0.7c-0.5-0.1,0.1,0.4-0.3,0.7c0.5,0.2,0.5-0.2,0.7,0.3      c-0.8,0.6-0.1,0.8-0.5,1.9c-0.3-0.9-0.3,0.1-0.5,0.7c-0.4,0.3-0.4-0.6-0.7,0.1c-0.2-0.3-0.7-0.5-0.1-0.7c-0.4-0.1-0.6,0.2-1.1,0      c0.9,0.5,0.1,0.4-0.5,0.8c-0.2-0.2-0.3-0.4-0.1-0.7c-0.4,0.1-0.1,1.7-0.8,0.9c-0.3,0.7,0.2,1,0.2,1.6c0.8-0.5,0.1-1.1,0.5-1.7      c0.1,0.7,0.5,0.3,0.9-0.1c0.5,0.9,1.1-0.6,1.6,0.2c-0.1,0.2-0.2,0-0.2-0.1c-0.4-0.1,0.1,0.6-0.5,0.7c-0.4-1.4-0.5,1.2-1.3,0.1      c0.5,0.9,0.2,0.6,0.5,1.5c0.3-0.2,0.1,0-0.1,0.2c-0.5-0.1-0.2-0.5-0.6-0.7c-0.2,0.5,0.2,0.6,0.5,0.8c-0.5,0.4-1-0.5-0.7-0.9      c-0.2,0-0.3,0.1-0.4,0c-0.1,0.6,0.2,1.6-0.9,1.1c0.2,0.7,0.5,1.1,0,1.7c-0.4-0.2,0.5-0.4-0.1-0.7c-0.6-0.2,0.2,1.3-0.7,0.8      c-0.2,0.5,0.6,0.3,0.7,0.3c0.6,0-1.1,0.1-1.2,0.8c-0.1-0.2-0.2-0.3-0.4-0.1c-0.2-0.2,0-0.5,0.1-0.8c0.1,0.2,0.2,0.3,0.5,0.4      c-0.2-0.6-0.1-1.3-0.8-1.6c-0.1,0.3,0.1,0.5,0.6,0.7c-0.1,0.2-0.1,0.4-0.2,0.5c-0.2-0.1-0.5-0.2-0.7-0.3c0.4,0.7,0.2,0.3,0.4,1      c-0.4,0.6-0.5-0.3-1.1,0c0,0.2,0.3,0.4,0.1,0.7c-0.3-0.1-0.2-0.3-0.5-0.4c0.3,0.7-1.1,1.3,0.2,1.6c-0.2-0.5-0.3-0.3,0.2-0.5      c0.3,0.7-1,0.8-0.4,1.5c-0.2-0.2-0.5-0.2-1,0.4c-0.6-0.1-0.4-0.5-1-0.6c0.7,0.7-0.2,1.7-0.9,1.1c0,0.2,0.1,0.3,0,0.4      c0.5,0.1,0.8-0.6,1.4-0.3c-0.4,0.6,0,0.9-0.4,1.1c-0.6-0.9-0.9-0.1-1.9-0.5c0.3,0.3,0.2,0.8-0.1,1.4c-0.3-0.2-0.4,0-0.5,0.2      c-0.5-0.4-0.4-0.3-1-0.2c-0.1,0.3,0.5,0.3,0.4,0.6c0.2-0.1,0.4-0.2,0.6-0.4c0,1.9-0.8,1.8-1.8,2.9c0-0.9-1-0.4-0.7-1.3      c-0.2-0.1-0.2,0.2-0.3,0.3c0.2,0.7,1,0.4,0.7,1.5c-0.5-0.1-0.8-0.4-0.5-0.8c-0.3,0.7-0.5,0.3-1.1,0.2c0,0.1,0.5,0.6,0.9,0.4      c0.4,0.8-1.5,1.2-0.2,1.6c-0.2,0.1-0.3,0.2-0.4,0.5c-0.3-0.1-0.6-0.2-0.9-0.4c0.1-0.3,0.4-0.3,0.5-0.7c-0.3,0.1-0.6,0.4-0.5-0.2      c-0.5-0.1,0.4,0.9-0.5,0.7C50,78,50.7,77.5,50.7,78c-0.1,0.5-0.5,0.2-0.7,0.6c0.3,0,0.6-0.1,0.8-0.3c0.3,0.3-0.4,1-0.8,0.5      c0,0.3,0.1,0.5,0.4,0.6c-0.4,0.1-0.7,0.4-1.3,0.1c0.1,0.8,0,0.8-0.8,1c0,0.3,0.3,0,0.5,0.2c-0.1,0.2-0.2,0.5-0.3,0.7      c-0.3-0.1-0.2-0.3-0.5-0.4c-0.1,0.3,0.1,1.6-0.7,1.2c0.1-0.3,0.2-0.5,0.4-0.5c-0.1-0.3-0.4-0.6,0.1-0.8c-0.2,0-0.3,0.1-0.4,0      c-0.4,0.5,0.1,0.7-0.2,1.2c-0.3-0.2-0.4,0-0.5,0.2c-0.2-0.1,0-0.4,0-0.6c-1,0.5,0.7,1-0.1,1.9c-0.9-0.7-1.5,0.8-1.7,1      c0.4,0.1,0.4-0.6,0.8-0.3c0.8-0.3-0.8,0.2-0.2,0.5c-0.3,0.2-0.8,0-1.1,0.2c0,0.3,0.3,0,0.5,0.2c-0.2,0-0.6,0.8-0.1,0.4      c0.5,0.3-0.4,0.2-0.4,0.5c-0.2-0.1-0.1-0.3,0-0.4c-0.2,0-0.4,0.1-0.6,0c-0.3,0.5,0.4,0.6-0.1,1.2c-0.3-0.2-0.5,0.1-0.8-0.1      c0.1-0.1,0.3-0.1,0.3-0.3c-0.3,0.1-0.3,0-0.5-0.2c0.2,1-0.4,0.9-0.8,2.4c-0.2-0.2-0.2-0.4-0.4-0.6c0.4,1.5-2,1.7-1.4,2.4      c-0.3-0.1-0.5-0.2-0.6,0c-0.4-0.5,0.1-0.6-0.4-1.2c-0.6-0.2,0.5,0.9-0.4,0.5c0,0.5,0.9,0.5,0.4,1.2c0.3,0,0.6-0.1,0.8-0.3      c0,1-0.5,0.7-1.3,1.2c0,0.2,0.1,0.3,0,0.4c0.3,0.5-0.2-0.2-0.3-0.3c0.2-0.2,0.4-0.2,0.6-0.4c-0.4-0.1-0.4,0.4-0.9,0.1      c-0.1,0.3-0.1,0.5,0.1,0.7c-0.3,0.4-0.4-0.6-0.8-0.7c0.1-0.3,0.4-0.3,0.5-0.7c-0.7,0-0.7,0.5-1.4-0.1c0.4,0.8,0.8,0.7,1.2,1.3      c-0.1,0.2-0.2,0-0.2-0.1c-1.3,0.4-1.3-1.1-2.2-0.9c0-0.4-0.6-0.6-0.2-1.1c0.2,0.1,0.4,0.1,0.5,0.2c-0.7,0.5,0.2,0.2,0.5,0.2      c-0.6-0.4-0.6-0.9-1-1.7c-0.5-0.2-0.3,0.6-0.3,0.7c0.3,0.5-0.2-0.2-0.3-0.3c-0.3,0-0.5,0.1-0.6,0.4c-0.1-0.1-0.1-0.3-0.3-0.3      c-0.2,0.3,0,0.4,0,0.6c0.3,0.1,0.7,0.1,0.9-0.1c-0.2-0.3,0-0.1,0.2,0.1c-1.2,0.3-1.3,1.1-2.5,0.9c-0.1,0.4,0.4,0.4,0.1,0.9      c-0.3-0.1-0.6-0.2-0.9-0.4c0.3-0.7,0.3,0.2,0.7-0.1c0.1-0.3-0.3-1.3,0.4-0.9c-0.4-0.5-0.8,0.3-1.3,1.2c-0.2-0.2-0.2-0.5-0.1-0.9      c-0.2-0.1-0.5,0.4-0.2,0.5c-0.2,0.2-0.5-0.3-1-0.2c0.2-0.2,0.4-0.4,0.5-0.8c-0.7-0.2-0.7-0.1-1-0.6c-0.2,0.3,0.1,0.5-0.1,0.8      c0.5,0.5,0.4-0.5,0.9-0.1c-0.2,0.1-0.4,0.3-0.5,0.7c-0.3-0.1-0.2-0.3-0.5-0.4c-1.3,1.5-0.9,3.1-3,2.2c0,0.2,0.3,0.3,0.4,0.1      c0,0.3,0,0.3,0.3,0.8c0.5,0.1-0.1-0.4,0.4-0.5c0.4,0.2-0.2,1.2-0.7,0.6c-0.1,0.2,0.2,0.2,0.3,0.3c-0.1,0.4-0.6,0-0.7,0.6      c-0.7-0.5-1.4-1.3-2.2-1.3c0.2-0.5,0.5-0.5,0.7-0.1c0-0.2,0-0.4-0.2-0.5c-0.4,0-0.6,0.5-0.9,0.7c-0.5-0.5,0-1.1-0.9-0.8      c0.7-0.3,0.5-0.5,0.4-1.1c0.4,0.5,0.3,1,0.7,0.5c0.1-0.3-0.6-0.4-0.6-0.7c0.3-0.3,0.2-0.6,0.8-1c0.7-0.3-0.7,0.6,0.4,0.6      c0.3-0.8,0-0.8,0.5-1.3c-0.5,0.4-1.1,0.5-0.5-0.4c0.6,0.5,0.9-0.4,1.2,0.2c0.1-0.2,0.1-0.4,0.2-0.5c-0.5-0.1-0.6,0.5-1.1,0.2      c0.1-0.3,0.1-0.5-0.1-0.7c0.3-0.5,0.2,0.4,0.5,0.4c0.2,0,0.3-0.1,0.4,0c-0.1-0.3-0.2-0.5-0.3-0.8c0.1-0.3,0.7,0.5,1.3,0.5      c-0.3,0.2-0.2,0.3-0.2,0.5c0.3,0.1,0-0.7,0.8-0.3c-0.3,0.2-0.2,0.3-0.2,0.5c0.2,0,0.2-0.1,0.1-0.2c0.2-0.1,0.4-0.1,0.7-0.1      c-0.5-0.4-0.5-1,0.2-1.2c0.1-0.5-0.4,0.1-0.5-0.4c-0.1,0.1,0,0.2,0.1,0.3c-0.1,0.2-0.4,0-0.6,0c0,0.4,0.7,0.6,0.1,0.9      c-0.1-0.8-0.4,0-1.1-0.4c0.1-0.2,0.3-0.1,0.4,0c0.1-0.2-0.2-0.2-0.3-0.3c0.1-0.3,0.2-0.6,0.4-0.9c0.3,0.6,0.6-0.2,1.1,0.4      c-0.3-0.4,0.3-1.1-0.3-0.9c-0.2-0.2,0.7-0.9,0.9-1.3c0.2,0.9,0.9,0,0.9,0.8c0.2,0,0.1-1.1-0.1-1.3c-0.1-0.6,0.9-0.3,0.5-0.7      c0.3-0.4,0.4,0.5,0.8,0.5c-0.5-1.1,0.4-0.7,0.6-1.5c-1,0.1-1.1,0.2-1.9,0.5c-0.3,0.3-0.2-0.2,0-0.4c0.9,0.5,0.5-1.4,1.3-0.6      c-0.1,0.2-0.3,0.1-0.4,0c0,0.4,0.3,0.2,0.5,0.2c-0.1-0.2,0.1-0.5-0.1-0.7c0.4-0.3,1.4-1.3,1.5-2.2c0.6,0.6,0.8-0.1,1.5,0.4      c-0.7-0.4-0.2-0.9-0.8-1.2c0.4-0.3,0.8-0.5,1.2-0.8c0.3,0.3-0.1,0.3-0.2,0.5c0.4,0.1,0.6-0.3,0.7-0.8c-0.8,0.1,0-0.1-0.3-0.3      c0.4-0.1,0.8-0.3,1.2-0.4c0-0.6-0.2-0.7,0.2-1.2c0.3-0.1,0.7,0.1,1.1,0c0-0.3-0.3,0-0.5-0.2c0.2-0.1,0.3-0.2,0.1-0.4      c0.2-0.4,0.8,0.2,0.9,0.4c-0.6-0.9,0.1-0.6-0.6-1.3c0.3-0.2,0.4-0.6,0.8-0.5c-0.1-0.5-0.7,0.3-0.7-0.5c-0.5,0.6-0.9,0.2-1.5-0.6      c-0.4,0.7-0.3,0.9,0.2,1.7c-0.1,0.2-0.4,0-0.5,0.2c-0.3-0.3-0.3-0.4,0-0.6c-0.6-0.4-0.7,1.2-1.1,0.2c-0.2,0.7,1,0.7,0.7,1.3      c-0.1-0.2-0.2-0.3-0.4-0.1c-0.2-0.1-0.1-0.3,0-0.4c-0.3,0-0.4,0.2-0.7,0.1c0,0.3,0.1,0.5,0.4,0.6c-0.2,0.2-0.4,0.2-0.6,0.4      c-0.2-0.2,0.2-0.2,0.2-0.5c-0.3,0-0.5,0.1-0.6,0.4c0.3,0.3,0.3,0.8,0.4,1.2c-0.1-0.1-0.9,0.2-0.7,0.6c0.3,0.8-0.6-0.8-0.7,0.1      c-0.4-0.5-0.2-0.2-0.3,0.3C31,78.4,31,78.1,30.8,78c0.3-0.4,1.5-0.5,1.2-1c0.1-0.2,0.3-0.1,0.4,0c-0.5-1-0.9,1.3-1.7,0.6      c0.2,1.1-0.6,1-0.5,1.9c0.9-0.9,0,0.3-0.6,1c-0.3-0.1-0.5-0.1-0.7,0.1c-0.4-0.3,0.3-0.2,0-0.6c-0.3,0.1-0.1,0.3-0.5,0.7      c-0.3-0.1-0.5-0.2-0.6,0c-0.3-0.2,0.1-0.8-0.5-0.8c0.3-0.3,0.8-0.2,1,0.2c0.3,0,0-0.3,0.2-0.5c-0.5,0.2-0.2-0.1-0.7-0.3      c-0.2,0.3-1.2,0.1-0.8,0.5c-0.3,0.1-0.5-0.4-0.8-0.5c0.8,0-0.1-1.1,0.9-1.3c-0.3-0.3-0.2-0.1-0.3-0.9c0.2,0,0.1,0.1,0.1,0.3      c0.2,0,0.4-0.3,0.7-0.1c0-0.8-0.2-0.3,0.4-0.9c0.1,0.2,0.2,0.3,0.5,0.4C28,75.6,29,74.9,29.8,74c-1.8,1.1-0.2-0.2-0.6-0.7      c0.4-0.2,0.7-0.4,1.2-0.4c-0.6,0.5,0,0,0.2,0.5c0.2-0.6-0.5-0.8-0.3-1.4c0.5-0.1,0.7,0.8,0.9,0.4c0.4,0.2-0.2,0.8-0.4,0.9      c0.2-0.1,0.5,0,0.8,0.1c0-0.2-0.3-0.4-0.1-0.7c0.2,0.4,0.9,0.1,0.7,0.9c0.5-0.4,0.7,0.2,1.3-0.1c0.1-0.6-0.4,0.2-0.6,0      c-0.2-0.3,1.1-0.3,1.3-0.7c-0.1-0.5-0.8-0.7-0.3-1.4c-0.2-0.1-0.3,0.3-0.4,0.5c0.1,0.3,0.3,0.6,0.5,0.8      c-0.2,0.2-0.4,0.2-0.6,0.4c-0.3-0.3-0.3-0.4,0-0.6c-0.3,0.1-0.7,0-0.8,0.5c0.2,0.1,0.2-0.2,0.3-0.3c0.3,0.5-0.7,0.8-0.9,0.3      c0.1-0.1,0.3-0.1,0.3-0.3c-0.5,0.1-0.5,0.3-1-0.2c0.2-0.2,0.4-0.2,0.6-0.4c-0.4-0.3-0.5,0.2-0.8,0.3c-0.2,0-0.1-0.1-0.1-0.3      c-0.4-0.2,0.8,0.1,0-0.6c0.2,0.1,0.7-0.2,1,0.2c-0.3-0.7,0.4-0.8-0.3-1.4c0.1-0.4,0.4-0.5,0.8-0.3c-0.1,0.2-0.3,0.1-0.4,0      c0,0.4,0.3,0.2,0.5,0.2c0-0.2,0-0.4-0.2-0.5c0.2-0.2,0.5,0,0.8,0.1c-0.6,0.4,0.1,0.3,0.7,0.5c-0.3,0.3-0.7,0.5-0.9,0.1      c0.4,0.7-0.3,1.1-0.5,1.3c0.1,0.2,0.2,0.4,0.4,0.6c-0.1-0.2,0.1-0.5-0.1-0.7c0.8-0.2,1.1-1.1,1.4-1.5c0-0.2-0.1-0.3,0-0.4      c-0.3,0,0,0.3-0.2,0.5c-0.1-0.2-0.3-0.4-0.7-0.5c0.3-0.1,0.5-1,0.8-0.3c0.2-1.2-0.6,0.3-1.1,0c0.5-0.6,0.7-0.5,0.8-1.4      c0.2-0.1,0.5,0.1,0.7-0.1c0.5,0.4-0.5,0.1-0.6,0.4c0,0.4,0.8-0.3,1.3,0.3c0-0.6-0.5-0.9-1.1-0.9c0.4-0.4,0.6-1.2,0.6-1.5      c0.4-0.5,0.6,0.4,0.8,0.5c-0.3,0.5-0.2-0.4-0.5-0.4c0.1,0.2-0.1,0.5,0.1,0.7c-0.3,0.5-0.2-0.4-0.5-0.4c-0.3,1.2,2.1,0.6,1.7-0.2      c-0.3,0.1-0.1,0.4-0.7,0.6c-0.4-0.5,0.9-0.8-0.2-1.1c0.6-0.1,0.5-1.2,0.4-1.1c-0.1-0.5,1.2,0,0.6-1c1.1,0.4,1.9,0.9,2.9,0.1      c-0.3-0.2-0.4,0-0.5,0.2c-1.4-0.8-0.7-1-1.6-1.9c0-0.4,0.7-0.4,0-0.6c1.1-0.2,1.3,0.2,1.2,1.1c0.2,0,0.3-0.3,0.5-0.2      c0-0.2-0.1-0.2-0.2-0.1c-0.4-0.2,0.2-0.9-0.4-1c0-0.4,0.7-0.4,0-0.6c0-0.3,0.9-0.2,0.4-0.5c0.3-0.3,0.3,0.1,0.5,0.2      c0.2,0,0.3-0.1,0.4,0c-0.1-0.3,0-0.7-0.5-0.8c0.5-0.7,0.5,0.3,0.8,0.5c1,0.1,0.9-1.4,1.6-1.3c0.1-0.5-0.6,0.1-1-0.2      c0.5-0.7,0.6-0.1,1.4-0.3c0.2-0.5-0.6-0.3-0.6,0C41.6,58.3,42,58.3,42,58c-0.5,0.2-0.8,0.8-1.3,0.1c0.4,0.6-0.2,0.8-0.2,1.6      c-0.7-0.1,0-0.7-0.3-0.9c-0.4,0.1-0.3,0.9-0.9,0.7c0.1-0.5,0.5-0.3,0.5-0.8c0-0.2-0.1-0.3,0-0.4c-0.2,0-0.6,0.1-0.3,0.3      c-0.2,0.3-0.6-0.1-0.7,0.6c-0.8-0.3-0.6-0.9-0.9-1.4c0.8,0.2,0.7-0.7,1.3-0.6c-0.3,0.7-0.5,0.6-0.5,1.3c0.2-0.5,0.5-0.6,1.3-0.6      c0.4,0.3-0.3,0.2,0,0.6c0.4,0.1,0.6-0.3,0.7-0.8c-0.4-0.2-1.6-0.3-1.2-1.3c0.2,1,0.6-0.4-0.4-0.1c0.2-0.1,0.3-0.2,0.1-0.4      c0.1-0.2,0.4,0,0.6,0c0-0.6,0.2-0.6,0.6-1c-0.3-0.2-0.4,0-0.6,0c-0.1,0.3-0.2,0.5,0,0.6c-0.4,0.1-0.7,0.4-1.1,0.2      c0.4-0.5,0.4-0.6,0-1.1c-0.3,0.5,0.6,0.5-0.1,0.8c0,0.3,0.1,0.5,0.4,0.6c-0.3,0.4-0.8,0.3-1,0.9c-0.1-0.4-1.1-0.1-0.4-0.6      c-0.6,0.1-1,0.7-0.7,1.2c0.5,0.1-0.1-0.4,0.4-0.5c-1.1-0.1,1-0.3,0.3,0.8c-0.6-0.6,0,0.1-0.2,0.5c-0.2-0.1-0.3-0.1-0.4,0      c-0.1-0.2-0.1-0.4-0.1-0.7c-0.3,0.1-0.7,0-1.2-0.2c0.1,0.3,0,0.3-0.2,0.5c0.3-0.2,0.8,0,1.1-0.2c0.6,0.5-1,0.4-0.4,0.9      c0-0.4,1-0.5,0.4,0.1c0.8-0.1,1.7,0.3,0.8-0.3c0.9-0.3,0.9,1.1,1.5,1.4c0.1-0.2,0.4-0.5,0.8,0.1c-0.1,0.2-0.2,0-0.2-0.1      c-0.4,0.4-1,0.2-1.3,0.7c-0.2,0-0.1-0.1-0.1-0.3c-0.2-0.1-0.2,0.2-0.3,0.3c-0.2-0.1,0-0.4,0-0.6c0.4,0.2,0.5,0.1,0.8,0.1      c0-0.2-0.1-0.3,0-0.4c-1,0.2-0.7-0.2-1.6-0.6c0.7,0.8,0,2.2-0.7,2.9c-0.2-0.1-0.1-0.3,0-0.4c-0.3-0.1-0.4,0.6-0.7,0.6      c1.1-0.4,1,1,1.7,0.5c0.2,0.2,0.2,0.5,0.1,0.9c-0.4-0.2-0.8-0.3-1.3-0.5c0.7-0.2,0.2-0.1,0-0.6c-0.2,0.3-0.6,0.9-1.1,0.2      c0,0.3,0.2,0.4,0.1,0.7c0.8-0.4,0.3,0.1-0.1,0.4c0.5,0.2,0.7-0.3,1-0.4c0.4,0.2-0.5,0.4,0.1,0.7c-0.1,0.2-0.2,0-0.2-0.1      c-0.3,0-0.1,0.3,0,0.4c-0.4,0.1-0.8-0.2-1.1-0.4c-0.4,0.8,0.8,0.6,0.7,0.9c0.4,0.5-0.4-0.4-0.7,0.1c0.1-0.4-0.1-0.5-0.7-0.3      c-0.5-0.3,0.4-0.2,0.5-0.2c0-0.2-0.1-0.3,0-0.4c-0.3,0.4-1.4-0.2-1.4-0.8c-0.4,0-0.3,0.5-0.6,0c-0.1,0.4,0.2,0.6,0,1.1      c-0.2-0.2-0.2-0.4-0.4-0.6c-0.2,0.5,0.3,0.8,0.6,0.7c0.1-0.2,0.1-0.3,0-0.4c0.4-0.4,0.8,0.4,1.1,0.4c-0.2,0.2-0.4,0.2-0.6,0.4      c0.6-0.2,0.4,0.2,0,0.4c0.2,0.1,0.3,0.1,0.4,0c0.2,0.4-0.7,1.2-0.3,1.8c-0.2,0.4-0.4-0.4-0.4-0.6c-0.4-0.1-0.6,0.3-0.8,0.5      c0.3,0.2,0.4,0,0.5-0.2c0.2,0.2,0,0.5-0.1,0.8c-0.1-0.2-0.3-0.4-0.7-0.5c-0.1-0.2,0-0.5,0.1-0.8c-0.2-0.1-0.5-0.2-0.7-0.3      c0.3,0.5,0.8,1,0.3,1.8c-0.1-0.6-0.3-0.2-0.6-0.7c-0.2,0.7,0.8,0.5,0,1.1c0.3-0.1,0.6-0.3,0.8-0.5c0.1,0.2,0.2,0.3,0.5,0.4      c-0.3,0.4-0.8,0.3-1,0.9c-1.3-0.7-0.9,0.8-1.7,1c0.4,0.3,0.5-0.2,0.8-0.3c0.2,0.1,0,0.2-0.1,0.2c0,0.2,0.3,0.3,0.4,0.1      c0.1,0.2-0.1,0.7-0.4,0.9c-0.2-0.1,0.2-0.6-0.1-0.7c-0.2,0.4-0.5-0.1-1.1,0.6c-0.2-0.1,0-0.2,0.1-0.2c0.1-0.4-0.7,0-0.9,0.1      c-0.3-0.4,0.6-0.2,0.4-0.9c-0.5,0.2-0.2-0.1-0.7-0.3c0,0.3,0.3,0.5,0.6,0.7c-0.8,0.2-0.4,0.2-1.2,0.8c0.1,0.1,0.2,0,0.3-0.1      c-0.1,0.9,1.4,0.3,1.1,0.9c0.1,0.1,0.2,0,0.3-0.1c0.3,0.2-0.1,0.5-0.3,0.3c-0.1,0.1,0,0.2,0.1,0.3c-1.2-0.9-1.6,0.6-2,1.3      c0.2,0,0.4,0,0.5-0.2c0.3,0.1-0.4,1.3,0.3,0.8c-0.3,0.1-0.5,1.4-1.3,1.2c0.1-0.3,0.2-0.5,0-0.6c-0.1,0.5-1.5,0.2-1.9,1.1      c1-0.5,0.9-0.2,1.5-0.7c0.1,0.2,0,0.5,0.4,0.6c-0.9,0.1,0.1,0.5-0.5,0.8c-0.1-0.2-0.1-0.4-0.1-0.7c-0.2,0.1-0.5-0.1-0.7,0.1      c0.3,0.5,0.6-0.3,0.6,0.7c-0.1,0.3-0.9-0.5-0.6,0c-0.4,0.5-0.5-0.4-0.1-0.7c-0.2,0-0.3,0.1-0.4,0c-0.2,0.4,0.1,0.7,0.3,0.9      c-0.2,0.2-0.2-0.2-0.5-0.2c0.1,0.7,0.5,0.3,1.2,0.7c-0.3,0.3-0.8,0.2-1.2,0.4c0,0.3,0.2,0.4,0.1,0.7c-0.3-0.6-0.7,0.7-1.6,0.4      c0,0.3,0.1,0.5,0.4,0.6c-0.1,0.6-0.5,0.4-0.6,1c-0.3-0.2-0.3-0.6-0.8-0.7c0-0.2,0.1-0.1,0.3-0.1c-0.1-0.3-0.4-0.3-0.7-0.3      c-0.1,0.6,1,0.4,0.3,0.9c0.2-0.1,0.5,0,0.8,0.1c-0.2,0.5-0.9,0.2-0.3,0.7c-0.1,0.3-0.7-0.3-0.4-0.6c-0.2,0-0.4,0.3-0.7,0.1      c-0.2,0.6-0.4,1.1-0.9,1.1c-0.1,0.5,0.4-0.1,0.7,0.3c-0.9,0.6-2.2,1-1.9,2.2c-0.3,0.2-0.7,0.1-0.2,0.5c-0.8-0.6-1.2,0.5-1.4-0.8      c-0.5-0.2-0.2,1.1-0.8,0.5c0.9-0.4-0.5-0.7,0.1-1.4c-0.3-0.2-0.5,0.1-0.8-0.1c0.6-0.6,0.4-0.1,0.4-0.9c0.7,0.5,0.2-0.9,0.5-1.3      c0.2,0.4,0.2,0.1,0.7,0.3c0.1-0.3-1-0.7,0-0.4c0.1-0.3,0.1-0.5-0.1-0.7c0.6-0.3,0.3-0.6,1-0.9c0.2,0.2-0.1,0.2-0.1,0.4      c0.4,0.3,0.4,0.4,0.3,0.9c0.2-0.1,0.5-0.5,0.1-0.8c0.3-0.2,0.6-0.2,0.8-0.5c0.1-0.4-0.4-0.6-0.3-0.9c0.1-0.3,0.4-0.3,0.5-0.7      c0.6,0.8-0.1-0.6,0.7-0.1c-0.3-0.7,0.8-1.9,0.2-2c0.4-0.3,1.1-0.6,0.9-1.1c-0.3-0.5,0.2,0.2,0.3,0.3c0.5-0.7,0.9-0.7,1.5-0.5      C22.5,73.3,22.7,72.9,23,73.6"/></g></g></g></g><text x="0" y="115" fill="#000000" font-size="5px" font-weight="bold" font-family="'Helvetica Neue', Helvetica, Arial-Unicode, Arial, Sans-serif">Created by Richard Slade</text><text x="0" y="120" fill="#000000" font-size="5px" font-weight="bold" font-family="'Helvetica Neue', Helvetica, Arial-Unicode, Arial, Sans-serif">from the Noun Project</text></svg>